<svg width="17" height="17" viewBox="0 0 17 17" fill="none" xmlns="http://www.w3.org/2000/svg">
<path d="M17 8.5C17 3.80215 13.1984 0 8.5 0C3.80215 0 0 3.80163 0 8.5C0 13.1562 3.76985 17 8.5 17C13.2107 17 17 13.1776 17 8.5ZM8.5 0.996094C12.6377 0.996094 16.0039 4.36232 16.0039 8.5C16.0039 10.0136 15.5537 11.4684 14.7188 12.7007C11.3664 9.09454 5.63973 9.08806 2.28116 12.7007C1.44628 11.4684 0.996094 10.0136 0.996094 8.5C0.996094 4.36232 4.36232 0.996094 8.5 0.996094ZM2.90242 13.4971C5.88318 10.1537 11.1176 10.1544 14.0975 13.4971C11.1067 16.8431 5.89446 16.8441 2.90242 13.4971Z" fill="#BEA267"/>
<path d="M8.5 8.99805C10.1477 8.99805 11.4883 7.65747 11.4883 6.00977V5.01367C11.4883 3.36597 10.1477 2.02539 8.5 2.02539C6.85229 2.02539 5.51172 3.36597 5.51172 5.01367V6.00977C5.51172 7.65747 6.85229 8.99805 8.5 8.99805ZM6.50781 5.01367C6.50781 3.91512 7.40144 3.02148 8.5 3.02148C9.59856 3.02148 10.4922 3.91512 10.4922 5.01367V6.00977C10.4922 7.10832 9.59856 8.00195 8.5 8.00195C7.40144 8.00195 6.50781 7.10832 6.50781 6.00977V5.01367Z" fill="#BEA267"/>
</svg>
