<svg width="21" height="16" viewBox="0 0 21 16" fill="none" xmlns="http://www.w3.org/2000/svg">
<rect x="0.5" y="0.5" width="20" height="15" stroke="#777777"/>
<path d="M15.5 8.5C15.7761 8.5 16 8.27614 16 8C16 7.72386 15.7761 7.5 15.5 7.5V8.5ZM5.5 8L5.19303 7.60532C5.07124 7.70005 5 7.8457 5 8C5 8.1543 5.07124 8.29995 5.19303 8.39468L5.5 8ZM10.307 4.89468C10.5249 4.72514 10.5642 4.411 10.3947 4.19303C10.2251 3.97506 9.911 3.93579 9.69303 4.10532L10.307 4.89468ZM9.69303 11.8947C9.911 12.0642 10.2251 12.0249 10.3947 11.807C10.5642 11.589 10.5249 11.2749 10.307 11.1053L9.69303 11.8947ZM15.5 7.5L5.5 7.5V8.5L15.5 8.5V7.5ZM5.80697 8.39468L10.307 4.89468L9.69303 4.10532L5.19303 7.60532L5.80697 8.39468ZM5.19303 8.39468L9.69303 11.8947L10.307 11.1053L5.80697 7.60532L5.19303 8.39468Z" fill="#777777"/>
</svg>
