<svg width="20" height="18" viewBox="0 0 20 18" fill="none" xmlns="http://www.w3.org/2000/svg">
<path fill-rule="evenodd" clip-rule="evenodd" d="M5.45283 1.15226C4.2685 1.15226 3.18046 1.62859 2.38897 2.49358C1.5857 3.37165 1.14325 4.58542 1.14325 5.91139C1.14325 7.31051 1.65926 8.56178 2.81619 9.96856C3.93446 11.3283 5.59776 12.7567 7.52356 14.4106L7.52714 14.4136C8.20042 14.9918 8.96365 15.6473 9.75797 16.3473C10.5571 15.646 11.3215 14.9894 11.9961 14.4103C13.9218 12.7564 15.5849 11.3283 16.7032 9.96856C17.86 8.56178 18.376 7.31051 18.376 5.91139C18.376 4.58542 17.9335 3.37165 17.1303 2.49358C16.3389 1.62859 15.2507 1.15226 14.0665 1.15226C13.1989 1.15226 12.4023 1.43016 11.699 1.97824C11.0722 2.46684 10.6355 3.08456 10.3796 3.51677C10.2479 3.73903 10.0162 3.87165 9.75959 3.87165C9.50302 3.87165 9.27133 3.73903 9.13967 3.51677C8.8838 3.08456 8.44718 2.46684 7.82022 1.97824C7.11688 1.43016 6.32031 1.15226 5.45283 1.15226ZM9.75959 17.5C9.48174 17.5 9.21381 17.3985 9.00501 17.2142C8.21652 16.5194 7.45629 15.8664 6.78555 15.2905L6.78209 15.2875C4.81561 13.5988 3.11746 12.1404 1.93596 10.7038C0.615185 9.0977 0 7.57492 0 5.91139C0 4.29519 0.549991 2.8041 1.54849 1.7126C2.55887 0.60825 3.94536 0 5.45283 0C6.57958 0 7.61143 0.35895 8.5197 1.06685C8.97807 1.42417 9.39358 1.86149 9.75959 2.37155C10.1258 1.86149 10.5412 1.42417 10.9996 1.06685C11.9079 0.35895 12.9398 0 14.0665 0C15.5739 0 16.9605 0.60825 17.9709 1.7126C18.9694 2.8041 19.5192 4.29519 19.5192 5.91139C19.5192 7.57492 18.9042 9.0977 17.5834 10.7036C16.4019 12.1404 14.7039 13.5986 12.7377 15.2872C12.0658 15.864 11.3043 16.518 10.514 17.2145C10.3054 17.3985 10.0373 17.5 9.75959 17.5Z" fill="white"/>
</svg>
