<svg width="57" height="57" viewBox="0 0 57 57" fill="none" xmlns="http://www.w3.org/2000/svg">
<path d="M8.15625 43.5C5.65772 43.5 3.625 45.5327 3.625 48.0312C3.625 50.5298 5.65772 52.5625 8.15625 52.5625C10.6548 52.5625 12.6875 50.5298 12.6875 48.0312C12.6875 45.5327 10.6548 43.5 8.15625 43.5ZM8.15625 50.75C6.65731 50.75 5.4375 49.5302 5.4375 48.0312C5.4375 46.5323 6.65731 45.3125 8.15625 45.3125C9.65519 45.3125 10.875 46.5323 10.875 48.0312C10.875 49.5302 9.65519 50.75 8.15625 50.75Z" fill="#BEA267"/>
<path d="M48.9375 17.2188H50.9167C51.2919 18.2709 52.2888 19.0312 53.4688 19.0312C54.9677 19.0312 56.1875 17.8114 56.1875 16.3125C56.1875 14.8136 54.9677 13.5938 53.4688 13.5938C52.2888 13.5938 51.2919 14.3541 50.9167 15.4062H48.9375V8.15625H50.9167C51.2919 9.20841 52.2888 9.96875 53.4688 9.96875C54.9677 9.96875 56.1875 8.74894 56.1875 7.25C56.1875 5.75106 54.9677 4.53125 53.4688 4.53125C52.2888 4.53125 51.2919 5.29159 50.9167 6.34375H48.9375V4.53125C48.9375 4.031 48.5315 3.625 48.0312 3.625H14.9332C13.4678 1.44094 10.9774 0 8.15625 0C3.65944 0 0 3.65944 0 8.15625V48.0312C0 52.5281 3.65944 56.1875 8.15625 56.1875H48.0312C48.5315 56.1875 48.9375 55.7815 48.9375 55.2812V53.4688H50.9167C51.2919 54.5209 52.2888 55.2812 53.4688 55.2812C54.9677 55.2812 56.1875 54.0614 56.1875 52.5625C56.1875 51.0636 54.9677 49.8438 53.4688 49.8438C52.2888 49.8438 51.2919 50.6041 50.9167 51.6562H48.9375V44.4062H50.9167C51.2919 45.4584 52.2888 46.2188 53.4688 46.2188C54.9677 46.2188 56.1875 44.9989 56.1875 43.5C56.1875 42.0011 54.9677 40.7812 53.4688 40.7812C52.2888 40.7812 51.2919 41.5416 50.9167 42.5938H48.9375V35.3438H50.9167C51.2919 36.3959 52.2888 37.1562 53.4688 37.1562C54.9677 37.1562 56.1875 35.9364 56.1875 34.4375C56.1875 32.9386 54.9677 31.7188 53.4688 31.7188C52.2888 31.7188 51.2919 32.4791 50.9167 33.5312H48.9375V26.2812H50.9167C51.2919 27.3334 52.2888 28.0938 53.4688 28.0938C54.9677 28.0938 56.1875 26.8739 56.1875 25.375C56.1875 23.8761 54.9677 22.6562 53.4688 22.6562C52.2888 22.6562 51.2919 23.4166 50.9167 24.4688H48.9375V17.2188ZM53.4688 15.4062C53.9681 15.4062 54.375 15.8132 54.375 16.3125C54.375 16.8118 53.9681 17.2188 53.4688 17.2188C52.9694 17.2188 52.5625 16.8118 52.5625 16.3125C52.5625 15.8132 52.9694 15.4062 53.4688 15.4062ZM53.4688 6.34375C53.9681 6.34375 54.375 6.75066 54.375 7.25C54.375 7.74934 53.9681 8.15625 53.4688 8.15625C52.9694 8.15625 52.5625 7.74934 52.5625 7.25C52.5625 6.75066 52.9694 6.34375 53.4688 6.34375ZM39.3439 48.9375L37.2659 46.8595C36.6107 46.2043 36.25 45.3324 36.25 44.4062C36.25 43.4801 36.6107 42.6082 37.2659 41.953L38.328 40.8909C39.3258 39.894 39.875 38.5673 39.875 37.1562C39.875 35.7452 39.3258 34.4185 38.328 33.4216L37.2659 32.3595C36.6107 31.7043 36.25 30.8324 36.25 29.9062C36.25 28.9801 36.6107 28.1082 37.2659 27.453L38.328 26.3909C39.3258 25.394 39.875 24.0673 39.875 22.6562C39.875 21.2452 39.3258 19.9185 38.328 18.9216L37.2659 17.8595C36.6107 17.2043 36.25 16.3324 36.25 15.4062C36.25 14.4801 36.6107 13.6083 37.2659 12.953L39.3439 10.875H41.6875V48.9375H39.3439ZM35.9845 11.6716C34.9867 12.6685 34.4375 13.9952 34.4375 15.4062C34.4375 16.8173 34.9867 18.144 35.9845 19.1409L37.0466 20.203C37.7018 20.8582 38.0625 21.7301 38.0625 22.6562C38.0625 23.5824 37.7018 24.4543 37.0466 25.1095L35.9845 26.1716C34.9867 27.1685 34.4375 28.4952 34.4375 29.9062C34.4375 31.3173 34.9867 32.644 35.9845 33.6409L37.0466 34.703C37.7018 35.3582 38.0625 36.2301 38.0625 37.1562C38.0625 38.0824 37.7018 38.9543 37.0466 39.6095L35.9845 40.6716C34.9867 41.6685 34.4375 42.9952 34.4375 44.4062C34.4375 45.8173 34.9867 47.144 35.9845 48.1409L36.7811 48.9375H33.0002L30.9222 46.8595C30.2669 46.2043 29.9062 45.3324 29.9062 44.4062C29.9062 43.4801 30.2669 42.6082 30.9222 41.953L31.9843 40.8909C32.9821 39.894 33.5312 38.5673 33.5312 37.1562C33.5312 35.7452 32.9821 34.4185 31.9843 33.4216L30.9222 32.3595C30.2669 31.7043 29.9062 30.8324 29.9062 29.9062C29.9062 28.9801 30.2669 28.1082 30.9222 27.453L31.9843 26.3909C32.9821 25.394 33.5312 24.0673 33.5312 22.6562C33.5312 21.2452 32.9821 19.9185 31.9843 18.9216L30.9222 17.8595C30.2669 17.2043 29.9062 16.3324 29.9062 15.4062C29.9062 14.4801 30.2669 13.6083 30.9222 12.953L33.0002 10.875H36.7811L35.9845 11.6716ZM29.6407 11.6716C28.6429 12.6685 28.0938 13.9952 28.0938 15.4062C28.0938 16.8173 28.6429 18.144 29.6407 19.1409L30.7028 20.203C31.3581 20.8582 31.7188 21.7301 31.7188 22.6562C31.7188 23.5824 31.3581 24.4543 30.7028 25.1095L29.6407 26.1716C28.6429 27.1685 28.0938 28.4952 28.0938 29.9062C28.0938 31.3173 28.6429 32.644 29.6407 33.6409L30.7028 34.703C31.3581 35.3582 31.7188 36.2301 31.7188 37.1562C31.7188 38.0824 31.3581 38.9543 30.7028 39.6095L29.6407 40.6716C28.6429 41.6685 28.0938 42.9952 28.0938 44.4062C28.0938 45.8173 28.6429 47.144 29.6407 48.1409L30.4373 48.9375H26.6564L24.5784 46.8595C23.9232 46.2043 23.5625 45.3324 23.5625 44.4062C23.5625 43.4801 23.9232 42.6082 24.5784 41.953L25.6405 40.8909C26.6383 39.894 27.1875 38.5673 27.1875 37.1562C27.1875 35.7452 26.6383 34.4185 25.6405 33.4216L24.5784 32.3595C23.9232 31.7043 23.5625 30.8324 23.5625 29.9062C23.5625 28.9801 23.9232 28.1082 24.5784 27.453L25.6405 26.3909C26.6383 25.394 27.1875 24.0673 27.1875 22.6562C27.1875 21.2452 26.6383 19.9185 25.6405 18.9216L24.5784 17.8595C23.9232 17.2043 23.5625 16.3324 23.5625 15.4062C23.5625 14.4801 23.9232 13.6083 24.5784 12.953L26.6564 10.875H30.4373L29.6407 11.6716ZM23.297 11.6716C22.2992 12.6685 21.75 13.9952 21.75 15.4062C21.75 16.8173 22.2992 18.144 23.297 19.1409L24.3591 20.203C25.0143 20.8582 25.375 21.7301 25.375 22.6562C25.375 23.5824 25.0143 24.4543 24.3591 25.1095L23.297 26.1716C22.2992 27.1685 21.75 28.4952 21.75 29.9062C21.75 31.3173 22.2992 32.644 23.297 33.6409L24.3591 34.703C25.0143 35.3582 25.375 36.2301 25.375 37.1562C25.375 38.0824 25.0143 38.9543 24.3591 39.6095L23.297 40.6716C22.2992 41.6685 21.75 42.9952 21.75 44.4062C21.75 45.8173 22.2992 47.144 23.297 48.1409L24.0936 48.9375H20.3127L18.2347 46.8595C17.5794 46.2043 17.2188 45.3324 17.2188 44.4062C17.2188 43.4801 17.5794 42.6082 18.2347 41.953L19.2968 40.8909C20.2946 39.894 20.8438 38.5673 20.8438 37.1562C20.8438 35.7452 20.2946 34.4185 19.2968 33.4216L18.2347 32.3595C17.5794 31.7043 17.2188 30.8324 17.2188 29.9062C17.2188 28.9801 17.5794 28.1082 18.2347 27.453L19.2968 26.3909C20.2946 25.394 20.8438 24.0673 20.8438 22.6562C20.8438 21.2452 20.2946 19.9185 19.2968 18.9216L18.2347 17.8595C17.5794 17.2043 17.2188 16.3324 17.2188 15.4062C17.2188 14.4801 17.5794 13.6083 18.2347 12.953L20.3127 10.875H24.0936L23.297 11.6716ZM16.3125 18.3643C16.4992 18.6397 16.7131 18.9008 16.9532 19.1409L18.0153 20.203C18.6706 20.8582 19.0312 21.7301 19.0312 22.6562C19.0312 23.5824 18.6706 24.4543 18.0153 25.1095L16.9532 26.1716C16.7122 26.4127 16.4992 26.6728 16.3125 26.9482V18.3643ZM18.0153 34.703C18.6706 35.3582 19.0312 36.2301 19.0312 37.1562C19.0312 38.0824 18.6706 38.9543 18.0153 39.6095L16.9532 40.6716C16.7122 40.9127 16.4992 41.1727 16.3125 41.4482V32.8643C16.4992 33.1398 16.7131 33.4007 16.9532 33.6409L18.0153 34.703ZM16.3125 48.0312V47.3643C16.4992 47.6398 16.7131 47.9007 16.9532 48.1409L17.7498 48.9375H16.259C16.2926 48.6393 16.3125 48.3376 16.3125 48.0312ZM16.9532 11.6716C16.7122 11.9127 16.4992 12.1728 16.3125 12.4482V10.875H17.7498L16.9532 11.6716ZM1.8125 8.15625C1.8125 4.65812 4.65812 1.8125 8.15625 1.8125C11.6544 1.8125 14.5 4.65812 14.5 8.15625V42.9164C13.0038 41.064 10.7173 39.875 8.15625 39.875C5.59519 39.875 3.30872 41.064 1.8125 42.9164V8.15625ZM1.8125 48.0312C1.8125 44.5331 4.65812 41.6875 8.15625 41.6875C11.6544 41.6875 14.5 44.5331 14.5 48.0312C14.5 51.5294 11.6544 54.375 8.15625 54.375C4.65812 54.375 1.8125 51.5294 1.8125 48.0312ZM47.125 54.375H13.2711C14.4329 53.4361 15.3274 52.1846 15.8367 50.75H42.5938C43.094 50.75 43.5 50.344 43.5 49.8438V9.96875C43.5 9.4685 43.094 9.0625 42.5938 9.0625H16.3125V8.15625C16.3125 7.20197 16.1394 6.28937 15.8367 5.4375H47.125V54.375ZM53.4688 51.6562C53.9681 51.6562 54.375 52.0632 54.375 52.5625C54.375 53.0618 53.9681 53.4688 53.4688 53.4688C52.9694 53.4688 52.5625 53.0618 52.5625 52.5625C52.5625 52.0632 52.9694 51.6562 53.4688 51.6562ZM53.4688 42.5938C53.9681 42.5938 54.375 43.0007 54.375 43.5C54.375 43.9993 53.9681 44.4062 53.4688 44.4062C52.9694 44.4062 52.5625 43.9993 52.5625 43.5C52.5625 43.0007 52.9694 42.5938 53.4688 42.5938ZM53.4688 33.5312C53.9681 33.5312 54.375 33.9382 54.375 34.4375C54.375 34.9368 53.9681 35.3438 53.4688 35.3438C52.9694 35.3438 52.5625 34.9368 52.5625 34.4375C52.5625 33.9382 52.9694 33.5312 53.4688 33.5312ZM53.4688 24.4688C53.9681 24.4688 54.375 24.8757 54.375 25.375C54.375 25.8743 53.9681 26.2812 53.4688 26.2812C52.9694 26.2812 52.5625 25.8743 52.5625 25.375C52.5625 24.8757 52.9694 24.4688 53.4688 24.4688Z" fill="#BEA267"/>
</svg>
