<svg width="27" height="24" viewBox="0 0 27 24" fill="none" xmlns="http://www.w3.org/2000/svg">
<path d="M19.3594 1C21.2323 1 22.9429 1.77525 24.176 3.18298C25.3522 4.52591 26 6.32441 26 8.2472C26 10.3402 25.1878 12.2869 23.4441 14.3735C21.8856 16.2385 19.6436 18.1608 17.0475 20.3866L17.0384 20.3944C16.0737 21.2216 15.0762 22.0769 14.0144 23.0116L13.9824 23.0398C13.8443 23.1614 13.6722 23.2222 13.5 23.2222C13.3278 23.2222 13.1557 23.1614 13.0176 23.0398L12.9856 23.0116C11.9206 22.0741 10.9203 21.2164 9.95295 20.387L9.95264 20.3867C7.3564 18.1608 5.11436 16.2384 3.55591 14.3735C1.81216 12.2869 1 10.3402 1 8.2472C1 6.32441 1.6478 4.52591 2.82397 3.18303C4.05708 1.7753 5.76768 1 7.64062 1C10.2748 1 11.9425 2.58292 12.8777 3.91087C13.1204 4.25545 13.3267 4.60098 13.5 4.92611C13.6733 4.60098 13.8797 4.25545 14.1223 3.91087C15.0575 2.58292 16.7252 1 19.3594 1Z" fill="white" fill-opacity="0.6" stroke="white"/>
</svg>
