<svg width="25" height="23" viewBox="0 0 25 23" fill="none" xmlns="http://www.w3.org/2000/svg">
<path d="M18.3594 0C20.2323 0 21.9429 0.775249 23.176 2.18298C24.3522 3.52591 25 5.32441 25 7.2472C25 9.34022 24.1878 11.2869 22.4441 13.3735C20.8856 15.2385 18.6436 17.1608 16.0475 19.3866L16.0384 19.3944C15.0737 20.2216 14.0762 21.0769 13.0144 22.0116L12.9824 22.0398C12.8443 22.1614 12.6722 22.2222 12.5 22.2222C12.3278 22.2222 12.1557 22.1614 12.0176 22.0398L11.9856 22.0116C10.9206 21.0741 9.92028 20.2164 8.95295 19.387L8.95264 19.3867C6.3564 17.1608 4.11436 15.2384 2.55591 13.3735C0.812158 11.2869 0 9.34022 0 7.2472C0 5.32441 0.647803 3.52591 1.82397 2.18303C3.05708 0.775298 4.76768 0 6.64062 0C9.2748 0 10.9425 1.58292 11.8777 2.91087C12.1204 3.25545 12.3267 3.60098 12.5 3.92611C12.6733 3.60098 12.8797 3.25545 13.1223 2.91087C14.0575 1.58292 15.7252 0 18.3594 0Z" fill="white"/>
</svg>
