<svg width="170" height="56" viewBox="0 0 170 56" fill="none" xmlns="http://www.w3.org/2000/svg">
<g clip-path="url(#clip0)">
<path d="M110.337 0.0448755C110.223 0.0592185 109.818 0.109419 109.448 0.152447C107.814 0.338905 105.809 0.90545 104.445 1.5724C102.32 2.60508 100.522 4.30472 99.5766 6.17647C98.8374 7.63945 98.4821 9.18131 98.4821 10.9742C98.475 14.3806 99.9319 16.9839 102.974 19.0134C105.298 20.5696 108.155 21.6166 112.966 22.6995C113.947 22.9146 115.205 23.223 115.781 23.3808C120.166 24.5784 122.312 26.0055 123.108 28.2359C123.314 28.8311 123.371 30.4016 123.207 31.1403C122.603 33.8726 119.839 35.8735 115.951 36.397C114.935 36.5332 112.789 36.5332 111.637 36.397C107.991 35.9667 105.12 34.6041 102.156 31.8861C101.545 31.3268 101.46 31.2694 101.197 31.2694C100.92 31.2694 100.863 31.3124 99.9746 32.1945L99.0435 33.1196L99.4202 33.5356C100.38 34.6185 102.121 36.0456 103.5 36.8918C106.03 38.4408 109.107 39.4377 112.234 39.7389C113.428 39.8464 116.406 39.7891 117.408 39.6313C123.229 38.7062 127.01 35.479 127.82 30.7315C128.225 28.3219 127.841 25.984 126.718 24.1051C125.077 21.3441 121.687 19.2787 116.413 17.8301C115.923 17.701 114.565 17.3711 113.4 17.1058C110.003 16.3384 108.418 15.8436 106.783 15.0332C104.886 14.0938 103.855 13.0611 103.322 11.5694C103.109 10.967 103.059 9.47534 103.23 8.70799C103.798 6.05455 106.364 4.10392 110.131 3.46566C111.083 3.30789 113.947 3.28637 114.956 3.4298C116.925 3.70949 118.488 4.1828 120.073 4.97884C121.651 5.7677 122.937 6.67847 124.394 8.04105C124.885 8.49285 124.984 8.55739 125.226 8.55739C125.482 8.55739 125.567 8.49285 126.427 7.66813C126.939 7.18047 127.358 6.74301 127.358 6.70716C127.358 6.59241 125.645 4.91429 124.984 4.37643C122.099 2.03137 118.382 0.532534 114.409 0.109419C113.478 0.0161897 110.962 -0.026839 110.337 0.0448755ZM50.2467 20.3544V40.1548L50.4173 40.3556L50.5878 40.5564H53.4804L53.5159 24.4924L53.5515 8.43548L67.2254 23.8756C76.6848 34.5611 81.0272 39.409 81.3186 39.6241C82.207 40.2911 82.9248 40.5134 84.3107 40.5708L85.2843 40.6138V1.07756L85.0782 0.848078L84.8721 0.61142L83.4436 0.589906L82.0151 0.56122L82.0009 16.5392L81.9796 32.51L68.3838 17.2779C60.9001 8.90162 54.6033 1.88794 54.383 1.70148C53.921 1.30705 53.1819 0.926964 52.5565 0.75485C52.3219 0.697478 51.7036 0.625763 51.1919 0.597078L50.2467 0.554049V20.3544ZM134.11 0.61142C134.11 0.632935 137.514 6.19798 141.679 12.975L149.248 25.2956V40.5923H151.387C152.872 40.5923 153.618 40.5636 153.824 40.5062C154.222 40.3843 154.606 39.9755 154.706 39.5668C154.77 39.3301 154.791 37.3006 154.791 32.2232V25.2095L162.396 12.9248C166.582 6.1693 170 0.625763 170 0.604249C170 0.539706 167.321 0.582735 167.051 0.654449C166.894 0.697478 166.667 0.80505 166.546 0.898279C166.404 1.01302 164.165 4.61309 159.901 11.5766C156.369 17.3568 153.462 22.0899 153.441 22.0899C153.419 22.0828 150.669 17.6221 147.329 12.179C140.662 1.30705 140.861 1.60825 139.859 1.09191C138.999 0.654449 138.843 0.625763 136.37 0.597078C135.126 0.575563 134.11 0.582735 134.11 0.61142ZM20.0347 0.941307C19.9494 1.11342 15.408 10.0921 9.94273 20.8923C4.47032 31.6925 0 40.5421 0 40.5564C0 40.6281 2.53721 40.5851 2.80728 40.5134C3.37584 40.3556 3.49666 40.1548 6.14758 34.8695L8.63504 29.9068L18.7626 29.914H28.8901L31.1288 34.3388C33.2254 38.4767 33.3959 38.7922 33.8152 39.244C34.3554 39.8178 34.7889 40.1118 35.4783 40.3628C35.99 40.5421 36.0397 40.5492 38.2571 40.5779C39.4938 40.5923 40.5101 40.5923 40.5101 40.5708C40.5101 40.5134 20.3119 0.762021 20.255 0.690306C20.2195 0.661621 20.1271 0.769192 20.0347 0.941307ZM23.0694 18.4683C25.4076 23.0796 27.3336 26.8948 27.3478 26.945C27.3692 27.0239 25.763 27.0382 18.7626 27.0382C11.4068 27.0382 10.1559 27.0239 10.1773 26.9378C10.227 26.7083 18.727 9.97734 18.7697 10.0275C18.791 10.0562 20.7312 13.8499 23.0694 18.4683ZM35.7128 51.7582C35.059 53.2858 34.4122 54.7918 34.2843 55.093L34.0498 55.6523H34.9381L35.2864 54.8276L35.6417 54.0029L37.2266 54.0172L38.8115 54.0388L39.1526 54.8276L39.4938 55.6165L39.9344 55.638C40.3395 55.6595 40.375 55.6452 40.3395 55.5304C40.3182 55.4587 39.6785 53.967 38.9252 52.21L37.5606 49.0187L37.2337 48.9972L36.9068 48.9757L35.7128 51.7582ZM37.8094 51.708C38.1221 52.4324 38.3779 53.0563 38.3779 53.085C38.3779 53.1136 37.8449 53.1423 37.1982 53.1423C36.1037 53.1423 36.0184 53.1352 36.0611 53.0132C36.1606 52.7407 37.2053 50.3598 37.2195 50.3741C37.2266 50.3813 37.4967 50.9837 37.8094 51.708ZM121.793 50.2522C121.495 50.955 120.855 52.4539 120.372 53.587L119.483 55.6523H120.379L120.72 54.8276L121.068 54.0029L122.66 54.0244L124.252 54.0388L124.593 54.8276L124.934 55.6165L125.361 55.638C125.603 55.6523 125.794 55.6308 125.794 55.6021C125.794 55.5734 125.162 54.0674 124.394 52.2674L122.987 48.9829H122.333L121.793 50.2522ZM123.286 51.7797L123.861 53.1423H122.653C121.715 53.1423 121.452 53.1208 121.48 53.0491C121.729 52.4252 122.625 50.4172 122.66 50.4172C122.682 50.4172 122.966 51.0339 123.286 51.7797ZM43.9214 52.3463V55.6523H44.7743V53.1352L45.7835 53.1567L46.7856 53.1782L47.3541 54.4117L47.9227 55.6523H48.3775C48.6192 55.6523 48.8253 55.638 48.8253 55.6308C48.8253 55.6165 48.5481 55.0069 48.2141 54.2826C47.6597 53.085 47.6171 52.9559 47.7308 52.8913C48.3491 52.5327 48.6974 51.8945 48.7045 51.0985C48.7116 50.2092 48.2994 49.5494 47.5531 49.2554C47.1978 49.1191 46.9846 49.0976 45.5418 49.0689L43.9214 49.0402V52.3463ZM47.3257 50.0945C47.7308 50.3383 47.8658 50.5821 47.8658 51.0841C47.8587 51.6363 47.6953 51.9447 47.2973 52.1383C47.0414 52.2602 46.8566 52.2817 45.8901 52.2817H44.7743V49.9008L45.9327 49.9295C46.9277 49.951 47.1196 49.9725 47.3257 50.0945ZM52.6631 52.3463V55.6523H53.5159V53.1567L54.7454 53.128C56.1313 53.0921 56.444 53.0132 56.8704 52.5901C57.4674 52.0021 57.6309 50.955 57.2542 50.1733C57.1476 49.9582 56.9415 49.6785 56.7994 49.5566C56.3232 49.1622 56.0531 49.112 54.2835 49.0689L52.6631 49.0402V52.3463ZM56.0673 50.0945C56.4795 50.3383 56.6075 50.5821 56.6075 51.0985C56.6075 51.5933 56.5009 51.8084 56.1171 52.0953C55.9394 52.2315 55.8044 52.2459 54.717 52.2674L53.5159 52.2889V49.9008L54.6744 49.9295C55.6693 49.951 55.8612 49.9725 56.0673 50.0945ZM93.4077 49.1622C91.9792 49.5494 91.2258 50.661 91.2258 52.3893C91.2258 53.4794 91.4817 54.2252 92.0787 54.8635C93.1234 55.9894 95.2413 56.0109 96.3358 54.8993C96.9114 54.3184 97.2241 53.4435 97.2241 52.3893C97.2241 51.0196 96.6556 49.8937 95.7388 49.4203C95.0778 49.0761 94.1113 48.9757 93.4077 49.1622ZM95.3052 50.1733C96.0302 50.5678 96.3642 51.2634 96.3713 52.375C96.3784 53.924 95.6961 54.7702 94.3813 54.8491C93.365 54.9065 92.7325 54.5694 92.3203 53.7591C92.0787 53.2714 92.0715 53.2499 92.0715 52.3965C92.0715 51.371 92.1995 50.9981 92.7112 50.4889C93.1376 50.0658 93.6138 49.908 94.3458 49.9367C94.8149 49.9582 94.9854 49.9941 95.3052 50.1733ZM101.204 52.3535V55.6523H101.986L102 53.0778L102.021 50.4961L103.194 51.9303C103.841 52.7192 104.416 53.4292 104.48 53.5152C104.587 53.6515 104.637 53.6013 105.866 52.1096C106.563 51.2634 107.16 50.5678 107.195 50.5606C107.224 50.5606 107.245 51.708 107.245 53.1065V55.6523H108.027V49.0402L107.657 49.0905C107.444 49.1191 107.231 49.1908 107.174 49.2554C107.117 49.3271 106.513 50.0514 105.831 50.869L104.601 52.3535L103.244 50.704L101.893 49.0546H101.204V52.3535ZM112.291 52.3463V55.6523H113.073V53.1567L114.338 53.1208C115.759 53.085 115.994 53.0276 116.449 52.626C117.23 51.9303 117.266 50.4172 116.52 49.6642C116.036 49.1693 115.766 49.112 113.911 49.0689L112.291 49.0402V52.3463ZM115.702 50.0945C116.392 50.5032 116.42 51.5933 115.752 52.0953C115.567 52.2315 115.439 52.2459 114.309 52.2674L113.073 52.2889V49.9008L114.267 49.9295C115.304 49.951 115.482 49.9725 115.702 50.0945ZM129.398 49.1048C129.369 49.1263 129.348 50.6108 129.348 52.4037V55.6523H130.201L130.215 53.0993L130.236 50.5391L132.333 53.0921L134.429 55.6523H135.176V49.0474L134.771 49.0689L134.358 49.0905L134.323 51.6435L134.287 54.2037L132.169 51.6291L130.051 49.0546H129.746C129.582 49.0546 129.419 49.0761 129.398 49.1048ZM138.488 49.1407C138.516 49.1909 139.127 50.0371 139.845 51.0124L141.146 52.7909V55.6523H141.927V52.7766L143.278 50.9335L144.628 49.0905L144.187 49.0689C143.953 49.0546 143.718 49.0618 143.669 49.0833C143.619 49.0976 143.128 49.7431 142.574 50.5176C142.013 51.2921 141.536 51.9088 141.508 51.8873C141.48 51.873 140.996 51.2275 140.442 50.453L139.433 49.0546H138.935C138.551 49.0546 138.452 49.0761 138.488 49.1407ZM27.3123 49.2697C26.7864 49.4419 26.3529 49.7574 25.9975 50.2379C25.6208 50.7471 25.4432 51.3208 25.3934 52.1742C25.3366 53.3431 25.6208 54.2611 26.2605 54.8993C27.1204 55.7742 28.6626 55.975 29.8424 55.3726C30.1409 55.2149 30.6526 54.7416 30.9014 54.3758L31.0719 54.1463L30.6881 53.9742L30.3115 53.8021L30.1693 53.9886C29.7429 54.5694 29.1459 54.8635 28.3997 54.8635C27.4829 54.8635 26.829 54.4906 26.4737 53.7591C25.9833 52.7407 26.1539 51.2132 26.829 50.5247C27.227 50.1303 27.6677 49.9654 28.357 49.9582C29.0606 49.9582 29.5084 50.116 29.9348 50.5391C30.0769 50.6753 30.2191 50.7829 30.2546 50.7686C30.4323 50.6897 30.9156 50.3741 30.9156 50.3383C30.9156 50.1877 30.0201 49.4777 29.6576 49.3343C29.0606 49.1048 27.9235 49.0689 27.3123 49.2697ZM61.0494 52.3893V55.6523H65.74V54.8635H61.9022V52.7837H65.4557V51.9949H61.9022V49.9152H65.74V49.1263H61.0494V52.3893ZM68.8671 49.5207V49.9152H71.2124V55.6523H72.0653V49.9152H74.4106V49.1263H68.8671V49.5207ZM84.1046 49.2769C83.2446 49.5781 82.6405 50.2235 82.3562 51.163C82.2283 51.5646 82.1999 51.8371 82.1999 52.461C82.207 53.6587 82.4842 54.3615 83.2162 55.0284C84.0335 55.7671 85.4549 55.9392 86.5423 55.4228C86.8834 55.2651 87.6012 54.6053 87.7647 54.3113C87.8429 54.1607 87.8215 54.1392 87.4946 53.9742L87.1464 53.7949L86.8976 54.0961C86.7626 54.2611 86.4783 54.4977 86.2722 54.6125C85.9169 54.8133 85.8316 54.8276 85.1777 54.8276C84.5168 54.8276 84.4386 54.8133 84.0761 54.6053C83.6142 54.3471 83.2802 53.8882 83.1096 53.3001C82.9532 52.7551 83.003 51.6578 83.202 51.1989C83.5644 50.3741 84.2254 49.9582 85.1777 49.9582C85.6823 49.951 85.8031 49.9797 86.2225 50.1877C86.4854 50.3168 86.7697 50.5104 86.8479 50.6108C86.9971 50.8044 86.9971 50.8044 87.2246 50.6825C87.6936 50.4172 87.722 50.3813 87.6012 50.1805C87.4306 49.9223 86.9616 49.5709 86.5067 49.3558C86.1656 49.198 85.9808 49.1693 85.3199 49.1478C84.666 49.1263 84.467 49.1478 84.1046 49.2769ZM0 52.3176V52.7837H19.1961L19.1748 52.3319L19.1534 51.8873L9.58027 51.8658L0 51.8515V52.3176ZM150.861 51.9734C150.832 51.9949 150.811 52.21 150.811 52.4395V52.8555H170V51.9232H160.455C155.203 51.9232 150.882 51.9447 150.861 51.9734Z" fill="#333333"/>
</g>
<defs>
<clipPath id="clip0">
<rect width="170" height="55.7222" fill="white"/>
</clipPath>
</defs>
</svg>
