<svg xmlns="http://www.w3.org/2000/svg" width="512" height="512" viewBox="0 0 49.652 49.652"><path d="M24.826 0C11.136 0 0 11.137 0 24.826c0 13.688 11.137 24.826 24.826 24.826 13.688 0 24.826-11.138 24.826-24.826C49.652 11.136 38.516 0 24.826 0zM35.9 19.144c.012.246.018.494.018.742 0 7.55-5.746 16.255-16.26 16.255-3.226 0-6.23-.942-8.758-2.564.447.053.902.08 1.363.08 2.678 0 5.14-.914 7.097-2.446-2.5-.046-4.61-1.698-5.338-3.97.348.067.707.104 1.074.104.52 0 1.027-.068 1.506-.2-2.614-.523-4.583-2.832-4.583-5.602v-.072c.77.427 1.65.685 2.587.714-1.532-1.023-2.54-2.773-2.54-4.755 0-1.05.28-2.03.772-2.875 2.816 3.458 7.028 5.732 11.776 5.972-.098-.42-.147-.854-.147-1.303 0-3.155 2.557-5.714 5.712-5.714 1.644 0 3.127.694 4.17 1.804 1.304-.256 2.524-.73 3.63-1.387-.43 1.335-1.332 2.454-2.515 3.162 1.157-.14 2.26-.445 3.282-.9-.763 1.144-1.732 2.15-2.85 2.954z" fill="#c2c2c2"/></svg>