<svg xmlns="http://www.w3.org/2000/svg" width="512" height="512" viewBox="0 0 97.75 97.75"><path d="M48.875 0C21.883 0 0 21.882 0 48.875S21.883 97.75 48.875 97.75 97.75 75.868 97.75 48.875 75.867 0 48.875 0zm24.792 54.16c2.278 2.226 4.688 4.32 6.733 6.775.906 1.086 1.76 2.21 2.41 3.472.928 1.8.09 3.776-1.522 3.883l-10.013-.002c-2.586.214-4.644-.83-6.38-2.597-1.384-1.408-2.67-2.913-4.003-4.37-.545-.598-1.12-1.16-1.803-1.604-1.366-.888-2.552-.616-3.334.81-.797 1.45-.98 3.06-1.055 4.674-.108 2.36-.82 2.978-3.19 3.09-5.06.236-9.864-.532-14.328-3.084-3.938-2.25-6.986-5.428-9.642-9.025-5.172-7.01-9.133-14.707-12.692-22.624-.8-1.783-.215-2.737 1.752-2.774 3.268-.063 6.536-.055 9.804-.003 1.33.02 2.21.78 2.72 2.036 1.767 4.345 3.932 8.48 6.645 12.313.722 1.02 1.46 2.038 2.51 2.76 1.16.795 2.045.532 2.592-.763.35-.823.5-1.703.577-2.585.26-3.02.29-6.04-.16-9.05-.28-1.883-1.34-3.1-3.216-3.455-.956-.18-.816-.535-.35-1.08.806-.945 1.562-1.53 3.073-1.53H52.11c1.783.35 2.183 1.15 2.425 2.945l.01 12.572c-.02.695.35 2.755 1.597 3.21 1 .33 1.66-.472 2.258-1.105 2.713-2.88 4.646-6.278 6.377-9.795.764-1.55 1.423-3.156 2.063-4.764.476-1.188 1.216-1.773 2.558-1.753l10.894.013c.32 0 .647.003.965.058 1.836.314 2.34 1.104 1.77 2.895-.893 2.814-2.63 5.158-4.328 7.508-1.82 2.517-3.762 4.945-5.564 7.472-1.656 2.31-1.525 3.473.53 5.48z" fill="#c2c2c2"/></svg>