<svg width="16" height="17" viewBox="0 0 16 17" fill="none" xmlns="http://www.w3.org/2000/svg">
<path fill-rule="evenodd" clip-rule="evenodd" d="M8 15C11.866 15 15 11.866 15 8C15 4.13401 11.866 1 8 1C4.13401 1 1 4.13401 1 8C1 9.46141 1.44674 10.8155 2.21101 11.9368C2.57678 12.4735 2.59799 13.1333 2.57664 13.5929C2.55453 14.069 2.46724 14.5874 2.39397 15.0226C2.39063 15.0424 2.38733 15.062 2.38406 15.0814C2.36537 15.1926 2.34791 15.2977 2.33205 15.3969C4.31962 14.511 5.91087 14.7391 7.048 14.9021C7.41267 14.9544 7.73064 15 8 15ZM1.5 17C3.78733 15.4751 5.37701 15.6942 6.75673 15.8843C7.18662 15.9436 7.59613 16 8 16C12.4183 16 16 12.4183 16 8C16 3.58172 12.4183 0 8 0C3.58172 0 0 3.58172 0 8C0 9.6686 0.510849 11.2179 1.38468 12.5C1.72114 12.9937 1.55853 13.9605 1.40385 14.8802C1.33915 15.265 1.27583 15.6415 1.25102 15.9716C1.22983 16.2534 1.2367 16.5015 1.2947 16.692C1.33536 16.8257 1.40114 16.931 1.5 17Z" fill="#BEA267"/>
<path fill-rule="evenodd" clip-rule="evenodd" d="M4.8567 5.31995C5.16865 4.8876 5.61566 4.6343 5.94156 4.52567L6.62534 6.13246C6.45124 6.19049 6.19825 6.33718 6.0352 6.56317C5.89052 6.76368 5.7931 7.0546 5.94156 7.5C6.15203 8.1314 6.46201 8.4024 7.36461 9.18467C8.27249 9.97151 9 10.5 9.5 10.5C9.6 10.5 10 10.3667 10 9.5L11.5996 9.50001C11.5996 10.6333 10.9996 11.5 10.0996 11.5C8.91748 11.5 7.67676 10.7785 6.70967 9.94035C5.73731 9.09762 4.91487 8.02672 4.62534 7.15812C4.3738 6.40352 4.52638 5.77777 4.8567 5.31995Z" fill="#BEA267"/>
</svg>
