<svg width="89" height="27" viewBox="0 0 89 27" fill="none" xmlns="http://www.w3.org/2000/svg">
<path fill-rule="evenodd" clip-rule="evenodd" d="M72.941 11.6585C72.5435 11.7894 72.2794 12.1814 72.0152 12.8357L71.8819 13.2282L72.0152 13.359C72.0152 13.4899 72.0152 13.6207 72.1475 13.4899L72.2799 13.6212L72.6764 13.4899L73.4699 12.4436V12.3128L73.6032 12.1814C73.8674 12.0506 73.9997 11.7889 73.8674 11.6585L73.4699 11.5277L72.941 11.6585ZM66.1936 9.82719C66.7229 9.17345 67.6487 8.38838 68.9721 7.73464L66.9871 10.3506H66.8547L66.4582 10.6118C66.3249 10.4809 66.1931 10.2197 66.1931 9.95804V9.82719H66.1936ZM63.4161 4.59533C63.6802 4.59533 63.8126 4.72618 63.8126 4.98787C63.8126 6.03463 63.5484 7.47295 62.8868 9.3043C62.3574 11.3973 62.2251 13.2287 62.3574 14.7983C62.3574 15.3212 62.4907 15.5829 62.8868 15.7138C63.5484 15.5829 64.3419 14.7983 65.0036 13.3595L65.4001 12.4441L65.7976 12.3133H65.9299C66.3264 12.1819 66.7234 12.4441 67.1199 12.967L67.9134 14.0138C68.3109 14.6675 68.5751 15.1909 68.5751 15.5834V15.7143L68.3109 15.9759L68.1786 16.1068C68.0462 16.1068 67.7811 15.9759 67.5169 15.5839C67.3846 14.9297 66.8552 14.4068 66.1936 13.7526L66.0612 13.6217L65.9289 13.7526L65.3996 14.5371L64.8712 15.3217C64.2096 16.2376 63.4161 16.7605 62.6221 16.6302L62.3569 16.4988L61.9604 16.2376C61.5629 15.3217 61.2988 14.2754 61.2988 13.3595C61.2988 12.7058 61.5629 11.3973 61.9604 9.69732C62.6221 7.60477 62.8863 6.03512 62.8863 4.85751C62.8867 4.72618 63.0191 4.59533 63.4161 4.59533ZM57.1989 9.69683C57.7273 9.04261 58.6541 8.38887 59.9764 7.73464L57.9924 10.2197L57.4631 10.4814L57.1989 9.95853V9.69683ZM44.2343 9.04261H44.102L44.2343 9.17394V9.04261ZM55.8756 3.41821L56.008 3.6799C53.4946 6.81921 52.1713 9.95852 52.0395 12.9665V13.0978C52.0395 14.1441 52.3036 14.7983 52.7011 15.06V15.1909H52.8335L54.9503 13.6212L55.6119 12.8361C56.6701 12.0516 57.4636 11.7894 58.1253 11.9207C58.7869 12.3133 59.1834 13.2287 59.5804 14.9292V15.1914C59.5804 15.7143 59.4481 16.1068 59.1829 16.2381C59.0506 16.2381 58.7864 16.1068 58.6546 15.7147C58.5213 14.5376 58.1253 13.6222 57.5954 12.8371H57.1989C56.6696 12.968 56.008 13.4909 55.214 14.4068C54.1558 15.4535 53.23 15.9764 52.5688 15.9764L51.9071 15.5839C51.5096 15.3222 51.2455 14.668 51.1136 13.7526H50.9813C51.1136 9.69781 52.4355 6.42814 54.818 4.20426C55.214 3.6799 55.6115 3.41821 55.8756 3.41821ZM42.6469 10.7431H43.5727C43.9697 11.6585 44.102 12.7053 43.705 13.8819C43.308 14.7978 42.9115 15.1904 42.5145 15.0595L41.4564 14.0128L40.927 13.4894L41.9857 13.3586L42.5145 13.0969L41.5887 11.9197L42.2503 11.5272L42.9115 11.3964L42.6469 10.7431ZM43.5727 7.60429L43.4403 7.73513L43.0434 8.65056H43.5722L43.9692 8.91225L43.8369 8.51971L43.9692 8.38887V7.47344L44.498 6.29632L43.5722 7.34308V7.60429H43.5727ZM30.0797 14.4058V14.5366C30.3444 14.9292 30.6086 15.06 31.0056 15.06H31.1379C32.0637 15.1909 32.5931 15.06 32.7254 14.5366V14.4058L32.5931 13.7516C32.3284 13.0978 31.9319 12.7053 31.2702 12.5745L31.1379 12.4436H31.0056C30.3439 12.8357 29.9474 13.4899 30.0797 14.4058ZM43.9697 4.85702C44.3667 4.98787 44.6313 5.11871 44.7632 5.24956L45.292 5.3804L45.4253 5.24956L45.5577 5.3804C45.69 5.24956 45.8218 5.11871 45.9542 5.24956L47.6735 5.11871L47.277 5.3804L47.4093 5.6421C46.6158 6.16548 45.9542 6.29583 45.4253 6.16547L44.896 6.03463L44.6313 7.34259V7.47344L44.4985 8.65056C44.6313 9.0431 44.4985 9.3043 44.3662 9.3043V9.43514L44.2338 10.2202C45.1597 10.7436 45.5567 11.7894 45.1597 13.2287C44.7632 14.2754 44.3662 15.06 43.8373 15.5834L44.102 15.4526C46.086 12.8361 46.086 11.0048 44.3667 10.0894L44.6313 9.56599C44.6313 9.3043 44.7637 9.17394 45.0278 9.17394C45.9537 9.3043 46.6153 9.69683 47.1447 10.6123L47.4088 11.659V13.3595C47.2765 14.2754 47.0123 14.7983 46.8795 14.9292C45.9537 15.5834 45.4253 15.8451 45.1602 15.8451C44.896 15.4526 44.6313 15.3217 44.3667 15.4526H44.102L43.1762 16.6297L40.5305 16.8909C40.3982 16.2371 40.1335 15.8446 39.8694 15.9755L39.34 15.8446C39.6047 16.2371 39.6047 16.4983 39.4729 16.6292C38.0177 15.7133 37.356 14.6665 37.2237 13.7511L36.959 11.1352L37.356 9.8267L38.1495 9.30332C38.6789 8.38789 39.34 7.99536 40.2664 7.99536C40.531 8.1262 40.9275 8.38789 41.3245 8.91079H41.8538L41.9862 8.77994L42.515 7.47149L42.6478 7.07895C42.7802 7.07895 42.7802 7.07895 42.7802 6.94811L42.9125 7.07895L43.1772 6.81726V6.68642C43.5742 6.42521 43.706 6.03268 43.8388 5.64014L43.706 5.37845L43.4418 5.5093L43.0448 4.98592V4.72423L43.9697 4.85702ZM29.0216 14.0133H29.2862V13.7516L29.6832 12.4436C29.9479 11.9207 30.3444 11.659 30.8737 11.5282C31.6672 11.5282 32.3289 12.0511 32.9901 12.9665L33.2547 13.359C33.5194 13.7516 33.6517 14.1436 33.6517 14.5362C33.6517 14.9287 33.3871 15.3207 32.9901 15.7133L32.7259 15.8446C31.2707 16.3675 29.6832 15.8446 28.2281 14.275V13.7511L28.4927 13.6202L29.0216 14.0133ZM24.3914 12.8357C24.5238 12.1814 25.1854 11.6585 26.2431 11.1356C26.9048 11.0043 27.3018 11.1356 27.4336 11.5282V11.659L27.1694 11.7899L26.5078 12.0516L26.3754 12.1824C25.5814 12.7058 25.1849 13.2292 25.1849 13.7521L25.3173 14.5366L26.7724 16.1063L26.2431 16.2376V16.3685L26.3759 16.4993H26.1113L25.5819 16.2381L25.1854 15.9764C24.6561 15.3222 24.3914 14.668 24.3914 13.7526V12.8357ZM22.9363 7.47295C22.4069 8.38838 22.1423 9.56599 22.1423 11.0043C22.1423 12.1814 22.4069 13.7511 23.0681 15.8446L23.3328 17.1526V17.4143C23.3328 17.8068 23.2004 18.1988 22.9363 18.5914C22.1423 19.5068 21.0841 19.8993 19.7613 19.8993L19.4966 19.3765L20.423 18.9839L20.9518 18.7222L21.3488 18.5914C22.0104 18.3297 22.2746 18.068 22.2746 17.6755V17.5446L21.8776 15.3207C21.4811 13.6207 21.2165 12.3123 21.2165 11.3968C21.2165 10.2197 21.4811 9.04212 21.8776 7.865C22.4069 6.81873 23.2009 6.16499 24.1268 5.90281L24.2591 6.1645V6.29535L23.3333 7.07993L22.9363 7.47295ZM14.47 13.2282L14.3372 12.7053L14.47 12.4436C15.6605 11.2665 16.9833 11.0048 18.1738 11.5282C18.9673 11.9207 19.4966 12.3128 19.7613 12.9665V13.6207C19.7613 14.0133 19.629 14.5362 19.2325 15.1904C18.8355 15.7133 18.1738 15.975 17.248 16.1058C16.4545 15.7133 15.7928 14.9287 15.2635 13.7516V13.6207L14.47 13.2282ZM16.1893 12.4436V12.5745C15.7923 13.6212 16.1893 14.4058 17.3798 14.9287L17.9091 15.1904V15.0595L18.1738 14.7978H18.3061C18.7031 14.4053 18.8355 13.8819 18.8355 12.9665C18.5708 12.4436 18.1738 12.1819 17.645 12.0511C17.248 11.9202 16.7186 12.0511 16.1893 12.4436ZM9.44284 11.5282L9.57517 15.4526C10.501 15.4526 11.1627 15.1909 11.5597 14.7983L11.8243 14.1441V13.6212L11.692 13.2287C11.4273 12.4441 10.7662 11.9207 9.84033 11.7899L9.44284 11.5282ZM5.2097 5.24956H4.94503C4.54803 5.24956 4.28337 5.11871 4.15153 4.98787V4.72618L4.28386 4.59533C7.06185 3.6799 9.708 3.6799 11.9567 4.59533C12.6183 4.98787 12.883 5.51076 12.883 6.16499C12.6183 7.34211 11.692 8.38838 10.2373 9.43465L9.97266 9.5655L9.84033 10.3506L9.97266 10.6118V10.7431H10.1055C11.8248 11.6585 12.7507 12.7053 13.1476 13.8819V14.1436C13.1476 14.5362 13.0153 14.7978 12.7507 15.1904C11.1632 16.3675 8.38517 16.76 4.28436 16.2371H3.75552C2.56503 15.8446 1.6387 15.4526 1.24171 15.06L1.10938 14.4058L1.24171 13.6212C1.6387 13.0978 2.30036 12.7058 3.22619 12.5745C4.41718 12.5745 5.21068 12.8361 5.60768 13.2282C5.21068 13.359 4.81418 13.4899 4.15252 13.4899C3.49086 13.359 2.82969 13.4899 2.43269 13.7516L2.0357 14.4058V14.5366L2.30036 14.7983V14.9292C3.75552 15.7138 5.74001 15.9759 8.25333 15.7138H8.38567V15.5829C8.65033 14.9287 8.78266 13.7516 8.78266 12.0511L8.65033 11.2665L7.98867 11.0048C7.59167 10.874 7.45984 10.6123 7.45984 10.4819V10.3511L7.98867 9.95853L8.65033 9.56599V7.86549L8.518 7.0809L8.65033 6.81921L9.04733 6.42717H9.31199L9.84132 6.55801L9.97365 6.95006L9.83984 8.12669C9.83984 8.38838 9.83984 8.51923 9.97217 8.51923H10.105L11.1632 7.6038L11.4278 7.21126V7.08042C11.8248 6.55752 11.9567 6.16499 11.6925 5.9033V5.77245C10.6343 4.85702 8.518 4.72569 5.34302 5.24956H5.2097ZM84.45 11.3973H84.9783L85.2435 11.659L84.9783 12.7058L84.846 14.0138L84.9783 14.7983L85.5077 15.3212L86.037 15.4526L87.227 15.7138V16.1063H85.3753L85.1102 15.9755L84.7137 15.7138C84.052 15.3212 83.7878 14.667 83.7878 14.0138C83.7883 12.5745 84.0525 11.7894 84.45 11.3973ZM84.9783 9.17345L85.1106 8.91176C85.64 8.12669 86.5658 7.47295 87.8891 6.81873L85.9042 9.43465L85.64 9.5655L85.2435 9.69634L84.9783 9.17345ZM79.2905 14.4058L79.9522 14.5366L80.3487 14.4058L81.4078 14.275L81.9362 14.4058C82.0685 14.5366 82.2013 15.06 82.2013 15.7138L81.9362 17.0217V17.5451L81.8038 18.4605C81.9362 20.6844 81.2745 21.8615 80.0845 22.2541L79.9522 22.3849H79.2905L79.1582 22.2541C78.2323 22.1232 77.3055 21.7312 76.3797 20.9461C75.4539 20.2919 74.9245 19.769 74.9245 19.1148V18.9839L75.0569 18.7222L74.9245 18.3297C75.0569 18.1988 75.1897 18.068 75.4539 18.068C75.8504 18.068 75.9832 18.1993 76.1155 18.3297H76.2479L76.1155 18.5914L75.9832 18.8526C75.9832 19.2451 76.3797 19.7685 77.3055 20.4222C78.2323 21.0765 78.893 21.3382 79.2905 21.3382C79.687 21.3382 80.084 21.2068 80.2163 21.0765C80.6138 20.6839 80.878 19.7685 81.0098 18.1988L80.8775 17.2829L81.0098 17.1521L81.1422 16.7596V15.5824C81.1422 15.3207 81.0098 15.1899 80.7457 15.1899C80.6133 15.1899 80.4805 15.3207 80.3482 15.4516H80.084L79.4223 15.5824H79.1582L78.4965 15.3207C78.3642 15.1899 78.2323 14.7978 78.2323 14.4053C78.2323 13.4894 78.6288 12.7048 79.2905 12.0506C79.9522 11.3968 80.4805 11.1352 80.878 11.1352C81.4073 11.1352 81.6715 11.658 81.6715 12.8352C81.6715 13.3586 81.5392 13.6202 81.274 13.6202L80.8775 13.4889L81.0098 12.9655L80.6133 12.5735H80.48C80.3477 12.5735 80.0835 12.8352 79.6865 13.2272C79.4223 13.6198 79.29 13.881 79.1582 14.0123L79.2905 14.4058ZM74.6604 11.6585L74.7927 11.9202V12.0511C74.6604 12.4436 74.131 13.0978 72.941 13.7516L72.4117 14.1441C72.4117 14.2754 72.544 14.4058 72.6759 14.5366C73.3375 15.3212 74.5285 15.4526 76.116 14.9292C77.0418 14.6675 77.5712 14.5366 77.9677 14.6675V14.7988C76.6444 15.7143 75.1902 16.1068 73.6027 15.9759H73.4694C73.0729 15.8451 72.5435 15.5834 71.8819 15.1914L71.2212 14.668H71.0879C70.4272 14.9297 70.0297 15.061 69.6337 14.9297V14.7988L69.5004 14.6675C69.3681 14.5366 69.2362 14.4063 69.2362 14.2754L69.3686 14.1441L70.0302 14.0133C70.4277 14.1441 70.8237 14.0133 70.956 13.6207V12.5745C71.2212 12.0511 71.8819 11.5282 72.941 11.1356C73.8669 11.0043 74.3962 11.1356 74.6604 11.5282V11.6585ZM29.0468 23.5552V20.3993H31.2001V20.7723H29.4694V21.7493H30.9671V22.1213H29.4694V23.5552H29.0468ZM33.6295 23.5552L34.8555 20.3993H35.3103L36.6164 23.5552H36.1349L35.7626 22.5988H34.4279L34.0783 23.5552H33.6295ZM34.5499 22.2594H35.6323L35.299 21.3855C35.1977 21.1204 35.1222 20.9022 35.0728 20.7308C35.0315 20.936 34.9738 21.1376 34.9005 21.3338L34.5499 22.2594ZM39.4175 23.5552V20.3993H40.0535L40.808 22.6334C40.8781 22.8414 40.9295 22.9972 40.9606 23.1007C40.9971 22.9864 41.0534 22.8175 41.1305 22.5944L41.8943 20.3993H42.4627V23.5552H42.0558V20.9139L41.1285 23.5552H40.7473L39.8244 20.869V23.5552H39.4175ZM45.6944 23.5552V20.3993H46.1156V23.5552H45.6944ZM49.3207 23.5552V20.3993H49.7429V23.1822H51.3151V23.5552H49.3207ZM54.8639 23.5552V22.2189L53.6344 20.3993H54.1474L54.777 21.3504C54.8925 21.5286 55.0006 21.7063 55.1009 21.885C55.1962 21.7195 55.3122 21.5339 55.449 21.3269L56.0672 20.3993H56.559L55.2851 22.2189V23.5552H54.8639Z" fill="#777777"/>
</svg>
