<svg width="231" height="84" viewBox="0 0 231 84" fill="none" xmlns="http://www.w3.org/2000/svg">
<path d="M37.7683 49.9347V21.9958L26.8281 49.9347H37.7683ZM39.4407 19.8103H39.162V64.1544H50.7782C52.287 64.1544 53.7938 64.0437 55.2867 63.8231L56.6804 63.5834C67.1816 61.4684 73.4043 53.3892 73.4043 42.0106C73.4043 28.6157 64.7985 19.8033 50.7155 19.8033L39.4407 19.8103ZM114.65 0H0V84H231V0H114.65ZM69.4463 64.8594L68.9377 63.5622C79.3344 61.3627 85.5083 53.3398 85.5083 42.0176C85.5083 28.6227 76.8955 19.8103 62.8125 19.8103H59.7673C69.1746 22.8911 74.8677 31.0479 74.8677 42.0176C74.8677 56.1175 65.5998 65.5221 50.9106 65.5221H37.7683V51.2812H26.3054L20.6959 65.5644H19.2326L37.7265 18.4708H62.9519C77.5853 18.4708 86.9926 27.9319 86.9926 42.0388C86.9926 53.9532 80.3727 62.5118 69.4603 64.8665L69.4463 64.8594ZM230.101 83.0835H115.535V0.916492H230.094L230.101 83.0835Z" fill="#969696"/>
<path d="M91.2852 18.4708H92.6788V65.5644H91.2852V18.4708ZM141.178 18.6118H142.377L144.941 24.6325H143.548L143.011 23.293H140.502L139.966 24.6325H138.67L141.178 18.6118ZM142.572 22.1368L141.792 20.1981L141.004 22.1368H142.572ZM145.499 24.0191L146.042 23.1731C146.443 23.4914 146.928 23.6827 147.436 23.723C147.812 23.723 147.979 23.582 147.979 23.3705C147.979 23.159 147.54 22.9969 147.039 22.8418C146.412 22.6514 145.687 22.3483 145.687 21.4318C145.692 21.223 145.741 21.0177 145.829 20.8289C145.917 20.6401 146.043 20.472 146.199 20.3353C146.355 20.1986 146.538 20.0964 146.735 20.0351C146.933 19.9739 147.14 19.9549 147.345 19.9795C147.946 19.9891 148.531 20.1726 149.032 20.5083L148.544 21.4107C148.177 21.166 147.755 21.0182 147.317 20.9806C147.004 20.9806 146.844 21.1216 146.844 21.312C146.844 21.5023 147.276 21.6927 147.763 21.8618C148.391 22.0733 149.157 22.3835 149.157 23.2366C149.157 24.2518 148.405 24.7171 147.415 24.7171C146.718 24.7121 146.042 24.4742 145.492 24.0403L145.499 24.0191ZM149.819 24.0191L150.377 23.1731C150.776 23.4932 151.262 23.6848 151.77 23.723C152.147 23.723 152.314 23.582 152.314 23.3705C152.314 23.159 151.875 22.9969 151.373 22.8418C150.746 22.6514 150.028 22.3483 150.028 21.4318C150.033 21.2234 150.08 21.0181 150.167 20.8294C150.255 20.6406 150.38 20.4724 150.536 20.3356C150.691 20.1988 150.874 20.0965 151.071 20.0352C151.268 19.9738 151.475 19.9549 151.68 19.9795C152.28 19.9891 152.865 20.1726 153.366 20.5083L152.878 21.4107C152.511 21.166 152.09 21.0182 151.652 20.9806C151.345 20.9806 151.178 21.1216 151.178 21.312C151.178 21.5023 151.61 21.6927 152.098 21.8618C152.725 22.0733 153.491 22.3835 153.491 23.2366C153.491 24.2518 152.739 24.7171 151.763 24.7171C151.061 24.7152 150.38 24.4771 149.826 24.0403L149.819 24.0191ZM154.349 22.3483C154.329 21.8532 154.457 21.3635 154.715 20.9423C154.973 20.5211 155.349 20.1877 155.796 19.985C156.243 19.7824 156.74 19.7198 157.222 19.8052C157.705 19.8907 158.151 20.1203 158.503 20.4645C158.856 20.8088 159.098 21.2518 159.199 21.7367C159.301 22.2215 159.256 22.7259 159.071 23.1849C158.887 23.6439 158.571 24.0364 158.164 24.312C157.757 24.5876 157.277 24.7336 156.787 24.7312C156.472 24.7396 156.158 24.6844 155.864 24.5687C155.569 24.453 155.301 24.2791 155.074 24.0573C154.847 23.8354 154.666 23.5701 154.541 23.2766C154.417 22.9832 154.351 22.6676 154.349 22.3483ZM157.972 22.3483C157.979 22.185 157.952 22.0219 157.895 21.8691C157.838 21.7162 157.751 21.5767 157.639 21.4588C157.527 21.3409 157.392 21.2471 157.244 21.1831C157.095 21.1191 156.935 21.0862 156.773 21.0864C156.613 21.085 156.454 21.1173 156.306 21.1812C156.158 21.2452 156.025 21.3394 155.915 21.4579C155.805 21.5765 155.72 21.7168 155.667 21.8701C155.613 22.0233 155.591 22.1861 155.603 22.3483C155.596 22.5093 155.622 22.67 155.677 22.821C155.733 22.972 155.817 23.1103 155.926 23.2278C156.035 23.3453 156.166 23.4396 156.312 23.5053C156.457 23.5709 156.614 23.6066 156.773 23.6102C156.937 23.6156 157.099 23.5862 157.25 23.5241C157.401 23.4619 157.537 23.3682 157.65 23.2493C157.764 23.1303 157.851 22.9886 157.906 22.8334C157.961 22.6781 157.984 22.5129 157.972 22.3483ZM160.132 22.3483C160.127 22.0328 160.186 21.7197 160.303 21.4275C160.421 21.1353 160.595 20.87 160.816 20.6476C161.038 20.4252 161.301 20.2501 161.59 20.1329C161.88 20.0157 162.19 19.9587 162.501 19.9654C162.842 19.951 163.181 20.0159 163.493 20.1553C163.805 20.2947 164.081 20.5047 164.299 20.7691L163.547 21.5446C163.413 21.3984 163.25 21.2826 163.068 21.2049C162.887 21.1271 162.691 21.0891 162.494 21.0934C162.187 21.132 161.904 21.2846 161.701 21.5217C161.498 21.7589 161.388 22.0638 161.395 22.3776C161.401 22.6914 161.521 22.9917 161.734 23.2207C161.946 23.4496 162.234 23.5909 162.543 23.6173C162.74 23.6152 162.935 23.5707 163.114 23.4868C163.293 23.403 163.452 23.2816 163.582 23.1308L164.334 23.9063C164.111 24.1802 163.828 24.3984 163.508 24.5439C163.187 24.6894 162.838 24.7583 162.488 24.7453C162.177 24.751 161.868 24.6933 161.58 24.5756C161.291 24.4579 161.029 24.2825 160.809 24.0601C160.59 23.8377 160.416 23.5727 160.3 23.281C160.184 22.9893 160.127 22.6769 160.132 22.3624V22.3483ZM165.358 18.4003H166.71V19.5495H165.358V18.4003ZM165.358 20.0571H166.641V24.6395H165.358V20.0571ZM167.783 23.2648C167.783 22.2778 168.536 21.8054 169.609 21.8054C169.984 21.802 170.357 21.8665 170.71 21.9958V21.9253C170.71 21.3895 170.383 21.0793 169.735 21.0793C169.307 21.0822 168.884 21.1659 168.487 21.3261L168.167 20.3391C168.716 20.0811 169.317 19.9556 169.923 19.9725C170.198 19.9511 170.474 19.9849 170.736 20.072C170.998 20.1592 171.24 20.2978 171.449 20.4801C171.797 20.8842 171.972 21.4116 171.937 21.9464V24.5972H170.724V24.1037C170.55 24.3003 170.334 24.4544 170.093 24.5545C169.851 24.6546 169.591 24.6981 169.33 24.6818C169.134 24.7038 168.936 24.6834 168.748 24.622C168.561 24.5606 168.388 24.4596 168.242 24.3256C168.095 24.1917 167.979 24.0278 167.9 23.845C167.821 23.6621 167.781 23.4643 167.783 23.2648ZM170.731 22.9828V22.7572C170.473 22.6391 170.192 22.579 169.909 22.5809C169.351 22.5809 169.024 22.8065 169.024 23.2366C169.024 23.6666 169.303 23.7865 169.721 23.7865C170.327 23.8147 170.724 23.4833 170.724 23.011L170.731 22.9828ZM173.379 23.3353V21.1498H172.815V20.05H173.358V18.8797H174.64V20.05H175.706V21.1498H174.64V23.1097C174.64 23.4058 174.766 23.5538 175.058 23.5538C175.279 23.5514 175.497 23.4959 175.692 23.3917V24.4351C175.384 24.6165 175.032 24.7068 174.675 24.6959C173.909 24.6748 173.386 24.3857 173.386 23.3282L173.379 23.3353ZM176.863 18.4003H178.215V19.5495H176.863V18.4003ZM176.898 20.0571H178.18V24.6395H176.898V20.0571ZM179.337 22.3483C179.317 21.8532 179.445 21.3635 179.703 20.9423C179.961 20.5211 180.338 20.1877 180.785 19.985C181.232 19.7824 181.728 19.7198 182.211 19.8052C182.693 19.8907 183.139 20.1203 183.492 20.4645C183.844 20.8088 184.086 21.2518 184.188 21.7367C184.289 22.2215 184.244 22.7259 184.06 23.1849C183.875 23.6439 183.559 24.0364 183.152 24.312C182.745 24.5876 182.266 24.7336 181.776 24.7312C181.46 24.7396 181.146 24.6844 180.852 24.5687C180.558 24.453 180.289 24.2791 180.062 24.0573C179.835 23.8354 179.654 23.5701 179.53 23.2766C179.405 22.9832 179.34 22.6676 179.337 22.3483ZM182.96 22.3483C182.967 22.1855 182.941 22.0231 182.884 21.8707C182.827 21.7183 182.741 21.5791 182.63 21.4613C182.518 21.3435 182.385 21.2496 182.237 21.1852C182.089 21.1208 181.93 21.0872 181.769 21.0864C181.608 21.085 181.449 21.1173 181.301 21.1812C181.153 21.2452 181.02 21.3394 180.91 21.4579C180.8 21.5765 180.716 21.7168 180.662 21.8701C180.608 22.0233 180.587 22.1861 180.598 22.3483C180.592 22.511 180.618 22.6735 180.674 22.8259C180.731 22.9782 180.818 23.1175 180.929 23.2353C181.04 23.3531 181.174 23.447 181.322 23.5114C181.47 23.5758 181.629 23.6094 181.79 23.6102C181.95 23.6116 182.11 23.5793 182.257 23.5154C182.405 23.4514 182.538 23.3572 182.648 23.2386C182.758 23.1201 182.843 22.9798 182.897 22.8265C182.95 22.6733 182.972 22.5105 182.96 22.3483ZM185.351 20.05H186.633V20.6986C186.779 20.4801 186.977 20.3015 187.208 20.1786C187.438 20.0556 187.696 19.9921 187.957 19.9936C188.174 19.9834 188.391 20.0216 188.591 20.1054C188.792 20.1892 188.973 20.3167 189.12 20.4787C189.266 20.6408 189.376 20.8335 189.442 21.0433C189.507 21.253 189.526 21.4747 189.497 21.6927V24.6536H188.215V22.0663C188.215 21.453 187.922 21.1357 187.434 21.1357C186.946 21.1357 186.633 21.453 186.633 22.0663V24.6184H185.358L185.351 20.05Z" fill="#969696"/>
<path d="M138.795 32.5918C138.775 32.0967 138.903 31.607 139.161 31.1858C139.419 30.7646 139.796 30.4312 140.243 30.2286C140.69 30.026 141.186 29.9633 141.669 30.0488C142.151 30.1342 142.597 30.3639 142.95 30.7081C143.302 31.0523 143.544 31.4954 143.646 31.9802C143.747 32.465 143.702 32.9694 143.518 33.4284C143.333 33.8874 143.017 34.28 142.61 34.5556C142.203 34.8312 141.724 34.9771 141.234 34.9747C140.918 34.9832 140.604 34.9279 140.31 34.8122C140.016 34.6965 139.747 34.5227 139.52 34.3008C139.293 34.079 139.112 33.8136 138.988 33.5202C138.863 33.2268 138.798 32.9112 138.795 32.5918ZM142.418 32.5918C142.425 32.4291 142.399 32.2667 142.342 32.1143C142.285 31.9619 142.199 31.8226 142.088 31.7049C141.976 31.5871 141.843 31.4932 141.695 31.4288C141.547 31.3643 141.388 31.3307 141.227 31.3299C141.066 31.3285 140.907 31.3608 140.759 31.4248C140.611 31.4887 140.478 31.5829 140.368 31.7015C140.258 31.82 140.174 31.9604 140.12 32.1136C140.066 32.2668 140.045 32.4297 140.056 32.5918C140.052 32.7534 140.079 32.9143 140.137 33.0651C140.194 33.2158 140.281 33.3534 140.392 33.4696C140.503 33.5859 140.636 33.6785 140.783 33.7421C140.93 33.8056 141.088 33.8388 141.248 33.8397C141.407 33.8409 141.565 33.809 141.712 33.7459C141.859 33.6828 141.991 33.5899 142.101 33.4729C142.211 33.3559 142.295 33.2173 142.35 33.0657C142.405 32.9142 142.428 32.7529 142.418 32.5918Z" fill="#969696"/>
<path d="M145.009 31.4075H144.473V30.3147H145.009V30.0327C144.994 29.832 145.018 29.6303 145.08 29.4391C145.142 29.2479 145.241 29.0711 145.372 28.9188C145.512 28.7922 145.677 28.6957 145.855 28.6351C146.033 28.5745 146.222 28.5511 146.41 28.5663C146.719 28.5581 147.027 28.601 147.323 28.6932V29.7648C147.135 29.6966 146.937 29.6608 146.737 29.6591C146.445 29.6591 146.27 29.8001 146.27 30.1526V30.3147H147.316V31.3722H146.298V34.8408H145.016L145.009 31.4075ZM151.072 28.9047H152.375V34.8972H151.072V28.9047ZM153.88 30.3147H155.169V30.9633C155.316 30.7457 155.514 30.5678 155.745 30.4449C155.975 30.3221 156.232 30.258 156.493 30.2583C156.71 30.2492 156.925 30.2881 157.125 30.3724C157.326 30.4567 157.505 30.5843 157.651 30.7463C157.797 30.9082 157.906 31.1005 157.971 31.3098C158.036 31.519 158.055 31.74 158.026 31.9574V34.9183H156.744V32.3099C156.744 31.6965 156.465 31.3793 155.977 31.3793C155.49 31.3793 155.176 31.6965 155.176 32.3099V34.869H153.887L153.88 30.3147ZM159.524 33.5788V31.4075H158.988V30.3147H159.524V29.1162H160.813V30.3147H161.873V31.4286H160.813V33.3814C160.813 33.6846 160.939 33.8256 161.231 33.8256C161.453 33.8279 161.672 33.772 161.866 33.6634V34.6857C161.558 34.8695 161.205 34.9624 160.848 34.9536C160.068 34.9536 159.524 34.6363 159.524 33.5788ZM162.646 32.5919C162.632 32.2852 162.679 31.9789 162.785 31.6912C162.891 31.4036 163.053 31.1405 163.262 30.918C163.471 30.6954 163.723 30.5178 164.001 30.396C164.28 30.2742 164.579 30.2105 164.883 30.209C166.395 30.209 167.092 31.4075 167.092 32.6976V33.036H163.942C163.983 33.2981 164.12 33.5352 164.325 33.7009C164.53 33.8665 164.788 33.9487 165.05 33.9313C165.254 33.9345 165.457 33.8948 165.645 33.8147C165.834 33.7346 166.003 33.6159 166.144 33.466L166.883 34.1217C166.568 34.4983 166.148 34.7686 165.677 34.8966C165.207 35.0245 164.709 35.0038 164.25 34.8374C163.791 34.671 163.394 34.3667 163.111 33.9654C162.828 33.564 162.673 33.0848 162.667 32.5919H162.646ZM165.838 32.2253C165.836 31.969 165.735 31.7237 165.556 31.5418C165.378 31.36 165.136 31.256 164.883 31.2524C164.629 31.2593 164.387 31.3636 164.205 31.5442C164.024 31.7248 163.918 31.9682 163.907 32.2253H165.838ZM168.207 30.3218H169.489V31.2383C169.579 30.9273 169.773 30.6573 170.037 30.4736C170.301 30.29 170.619 30.204 170.938 30.2301V31.5908H170.869C170.019 31.5908 169.475 32.1125 169.475 33.2122V34.9042H168.193L168.207 30.3218ZM171.921 28.6439H173.273V29.8001H171.921V28.6439ZM171.921 30.3006H173.203V34.8831H171.921V30.3006Z" fill="#969696"/>
<path d="M174.389 32.5918C174.369 32.0967 174.497 31.607 174.755 31.1858C175.013 30.7646 175.39 30.4312 175.836 30.2286C176.283 30.026 176.78 29.9633 177.263 30.0488C177.745 30.1342 178.191 30.3639 178.543 30.7081C178.896 31.0523 179.138 31.4954 179.239 31.9802C179.341 32.465 179.296 32.9694 179.112 33.4284C178.927 33.8874 178.611 34.28 178.204 34.5556C177.797 34.8312 177.317 34.9771 176.828 34.9747C176.512 34.9832 176.198 34.9279 175.904 34.8122C175.61 34.6965 175.341 34.5227 175.114 34.3008C174.887 34.079 174.706 33.8136 174.581 33.5202C174.457 33.2268 174.391 32.9112 174.389 32.5918ZM178.012 32.5918C178.019 32.4291 177.993 32.2667 177.936 32.1143C177.879 31.9619 177.793 31.8226 177.681 31.7049C177.57 31.5871 177.437 31.4932 177.289 31.4288C177.141 31.3643 176.982 31.3307 176.821 31.3299C176.66 31.3285 176.501 31.3608 176.353 31.4248C176.205 31.4887 176.072 31.5829 175.962 31.7015C175.852 31.82 175.768 31.9604 175.714 32.1136C175.66 32.2668 175.638 32.4297 175.65 32.5918C175.645 32.7534 175.673 32.9143 175.73 33.0651C175.788 33.2158 175.875 33.3534 175.986 33.4696C176.097 33.5859 176.23 33.6785 176.377 33.7421C176.524 33.8056 176.682 33.8388 176.842 33.8397C177.001 33.8409 177.159 33.809 177.306 33.7459C177.452 33.6828 177.585 33.5899 177.695 33.4729C177.804 33.3559 177.889 33.2173 177.944 33.0657C177.998 32.9142 178.022 32.7529 178.012 32.5918Z" fill="#969696"/>
<path d="M180.38 30.3147H181.662V31.2312C181.752 30.9215 181.945 30.6524 182.207 30.469C182.47 30.2855 182.787 30.1987 183.105 30.2231V31.5837H183.035C182.178 31.5837 181.642 32.1054 181.642 33.2052V34.8972H180.359L180.38 30.3147ZM139.156 39.1413H141.455C141.86 39.1131 142.267 39.1695 142.649 39.307C143.032 39.4444 143.382 39.66 143.679 39.9404C143.976 40.2207 144.213 40.5598 144.374 40.9365C144.536 41.3133 144.62 41.7197 144.62 42.1304C144.62 42.5412 144.536 42.9476 144.374 43.3244C144.213 43.7011 143.976 44.0402 143.679 44.3205C143.382 44.6008 143.032 44.8164 142.649 44.9539C142.267 45.0914 141.86 45.1478 141.455 45.1196H139.156V39.1413ZM141.455 43.9352C141.908 43.9065 142.333 43.7043 142.644 43.3696C142.955 43.035 143.128 42.5931 143.128 42.134C143.128 41.6748 142.955 41.2329 142.644 40.8983C142.333 40.5636 141.908 40.3614 141.455 40.3327H140.452V43.9282L141.455 43.9352ZM145.566 42.8354C145.552 42.5288 145.6 42.2225 145.706 41.9348C145.812 41.6471 145.974 41.3841 146.183 41.1615C146.392 40.939 146.643 40.7614 146.921 40.6396C147.2 40.5177 147.5 40.4541 147.803 40.4526C149.315 40.4526 150.012 41.651 150.012 42.9412V43.2796H146.863C146.904 43.5423 147.04 43.7801 147.245 43.9469C147.449 44.1137 147.708 44.1975 147.971 44.182C148.176 44.1839 148.38 44.143 148.57 44.0618C148.759 43.9805 148.93 43.8606 149.072 43.7096L149.803 44.3653C149.489 44.7419 149.068 45.0122 148.598 45.1401C148.127 45.2681 147.629 45.2474 147.17 45.081C146.712 44.9146 146.314 44.6103 146.031 44.2089C145.748 43.8076 145.594 43.3284 145.587 42.8354H145.566ZM148.758 42.4688C148.756 42.2126 148.655 41.9672 148.477 41.7854C148.298 41.6035 148.057 41.4996 147.803 41.4959C147.549 41.5029 147.307 41.6072 147.126 41.7878C146.945 41.9684 146.838 42.2118 146.828 42.4688H148.758ZM150.779 44.5133L151.322 43.6673C151.725 43.9809 152.209 44.1694 152.716 44.2102C153.092 44.2102 153.26 44.0692 153.26 43.8577C153.26 43.6462 152.82 43.484 152.319 43.3289C151.692 43.1386 150.967 42.8354 150.967 41.9189C150.972 41.7102 151.021 41.5048 151.109 41.316C151.197 41.1272 151.323 40.9591 151.479 40.8225C151.635 40.6858 151.818 40.5835 152.015 40.5223C152.213 40.461 152.42 40.4421 152.625 40.4667C153.226 40.4763 153.811 40.6598 154.312 40.9954L153.824 41.8907C153.456 41.6472 153.035 41.4995 152.598 41.4607C152.284 41.4607 152.124 41.6017 152.124 41.7991C152.124 41.9965 152.556 42.1727 153.043 42.3419C153.671 42.5534 154.437 42.8636 154.437 43.7519C154.437 44.7671 153.685 45.2324 152.695 45.2324C151.994 45.2204 151.318 44.9724 150.772 44.5274L150.779 44.5133ZM155.559 38.8734H156.911V40.0296H155.559V38.8734ZM155.594 40.5301H156.876V45.1196H155.594V40.5301ZM158.277 46.015L158.716 45.0421C159.179 45.3231 159.709 45.4694 160.249 45.4651C161.12 45.4651 161.538 45.0421 161.538 44.2172V43.9916C161.369 44.2261 161.146 44.4159 160.889 44.5447C160.632 44.6736 160.348 44.7378 160.061 44.7319C159.499 44.7319 158.96 44.5061 158.563 44.1041C158.165 43.7022 157.942 43.1571 157.942 42.5887C157.942 42.0203 158.165 41.4752 158.563 41.0732C158.96 40.6713 159.499 40.4455 160.061 40.4455C160.341 40.4437 160.619 40.5062 160.872 40.6283C161.126 40.7504 161.348 40.9289 161.524 41.1505V40.5301H162.806V44.0551C162.833 44.3797 162.796 44.7066 162.697 45.0165C162.598 45.3264 162.438 45.6132 162.228 45.8599C161.962 46.0955 161.653 46.2754 161.318 46.3891C160.983 46.5029 160.629 46.5482 160.277 46.5225C159.579 46.5208 158.892 46.3466 158.277 46.015ZM161.538 42.5816C161.538 42.2862 161.422 42.0029 161.215 41.794C161.009 41.5851 160.729 41.4677 160.437 41.4677C160.145 41.4677 159.865 41.5851 159.658 41.794C159.452 42.0029 159.336 42.2862 159.336 42.5816C159.334 42.7253 159.361 42.868 159.416 43.0005C159.471 43.1331 159.552 43.2528 159.655 43.3521C159.757 43.4514 159.879 43.5281 160.013 43.5775C160.146 43.6269 160.288 43.6479 160.43 43.6391C160.572 43.6468 160.714 43.6251 160.848 43.5755C160.982 43.5259 161.104 43.4493 161.208 43.3504C161.311 43.2515 161.394 43.1324 161.451 43.0003C161.507 42.8681 161.537 42.7257 161.538 42.5816ZM164.116 40.5372H165.398V41.1857C165.547 40.968 165.746 40.7901 165.978 40.6673C166.21 40.5445 166.468 40.4805 166.729 40.4808C166.946 40.4716 167.162 40.5106 167.362 40.5949C167.562 40.6792 167.741 40.8068 167.887 40.9687C168.033 41.1306 168.143 41.323 168.207 41.5322C168.272 41.7414 168.291 41.9625 168.262 42.1798V45.1196H166.98V42.5675C166.98 41.9471 166.701 41.6299 166.2 41.6299C165.698 41.6299 165.398 41.9471 165.398 42.5675V45.1196H164.116V40.5372ZM169.342 42.8354C169.328 42.5288 169.376 42.2225 169.482 41.9348C169.587 41.6471 169.75 41.3841 169.959 41.1615C170.168 40.939 170.419 40.7614 170.697 40.6396C170.976 40.5177 171.276 40.4541 171.579 40.4526C173.091 40.4526 173.788 41.651 173.788 42.9412V43.2796H170.639C170.68 43.5423 170.816 43.7801 171.021 43.9469C171.225 44.1137 171.484 44.1975 171.746 44.182C171.947 44.1808 172.144 44.1383 172.328 44.0571C172.511 43.9759 172.676 43.8576 172.813 43.7096L173.551 44.3653C173.237 44.7445 172.816 45.0173 172.344 45.1468C171.873 45.2764 171.373 45.2564 170.913 45.0897C170.452 44.923 170.054 44.6174 169.771 44.2144C169.487 43.8113 169.333 43.33 169.328 42.8354H169.342ZM172.534 42.4688C172.532 42.2126 172.431 41.9672 172.253 41.7854C172.074 41.6035 171.832 41.4996 171.579 41.4959C171.325 41.5029 171.083 41.6072 170.902 41.7878C170.721 41.9684 170.614 42.2118 170.604 42.4688H172.534ZM174.903 40.5372H176.185V41.4536C176.276 41.1427 176.469 40.8726 176.733 40.689C176.997 40.5054 177.315 40.4194 177.635 40.4455V41.8061H177.565C176.715 41.8061 176.171 42.3278 176.171 43.4276V45.1196H174.903V40.5372ZM178.22 44.5133L178.778 43.6673C179.189 43.9892 179.687 44.1783 180.206 44.2102C180.575 44.2102 180.743 44.0692 180.743 43.8577C180.743 43.6462 180.304 43.484 179.809 43.3289C179.182 43.1386 178.457 42.8354 178.457 41.9189C178.461 41.7105 178.509 41.5053 178.596 41.3165C178.684 41.1277 178.809 40.9595 178.965 40.8227C179.12 40.686 179.302 40.5836 179.499 40.5223C179.696 40.461 179.904 40.442 180.108 40.4667C180.711 40.4761 181.299 40.6595 181.802 40.9954L181.314 41.8907C180.947 41.6461 180.525 41.4983 180.088 41.4607C179.781 41.4607 179.621 41.6017 179.621 41.7991C179.621 41.9965 180.039 42.1727 180.541 42.3419C181.168 42.5534 181.934 42.8636 181.934 43.7519C181.934 44.7671 181.182 45.2324 180.206 45.2324C179.489 45.2304 178.793 44.9818 178.234 44.5274L178.22 44.5133ZM138.738 54.0307C138.738 53.0296 139.49 52.5714 140.563 52.5714C140.938 52.5694 141.31 52.6314 141.664 52.7547V52.6842C141.664 52.1484 141.337 51.8523 140.689 51.8523C140.261 51.8517 139.837 51.9355 139.441 52.0991L139.121 51.1121C139.671 50.8575 140.272 50.7321 140.877 50.7455C141.152 50.725 141.429 50.76 141.691 50.8483C141.953 50.9367 142.195 51.0766 142.403 51.2601C142.577 51.4579 142.709 51.6889 142.793 51.9396C142.877 52.1903 142.91 52.4555 142.891 52.7194V55.3773H141.65V54.8838C141.475 55.0791 141.259 55.2324 141.018 55.3324C140.777 55.4324 140.517 55.4766 140.257 55.4619C140.062 55.4806 139.866 55.4579 139.681 55.395C139.496 55.3322 139.326 55.2307 139.182 55.0971C139.038 54.9634 138.923 54.8007 138.846 54.6195C138.768 54.4382 138.729 54.2424 138.731 54.0448L138.738 54.0307ZM141.685 53.7487V53.5161C141.425 53.404 141.145 53.3465 140.863 53.3469C140.305 53.3469 139.978 53.5584 139.978 53.9955C139.978 54.4326 140.257 54.5595 140.675 54.5595C141.281 54.5595 141.685 54.2281 141.685 53.7558V53.7487ZM144.173 50.7596H145.455V51.4646C145.602 51.2465 145.799 51.0683 146.03 50.9453C146.261 50.8224 146.518 50.7586 146.779 50.7596C146.996 50.7494 147.213 50.7875 147.414 50.8714C147.615 50.9552 147.795 51.0826 147.942 51.2447C148.089 51.4067 148.199 51.5995 148.264 51.8092C148.329 52.019 148.348 52.2407 148.319 52.4586V55.4196H147.03V52.8111C147.03 52.1978 146.737 51.8805 146.249 51.8805C145.762 51.8805 145.448 52.1978 145.448 52.8111V55.3632H144.166L144.173 50.7596ZM149.399 53.0649C149.363 52.7666 149.391 52.4641 149.48 52.1774C149.569 51.8907 149.717 51.6265 149.915 51.4024C150.113 51.1783 150.356 50.9994 150.627 50.8776C150.899 50.7558 151.193 50.6939 151.49 50.6961C151.76 50.695 152.027 50.7582 152.269 50.8807C152.511 51.0031 152.722 51.1814 152.883 51.4011V49.1451H154.172V55.3843H152.883V54.7075C152.73 54.9385 152.523 55.1272 152.279 55.2564C152.036 55.3857 151.764 55.4515 151.49 55.4478C151.194 55.4425 150.902 55.3751 150.633 55.2499C150.364 55.1247 150.124 54.9445 149.927 54.7205C149.731 54.4965 149.583 54.2337 149.492 53.9488C149.401 53.6638 149.369 53.3628 149.399 53.0649ZM152.883 53.0649C152.853 52.8526 152.762 52.6536 152.623 52.4917C152.484 52.3297 152.302 52.2116 152.098 52.1513C151.895 52.091 151.678 52.091 151.475 52.1515C151.271 52.2119 151.089 52.3302 150.95 52.4922C150.811 52.6542 150.721 52.8532 150.69 53.0656C150.66 53.2779 150.69 53.4947 150.778 53.6901C150.865 53.8855 151.007 54.0514 151.185 54.168C151.363 54.2846 151.57 54.3471 151.782 54.348C151.94 54.343 152.095 54.3052 152.238 54.2368C152.381 54.1684 152.508 54.071 152.612 53.9506C152.716 53.8302 152.795 53.6894 152.843 53.537C152.89 53.3846 152.907 53.2239 152.89 53.0649H152.883ZM158.305 49.3848H160.604C161.009 49.3567 161.416 49.4131 161.798 49.5505C162.181 49.688 162.531 49.9036 162.828 50.1839C163.125 50.4643 163.362 50.8033 163.523 51.1801C163.685 51.5568 163.769 51.9632 163.769 52.374C163.769 52.7848 163.685 53.1912 163.523 53.5679C163.362 53.9447 163.125 54.2837 162.828 54.5641C162.531 54.8444 162.181 55.06 161.798 55.1975C161.416 55.3349 161.009 55.3913 160.604 55.3632H158.305V49.3848ZM160.604 54.1788C161.077 54.1788 161.531 53.9886 161.866 53.6502C162.2 53.3117 162.388 52.8527 162.388 52.374C162.388 51.8953 162.2 51.4363 161.866 51.0978C161.531 50.7594 161.077 50.5692 160.604 50.5692H159.601V54.1788H160.604ZM164.715 53.086C164.701 52.7794 164.749 52.4731 164.855 52.1854C164.96 51.8977 165.123 51.6347 165.332 51.4121C165.541 51.1896 165.792 51.012 166.07 50.8902C166.349 50.7683 166.649 50.7047 166.952 50.7032C168.464 50.7032 169.161 51.9016 169.161 53.1918V53.5302H166.012C166.051 53.7936 166.187 54.0324 166.392 54.1995C166.597 54.3665 166.857 54.4497 167.12 54.4326C167.324 54.4353 167.527 54.3947 167.716 54.3133C167.904 54.232 168.074 54.1117 168.214 53.9602L168.952 54.6159C168.638 54.9925 168.217 55.2628 167.747 55.3908C167.276 55.5187 166.778 55.498 166.319 55.3316C165.861 55.1652 165.463 54.8609 165.18 54.4595C164.897 54.0582 164.743 53.579 164.736 53.086H164.715ZM167.907 52.7194C167.905 52.4632 167.804 52.2179 167.626 52.036C167.447 51.8541 167.206 51.7502 166.952 51.7466C166.698 51.7535 166.456 51.8578 166.275 52.0384C166.094 52.219 165.987 52.4624 165.977 52.7194H167.907ZM170.067 53.086C170.063 52.7709 170.122 52.4581 170.24 52.1664C170.358 51.8746 170.533 51.6098 170.753 51.3875C170.974 51.1653 171.237 50.9902 171.526 50.8727C171.815 50.7551 172.125 50.6975 172.436 50.7032C172.773 50.6946 173.107 50.7623 173.415 50.9013C173.722 51.0404 173.995 51.2473 174.213 51.5069L173.516 52.2824C173.382 52.1353 173.218 52.019 173.035 51.9411C172.852 51.8633 172.655 51.8258 172.457 51.8311C172.154 51.8766 171.877 52.0323 171.679 52.2692C171.481 52.5062 171.375 52.808 171.381 53.1183C171.387 53.4286 171.504 53.7261 171.711 53.955C171.919 54.184 172.201 54.3287 172.506 54.3621C172.698 54.354 172.887 54.3067 173.06 54.2231C173.234 54.1395 173.389 54.0213 173.516 53.8756L174.269 54.6511C174.046 54.9246 173.763 55.142 173.442 55.2863C173.122 55.4306 172.773 55.498 172.422 55.483C172.112 55.4888 171.803 55.431 171.514 55.3133C171.226 55.1956 170.964 55.0203 170.744 54.7979C170.524 54.5754 170.351 54.3105 170.235 54.0188C170.118 53.7271 170.061 53.4146 170.067 53.1001V53.086ZM174.91 53.086C174.892 52.5928 175.02 52.1054 175.278 51.6865C175.536 51.2675 175.912 50.9361 176.357 50.7349C176.803 50.5336 177.297 50.4718 177.778 50.5572C178.258 50.6427 178.702 50.8715 179.053 51.2144C179.404 51.5572 179.646 51.9984 179.747 52.4812C179.848 52.9641 179.804 53.4665 179.621 53.9239C179.438 54.3813 179.124 54.7728 178.719 55.0481C178.314 55.3234 177.837 55.47 177.349 55.4689C177.032 55.4813 176.717 55.4287 176.421 55.3144C176.125 55.2002 175.855 55.0265 175.627 54.8039C175.399 54.5813 175.218 54.3143 175.095 54.0191C174.972 53.7239 174.909 53.4065 174.91 53.086ZM178.534 53.086C178.539 52.9235 178.513 52.7615 178.455 52.6096C178.398 52.4576 178.312 52.3188 178.201 52.2012C178.09 52.0836 177.956 51.9897 177.809 51.9249C177.661 51.8602 177.503 51.8259 177.342 51.8241C177.181 51.8217 177.021 51.8533 176.872 51.9168C176.724 51.9803 176.59 52.0744 176.479 52.1931C176.368 52.3117 176.283 52.4524 176.229 52.6061C176.175 52.7598 176.153 52.9233 176.164 53.086C176.158 53.2491 176.184 53.4119 176.241 53.5647C176.297 53.7175 176.384 53.8571 176.495 53.9755C176.606 54.0938 176.74 54.1884 176.887 54.2536C177.035 54.3188 177.195 54.3533 177.356 54.355C177.52 54.3605 177.683 54.331 177.834 54.2684C177.986 54.2057 178.123 54.1115 178.236 53.9917C178.349 53.8719 178.436 53.7294 178.491 53.5733C178.546 53.4172 178.567 53.2512 178.555 53.086H178.534ZM180.917 50.7596H182.199V51.6761C182.289 51.3651 182.483 51.0951 182.747 50.9114C183.011 50.7278 183.329 50.6418 183.648 50.6679V52.0286H183.579C182.729 52.0286 182.185 52.5502 182.185 53.65V55.342H180.903L180.917 50.7596ZM184.136 54.0307C184.136 53.0296 184.882 52.5714 185.948 52.5714C186.325 52.5689 186.699 52.6309 187.056 52.7547V52.6842C187.056 52.1484 186.728 51.8523 186.08 51.8523C185.65 51.8517 185.224 51.9355 184.826 52.0991L184.505 51.1121C185.057 50.8591 185.656 50.7338 186.261 50.7455C186.538 50.7241 186.816 50.7586 187.079 50.8469C187.342 50.9353 187.586 51.0757 187.795 51.2601C187.967 51.4587 188.099 51.6899 188.183 51.9404C188.266 52.1909 188.3 52.4557 188.282 52.7194V55.3773H187.042V54.8838C186.866 55.0783 186.65 55.231 186.409 55.331C186.168 55.4309 185.908 55.4756 185.648 55.4619C185.454 55.4806 185.258 55.4579 185.073 55.395C184.887 55.3322 184.717 55.2307 184.573 55.0971C184.43 54.9634 184.315 54.8007 184.237 54.6195C184.16 54.4382 184.12 54.2424 184.122 54.0448L184.136 54.0307ZM187.084 53.7487V53.5161C186.824 53.404 186.544 53.3465 186.261 53.3469C185.704 53.3469 185.377 53.5584 185.377 53.9955C185.377 54.4326 185.655 54.5595 186.073 54.5595C186.673 54.5595 187.084 54.2281 187.084 53.7558V53.7487ZM189.732 54.073V51.8876H189.188V50.7596H189.732V49.6175H191.014V50.7596H192.08V51.8664H191.014V53.8192C191.014 54.1224 191.139 54.2704 191.432 54.2704C191.654 54.2716 191.873 54.2132 192.066 54.1012V55.1446C191.761 55.3286 191.411 55.4215 191.056 55.4125C190.24 55.4407 189.732 55.1305 189.732 54.073ZM192.847 53.086C192.829 52.5928 192.957 52.1054 193.214 51.6865C193.472 51.2675 193.848 50.9361 194.294 50.7349C194.739 50.5336 195.234 50.4718 195.714 50.5572C196.195 50.6427 196.639 50.8715 196.99 51.2144C197.341 51.5572 197.582 51.9984 197.683 52.4812C197.785 52.9641 197.741 53.4665 197.558 53.9239C197.374 54.3813 197.06 54.7728 196.655 55.0481C196.25 55.3234 195.773 55.47 195.285 55.4689C194.97 55.4774 194.656 55.4221 194.362 55.3064C194.068 55.1907 193.799 55.0169 193.572 54.795C193.345 54.5732 193.164 54.3078 193.039 54.0144C192.915 53.721 192.849 53.4054 192.847 53.086ZM196.47 53.086C196.476 52.9235 196.449 52.7615 196.392 52.6096C196.335 52.4576 196.248 52.3188 196.137 52.2012C196.026 52.0836 195.893 51.9897 195.745 51.9249C195.598 51.8602 195.439 51.8259 195.279 51.8241C195.117 51.8217 194.957 51.8533 194.809 51.9168C194.66 51.9803 194.526 52.0744 194.415 52.1931C194.305 52.3117 194.22 52.4524 194.165 52.6061C194.111 52.7598 194.089 52.9233 194.101 53.086C194.094 53.2491 194.12 53.4119 194.177 53.5647C194.234 53.7175 194.32 53.8571 194.431 53.9755C194.543 54.0938 194.676 54.1884 194.824 54.2536C194.972 54.3188 195.131 54.3533 195.292 54.355C195.457 54.3615 195.62 54.3327 195.773 54.2706C195.925 54.2084 196.063 54.1143 196.177 53.9944C196.291 53.8745 196.378 53.7316 196.434 53.575C196.489 53.4185 196.511 53.2518 196.498 53.086H196.47ZM198.839 50.7596H200.128V51.6761C200.219 51.3663 200.411 51.0973 200.673 50.9138C200.936 50.7303 201.253 50.6435 201.571 50.6679V52.0286H201.501C200.651 52.0286 200.108 52.5502 200.108 53.65V55.342H198.818L198.839 50.7596ZM202.184 54.7569L202.742 53.9109C203.142 54.2292 203.627 54.4184 204.135 54.4537C204.512 54.4537 204.679 54.3127 204.679 54.1012C204.679 53.8897 204.24 53.7276 203.745 53.5725C203.118 53.3892 202.393 53.079 202.393 52.1625C202.398 51.9541 202.445 51.7488 202.532 51.5601C202.62 51.3713 202.745 51.2031 202.901 51.0663C203.057 50.9295 203.239 50.8272 203.436 50.7659C203.633 50.7045 203.84 50.6856 204.045 50.7102C204.645 50.7186 205.231 50.9022 205.731 51.239L205.243 52.1343C204.874 51.8946 204.454 51.7494 204.017 51.7113C203.71 51.7113 203.55 51.8523 203.55 52.0426C203.55 52.233 203.968 52.4163 204.47 52.5855C205.097 52.797 205.863 53.1072 205.863 53.9955C205.863 55.0177 205.111 55.476 204.135 55.476C203.428 55.4676 202.743 55.2194 202.191 54.771L202.184 54.7569ZM138.8 63.3296C138.781 62.8345 138.908 62.3448 139.166 61.9236C139.424 61.5024 139.801 61.169 140.248 60.9663C140.695 60.7637 141.192 60.7011 141.674 60.7865C142.157 60.872 142.603 61.1016 142.955 61.4459C143.307 61.7901 143.55 62.2331 143.651 62.718C143.752 63.2028 143.708 63.7072 143.523 64.1662C143.339 64.6252 143.022 65.0177 142.615 65.2933C142.208 65.5689 141.729 65.7149 141.239 65.7125C140.924 65.7209 140.61 65.6657 140.315 65.55C140.021 65.4343 139.753 65.2604 139.526 65.0386C139.299 64.8167 139.118 64.5514 138.993 64.2579C138.868 63.9645 138.803 63.6489 138.8 63.3296ZM142.424 63.3296C142.43 63.1665 142.404 63.0037 142.348 62.851C142.291 62.6982 142.204 62.5585 142.093 62.4402C141.982 62.3218 141.849 62.2272 141.701 62.1621C141.553 62.0969 141.393 62.0624 141.232 62.0606C141.071 62.0602 140.912 62.0934 140.764 62.1581C140.616 62.2229 140.483 62.3178 140.373 62.4369C140.263 62.556 140.179 62.6967 140.125 62.8503C140.072 63.0039 140.05 63.1671 140.061 63.3296C140.055 63.4924 140.081 63.6548 140.138 63.8072C140.195 63.9596 140.281 64.0988 140.392 64.2166C140.504 64.3344 140.637 64.4283 140.785 64.4927C140.933 64.5571 141.092 64.5907 141.253 64.5915C141.414 64.5929 141.573 64.5606 141.721 64.4967C141.869 64.4327 142.002 64.3385 142.112 64.2199C142.222 64.1014 142.306 63.9611 142.36 63.8078C142.414 63.6546 142.435 63.4918 142.424 63.3296ZM145.016 62.1311H144.479V61.0736H145.016V60.7916C145 60.5909 145.024 60.389 145.086 60.1978C145.149 60.0065 145.248 59.8297 145.378 59.6777C145.518 59.5498 145.683 59.452 145.861 59.3902C146.039 59.3284 146.228 59.3039 146.417 59.3182C146.725 59.3135 147.033 59.3563 147.329 59.4451V60.5237C147.143 60.4498 146.944 60.4115 146.744 60.4109C146.451 60.4109 146.277 60.566 146.277 60.9044V61.0807H147.322V62.1382H146.305V65.6067H145.023L145.016 62.1311ZM151.023 59.6213H153.719C154.033 59.6011 154.347 59.6443 154.644 59.7484C154.941 59.8525 155.214 60.0154 155.448 60.2276C155.622 60.4156 155.756 60.6377 155.842 60.8801C155.929 61.1226 155.965 61.3804 155.949 61.6376C155.959 62.0356 155.843 62.4264 155.617 62.7525C155.391 63.0786 155.068 63.3229 154.695 63.4494L156.137 65.5644H154.618L153.294 63.6962H152.284V65.5997H150.988L151.023 59.6213ZM153.636 62.5259C154.263 62.5259 154.632 62.1734 154.632 61.6658C154.632 61.1582 154.249 60.8198 153.615 60.8198H152.319V62.533L153.636 62.5259ZM157.12 63.9852V61.0243H158.402V63.5763C158.402 64.1897 158.695 64.5069 159.183 64.5069C159.67 64.5069 159.984 64.1897 159.984 63.5763V61.0243H161.266V65.6067H159.984V64.9581C159.837 65.1766 159.64 65.3552 159.409 65.4782C159.178 65.6011 158.921 65.6647 158.66 65.6631C158.446 65.6727 158.232 65.6351 158.033 65.5529C157.834 65.4707 157.655 65.3459 157.509 65.187C157.363 65.0282 157.252 64.8391 157.185 64.6329C157.118 64.4266 157.096 64.2081 157.12 63.9923V63.9852ZM162.228 64.9934L162.785 64.1474C163.185 64.4675 163.67 64.659 164.179 64.6973C164.555 64.6973 164.722 64.5563 164.722 64.3448C164.722 64.1333 164.283 63.9641 163.782 63.816C163.155 63.6257 162.437 63.3225 162.437 62.4061C162.441 62.1976 162.489 61.9924 162.576 61.8036C162.664 61.6148 162.789 61.4466 162.945 61.3099C163.1 61.1731 163.282 61.0707 163.479 61.0094C163.676 60.9481 163.884 60.9291 164.088 60.9538C164.689 60.9634 165.274 61.1469 165.775 61.4825L165.287 62.3849C164.92 62.1403 164.498 61.9925 164.06 61.9549C163.754 61.9549 163.594 62.0959 163.594 62.2862C163.594 62.4766 164.012 62.6599 164.513 62.8361C165.14 63.0476 165.907 63.3578 165.907 64.2461C165.907 65.2613 165.154 65.7266 164.165 65.7266C163.459 65.7147 162.777 65.464 162.228 65.0145V64.9934ZM166.548 64.9934L167.106 64.1474C167.505 64.4675 167.991 64.659 168.499 64.6973C168.876 64.6973 169.043 64.5563 169.043 64.3448C169.043 64.1333 168.604 63.9641 168.102 63.816C167.475 63.6257 166.757 63.3225 166.757 62.4061C166.762 62.1976 166.809 61.9924 166.896 61.8036C166.984 61.6148 167.109 61.4466 167.265 61.3099C167.421 61.1731 167.603 61.0707 167.8 61.0094C167.997 60.9481 168.204 60.9291 168.409 60.9538C169.009 60.9634 169.594 61.1469 170.095 61.4825L169.607 62.3849C169.24 62.1403 168.819 61.9925 168.381 61.9549C168.074 61.9549 167.914 62.0959 167.914 62.2862C167.914 62.4766 168.332 62.6599 168.834 62.8361C169.461 63.0476 170.227 63.3578 170.227 64.2461C170.227 65.2613 169.475 65.7266 168.499 65.7266C167.786 65.7118 167.098 65.4534 166.548 64.9934ZM171.335 59.3675H172.68V60.5167H171.335V59.3675ZM171.335 61.0243H172.624V65.6067H171.335V61.0243ZM173.753 64.2672C173.753 63.2662 174.506 62.8079 175.579 62.8079C175.954 62.8045 176.327 62.8689 176.68 62.9983V62.9278C176.68 62.392 176.353 62.0818 175.704 62.0818C175.277 62.0812 174.853 62.165 174.457 62.3285L174.137 61.3345C174.686 61.0773 175.287 60.9518 175.893 60.9679C176.168 60.9465 176.444 60.9803 176.706 61.0674C176.968 61.1546 177.21 61.2932 177.419 61.4755C177.592 61.6734 177.725 61.9046 177.809 62.1552C177.892 62.4058 177.926 62.6709 177.906 62.9348V65.5926H176.666V65.0991C176.492 65.2957 176.276 65.4498 176.035 65.5499C175.793 65.65 175.533 65.6935 175.272 65.6772C175.079 65.6959 174.884 65.6735 174.7 65.6115C174.516 65.5495 174.346 65.4492 174.203 65.3171C174.059 65.1851 173.944 65.0241 173.866 64.8445C173.787 64.6649 173.746 64.4707 173.746 64.2743L173.753 64.2672ZM176.701 63.9852V63.7526C176.441 63.6406 176.161 63.583 175.879 63.5834C175.335 63.5834 174.994 63.809 174.994 64.232C174.994 64.655 175.272 64.796 175.691 64.796C176.304 64.796 176.701 64.4646 176.701 63.9923V63.9852Z" fill="#969696"/>
</svg>
