<svg width="68" height="45" viewBox="0 0 68 45" fill="none" xmlns="http://www.w3.org/2000/svg">
<g clip-path="url(#clip0)">
<path d="M31.4524 0.0849915C31.2232 0.119015 30.8412 0.170055 30.6035 0.204082C30.3742 0.23811 30.0432 0.297657 29.8819 0.340187C29.0075 0.552853 28.201 0.791039 27.9717 0.89312C27.8359 0.952663 27.5218 1.06325 27.2756 1.1313C26.8766 1.2504 25.5353 1.84586 25.2127 2.05002C25.1448 2.09255 24.992 2.17762 24.8731 2.23716C24.7543 2.2882 24.4317 2.49236 24.1515 2.67951C23.8714 2.86665 23.5827 3.0538 23.4978 3.10484C22.4112 3.77686 20.5945 5.42715 19.6861 6.55002C19.4824 6.80522 19.2786 7.06042 19.2277 7.11996C19.1852 7.17951 19.1003 7.27308 19.0579 7.33263C19.0069 7.39218 18.8287 7.65588 18.6674 7.91108C18.5061 8.16628 18.2599 8.54907 18.1156 8.76174C17.5722 9.6124 16.8761 11.1181 16.4516 12.3771C16.1206 13.3723 16.0102 13.8147 15.8319 14.844C15.7555 15.3118 15.6452 15.8307 15.5942 15.9924C15.5263 16.205 15.4923 19.0718 15.4754 25.9706L15.4414 35.6597L20.2634 35.6171C23.1158 35.5916 25.2891 35.5321 25.5947 35.481C26.0531 35.396 26.2993 35.3449 27.1228 35.1748C27.4539 35.0982 28.5151 34.792 28.7358 34.7069C28.8292 34.6729 29.0414 34.5878 29.2027 34.5368C29.6442 34.3752 31.1043 33.7457 31.1553 33.6946C31.1807 33.6691 31.3675 33.55 31.5797 33.4394C31.792 33.3289 32.2844 33.0226 32.6749 32.7589C33.0739 32.4952 33.4644 32.24 33.5578 32.189C33.6427 32.1294 33.8379 31.9678 33.9907 31.8232C34.135 31.6786 34.2963 31.5595 34.3473 31.5595C34.3897 31.5595 34.4746 31.4829 34.534 31.3893C34.5935 31.2958 34.7038 31.2192 34.7972 31.2192C34.8821 31.2192 34.984 31.1427 35.0264 31.0576C35.0689 30.964 35.3915 30.5897 35.7395 30.2154C36.6309 29.2712 37.0554 28.7268 37.9298 27.4253C38.7957 26.1237 40.0097 23.291 40.3747 21.6918C40.6379 20.5774 40.8162 19.5907 40.9096 18.7996C41.0624 17.5151 41.5802 15.4224 41.8943 14.8014C41.9538 14.6823 42.0981 14.3591 42.2254 14.0784C42.4546 13.585 43.1168 12.4621 43.38 12.1304C44.0337 11.3052 44.8656 10.4886 45.5023 10.0462C46.1815 9.57838 47.0729 9.10201 47.2766 9.10201C47.3785 9.10201 47.4549 9.06798 47.4549 9.03395C47.4549 8.95739 48.4906 8.63414 49.0254 8.54057C49.2122 8.51505 50.0187 8.47252 50.8252 8.44699C51.8269 8.42148 52.3023 8.37894 52.3533 8.31089C52.3872 8.25134 52.4127 6.36287 52.3957 4.10011L52.3787 -7.62939e-05L50.6978 0.00843048C49.781 0.00843048 48.8132 0.0509644 48.5585 0.0849915C48.3038 0.127522 47.9048 0.187069 47.6671 0.212589C47.4379 0.246616 47.1663 0.297657 47.0729 0.340187C46.9795 0.374214 46.5211 0.493309 46.0541 0.603893C45.5872 0.705975 45.1458 0.842079 45.0779 0.89312C45.0099 0.944157 44.7807 1.04624 44.5685 1.10579C44.2035 1.21637 42.7772 1.87989 42.2339 2.19463C41.8689 2.4073 41.2067 2.83263 40.6209 3.23244C38.8467 4.4659 36.7837 6.74567 35.5188 8.87233C34.6784 10.2844 33.5068 13.1682 33.1927 14.5803C33.1503 14.7759 33.0569 15.1757 32.989 15.482C32.9211 15.7882 32.7852 16.6048 32.6918 17.3109C32.4457 19.0888 32.3692 19.5737 32.2674 19.7778C32.2249 19.8714 32.0891 20.2712 31.9702 20.6625C31.775 21.275 31.5033 21.8875 31.0619 22.7126C30.8666 23.0699 30.3658 23.7334 30.2893 23.7334C30.2554 23.7334 30.2214 23.7759 30.2214 23.8185C30.2214 23.9375 29.1093 25.0944 28.999 25.0944C28.948 25.0944 28.8546 25.171 28.7952 25.2646C28.7358 25.3582 28.6339 25.4347 28.5745 25.4347C28.5066 25.4347 28.4387 25.4602 28.4217 25.5028C28.3877 25.5878 27.2841 26.2428 26.953 26.3789C26.8172 26.43 26.588 26.5321 26.4437 26.5916C26.0531 26.7532 24.4911 27.136 24.194 27.136H23.9308L23.9563 21.7513C23.9817 17.1237 24.0072 16.3241 24.1176 15.9924C24.194 15.7797 24.3213 15.3799 24.4062 15.0992C24.5845 14.4952 25.1702 13.2447 25.34 13.1001C25.4079 13.0406 25.4674 12.947 25.4674 12.896C25.4759 12.6408 27.0464 10.8799 27.6067 10.4971C27.8104 10.361 28.0481 10.1823 28.133 10.1058C28.3283 9.92715 29.5677 9.26363 29.9243 9.14454C30.0686 9.0935 30.2554 9.01694 30.3488 8.9659C30.4422 8.91486 30.6544 8.84681 30.8157 8.81278C30.977 8.77875 31.4015 8.68518 31.7495 8.61713C32.0976 8.54057 32.8786 8.4555 33.4814 8.42998L34.5765 8.37894L34.7548 8.0642C34.967 7.68991 35.8754 6.3969 36.2659 5.91202C37.2931 4.66155 39.2457 2.86665 40.3832 2.13509C40.7228 1.92242 40.9945 1.68423 41.003 1.61618C41.003 1.49709 40.4511 1.19085 40.2304 1.19085C40.1795 1.19085 40.0352 1.13981 39.9163 1.07176C39.5088 0.867599 39.2711 0.791039 38.5835 0.63792C38.2099 0.552853 37.7685 0.450775 37.6072 0.408241C37.2422 0.30616 36.6479 0.195576 35.8669 0.0849915C35.1877 -0.00858307 32.0891 -0.00858307 31.4524 0.0849915Z" fill="#777777"/>
<path d="M48.9421 9.58689C47.5583 9.91865 45.9793 10.8118 45.0115 11.8241C44.5531 12.3005 43.7211 13.4149 43.5343 13.8062C43.441 14.0018 43.2712 14.3506 43.1523 14.5888C42.9231 15.0481 42.9231 15.0566 43.2627 16.3326C43.3985 16.8345 43.4155 17.6937 43.441 26.3534C43.4749 35.6767 43.4749 35.8128 43.6362 35.8128C43.7296 35.8128 45.5888 35.8213 47.779 35.8213H51.7436L51.7945 35.5831C51.8794 35.2088 51.8709 18.4763 51.786 17.0727C51.7436 16.3837 51.6757 15.6181 51.6247 15.3714C51.5738 15.1332 51.4719 14.6398 51.404 14.291C51.1493 13.0236 50.6994 11.6965 50.0882 10.395C49.6807 9.54436 49.6637 9.52734 49.392 9.53585C49.2392 9.54436 49.0355 9.56137 48.9421 9.58689Z" fill="#777777"/>
<path d="M53.9073 39.0028C53.9073 39.1219 53.8564 39.2325 53.8055 39.2495C52.5915 39.5813 52.1246 39.879 51.751 40.5851C51.4624 41.104 51.3605 42.0652 51.5218 42.6607C51.7595 43.5454 52.4472 44.1749 53.398 44.362C53.8394 44.4556 53.8649 44.4726 53.8904 44.7278L53.9158 45H54.5101H55.0958V44.7023C55.0958 44.4386 55.1213 44.4045 55.3081 44.4045C55.6052 44.4045 56.3268 44.1153 56.6664 43.8601C56.8192 43.741 57.0654 43.4008 57.2097 43.12C57.4474 42.6522 57.4729 42.5076 57.4729 41.8525C57.4729 41.1975 57.4389 41.0529 57.2182 40.6021C57.0654 40.3043 56.8277 39.9811 56.6579 39.8535C56.3013 39.5813 55.6137 39.3006 55.3081 39.3006C55.1298 39.3006 55.0958 39.258 55.0958 39.0454V38.7902H54.5016C53.9243 38.7902 53.9073 38.7987 53.9073 39.0028ZM53.9073 41.8525C53.9073 43.724 53.9158 43.7155 53.398 43.3582C52.948 43.052 52.7613 42.6011 52.7613 41.81C52.7613 41.0274 52.9226 40.6616 53.398 40.3469C53.9158 39.9896 53.9073 39.9811 53.9073 41.8525ZM55.758 40.517C55.9108 40.6616 56.0721 40.9168 56.1146 41.0869C56.2249 41.4868 56.2249 42.2268 56.1061 42.6266C55.9957 42.9754 55.5882 43.4178 55.2911 43.5113L55.0958 43.5624V41.8525V40.1427L55.2911 40.1937C55.393 40.2278 55.6052 40.3724 55.758 40.517Z" fill="#777777"/>
<path d="M0.892429 39.0794C0.705663 39.1389 0.46796 39.2325 0.366087 39.2835C0.18781 39.3856 0.18781 39.3941 0.315151 39.7939C0.391555 40.0151 0.459471 40.2022 0.46796 40.2192C0.484939 40.2363 0.697173 40.1852 0.943366 40.1172C1.74986 39.8705 2.38656 39.9725 2.56484 40.3553C2.78556 40.8572 2.23375 41.3421 1.44424 41.3421H1.10466V41.81V42.2778H1.57158C2.36109 42.2778 2.80254 42.5671 2.80254 43.0945C2.80254 43.3327 2.34411 43.6984 1.97907 43.7665C1.66496 43.8175 0.977323 43.6984 0.493428 43.5113C0.383066 43.4688 0.32364 43.5453 0.221768 43.9026C0.145363 44.1493 0.0859375 44.379 0.0859375 44.413C0.0859375 44.5236 0.892429 44.7533 1.48669 44.8043C2.52239 44.8894 3.58357 44.4981 3.91465 43.9196C4.37308 43.12 4.00803 42.1247 3.16759 41.844L2.87895 41.7504L3.21852 41.5803C3.66846 41.3591 3.94012 40.9168 3.94012 40.4064C3.94012 39.8364 3.70242 39.4792 3.15061 39.1899C2.75161 38.9943 2.59031 38.9603 1.96209 38.9688C1.56309 38.9688 1.0792 39.0198 0.892429 39.0794Z" fill="#777777"/>
<path d="M11.826 39.0198L11.4609 39.0538V41.9035V44.7448H12.0552H12.6495V43.724V42.7032H13.1843C14.3898 42.7032 15.2472 42.1502 15.4425 41.257C15.6547 40.2788 15.2812 39.5302 14.3898 39.1389C14.1266 39.0198 12.5051 38.9432 11.826 39.0198ZM13.9059 40.1171C14.5681 40.551 14.203 41.5803 13.3371 41.7249C12.6919 41.8355 12.6495 41.7844 12.6495 40.8317C12.6495 40.0321 12.6579 39.9896 12.8447 39.9555C13.1333 39.8875 13.6936 39.9725 13.9059 40.1171Z" fill="#777777"/>
<path d="M6.67534 39.1898C6.64987 39.2749 6.28483 40.4913 5.86036 41.8949C5.43589 43.2985 5.07084 44.515 5.04538 44.5915C5.00293 44.7276 5.07084 44.7446 5.67359 44.7446H6.34425L6.53102 44.0216L6.72627 43.2985H7.54974H8.38171L8.59394 43.996L8.81466 44.7021L9.51079 44.7276C10.0541 44.7446 10.1984 44.7276 10.173 44.6425C10.156 44.583 9.75699 43.2985 9.29007 41.7928L8.44962 39.0452H7.5837C6.83664 39.0452 6.71778 39.0622 6.67534 39.1898ZM7.85536 41.1208C8.01666 41.7248 8.15249 42.2267 8.15249 42.2437C8.15249 42.2607 7.88083 42.2777 7.54974 42.2777C7.09981 42.2777 6.95549 42.2522 6.98096 42.1671C6.99793 42.1076 7.12528 41.5972 7.26111 41.0272C7.40543 40.4573 7.52428 40.0064 7.54126 40.015C7.54974 40.032 7.69406 40.5253 7.85536 41.1208Z" fill="#777777"/>
<path d="M16.2148 39.0709C16.2148 39.0879 16.6478 39.9981 17.1826 41.0954C18.108 42.9924 18.1419 43.0945 18.0316 43.3157C17.8788 43.6134 17.6665 43.724 17.2506 43.724H16.9195L16.86 44.2089C16.7921 44.7618 16.8431 44.8298 17.3609 44.8298C18.6683 44.8298 19.1946 44.1493 20.4935 40.7467L21.1217 39.0879L20.485 39.0623C20.0605 39.0453 19.8143 39.0709 19.7804 39.1389C19.7464 39.1899 19.5342 39.862 19.305 40.6276C19.0758 41.3932 18.872 42.0226 18.8466 42.0226C18.8211 42.0226 18.7277 41.8185 18.6428 41.5718C18.5579 41.3336 18.2947 40.6616 18.057 40.0831L17.6241 39.0453H16.9195C16.529 39.0453 16.2148 39.0623 16.2148 39.0709Z" fill="#777777"/>
<path d="M22.0742 41.8867V44.7194L22.8213 44.7789C24.4852 44.9065 25.7586 44.4897 26.1491 43.6901C26.3783 43.2052 26.3783 42.4736 26.1491 42.0143C25.8265 41.3848 24.7738 40.951 23.7297 41.019L23.3901 41.0445L23.3646 40.5512L23.3391 40.0663H24.621H25.8945V39.5559V39.0455H23.9843H22.0742V41.8867ZM24.239 42.0313C24.7059 42.1504 24.9776 42.4311 24.9861 42.8224C25.0031 43.4604 24.5871 43.8092 23.823 43.8092H23.3476V42.9245C23.3476 42.1504 23.3646 42.0313 23.5004 41.9973C23.7466 41.9292 23.857 41.9377 24.239 42.0313Z" fill="#777777"/>
<path d="M27.6758 41.895V44.7448H29.4586H31.2413V44.2344V43.724H30.0953H28.9492V43.0009V42.2778H29.9679H30.9866V41.7674V41.257H29.9679H28.9492V40.6616V40.0661H30.0528H31.1564V39.5557V39.0453H29.4161H27.6758V41.895Z" fill="#777777"/>
<path d="M32.1785 39.0707C32.1785 39.0877 32.5945 39.6492 33.1038 40.3212L34.0377 41.5376L33.6387 41.7333C33.1208 41.997 32.9255 42.2947 32.5265 43.4771C32.3483 44.0131 32.17 44.515 32.136 44.6C32.0766 44.7361 32.1275 44.7531 32.7388 44.7276L33.4094 44.7021L33.7151 43.7749C34.0716 42.703 34.3433 42.3628 34.8526 42.3628H35.1498V43.5537V44.7446H35.744H36.3383V43.5537V42.3628H36.5845C37.2466 42.3628 37.4759 42.6435 37.8664 43.911L38.1295 44.7446H38.7578C39.1058 44.7446 39.3945 44.7191 39.3945 44.6766C39.386 44.515 38.8002 42.7796 38.6389 42.4734C38.4437 42.0821 38.0362 41.7078 37.7305 41.6312C37.6202 41.6057 37.5268 41.5632 37.5268 41.5376C37.5268 41.5121 37.9428 40.9422 38.4606 40.2701L39.3945 39.0452H38.6474H37.9088L37.1957 40.2361C36.8052 40.8911 36.4571 41.4015 36.4147 41.376C36.3722 41.3505 36.3383 40.8146 36.3383 40.1851V39.0452H35.744H35.1498V40.2531C35.1498 41.1208 35.1243 41.4356 35.0564 41.3675C35.0054 41.3165 34.6744 40.7805 34.3093 40.1851L33.6556 39.0877L32.9171 39.0622C32.5096 39.0537 32.1785 39.0537 32.1785 39.0707Z" fill="#777777"/>
<path d="M40.4961 41.895V44.7448H41.1328H41.7695V43.5538V42.3629H42.8307H43.8918V43.5538V44.7448H44.5285H45.1652V41.895V39.0453H44.5285H43.8918V40.1512V41.257H42.8307H41.7695V40.1512V39.0453H41.1328H40.4961V41.895Z" fill="#777777"/>
<path d="M46.6953 41.895V44.7448H48.5205H50.3458V44.2344V43.7325L49.1827 43.7069L48.0112 43.6814V43.0009V42.3204L49.0554 42.2948L50.0911 42.2693V41.7674V41.257H49.0299H47.9687V40.6616V40.0661H49.1148H50.2609V39.5557V39.0453H48.4781H46.6953V41.895Z" fill="#777777"/>
<path d="M58.2383 39.5557V40.0576L58.9853 40.0831L59.7239 40.1086L59.7494 42.4224L59.7664 44.7448H60.4031H61.0398V42.4054V40.0661H61.8038H62.5679V39.5557V39.0453H60.4031H58.2383V39.5557Z" fill="#777777"/>
<path d="M63.7578 41.8866V44.7278L64.5049 44.7873C65.7019 44.8724 66.9413 44.6172 67.4337 44.1664C67.9516 43.6985 68.1129 42.6437 67.7648 41.9632C67.4252 41.3166 66.7546 41.0019 65.7019 41.0019H65.0312V40.0236V39.0454H64.3945H63.7578V41.8866ZM65.9905 42.0312C66.6357 42.2098 66.8395 43.052 66.3556 43.5454C66.1688 43.724 66.0415 43.7666 65.5406 43.7921L64.9463 43.8261V42.9414C64.9463 42.448 64.9718 42.0227 65.0058 41.9972C65.0906 41.9121 65.6255 41.9291 65.9905 42.0312Z" fill="#777777"/>
</g>
<defs>
<clipPath id="clip0">
<rect width="68" height="45" fill="white"/>
</clipPath>
</defs>
</svg>
