<svg width="49" height="30" viewBox="0 0 49 30" fill="none" xmlns="http://www.w3.org/2000/svg">
<path d="M5.89916 9.50395C6.62449 9.50395 7.25788 9.32006 7.79932 8.95228C8.35098 8.58451 8.75962 8.08904 9.02524 7.46586H10.2358C9.8987 8.42616 9.34193 9.18214 8.56552 9.7338C7.73803 10.3263 6.7624 10.6226 5.63865 10.6226C4.15734 10.6226 2.95696 10.1169 2.03753 9.10552C1.16917 8.13501 0.734996 6.90909 0.734996 5.42778C0.734996 3.94647 1.16917 2.72056 2.03753 1.75004C2.95696 0.738664 4.15734 0.232974 5.63865 0.232974C6.7624 0.232974 7.73803 0.529237 8.56552 1.12176C9.34193 1.67342 9.8987 2.4294 10.2358 3.3897H9.02524C8.75962 2.76653 8.35098 2.27106 7.79932 1.90328C7.25788 1.53551 6.62449 1.35162 5.89916 1.35162C5.17382 1.35162 4.57108 1.45889 4.09093 1.67342C3.61079 1.87774 3.20726 2.16379 2.88034 2.53156C2.21631 3.27733 1.88429 4.24273 1.88429 5.42778C1.88429 6.61283 2.21631 7.57824 2.88034 8.324C3.57503 9.11063 4.5813 9.50395 5.89916 9.50395ZM15.759 2.71545V3.86474H15.6211C14.7936 3.86474 14.1194 4.19676 13.5983 4.8608C13.108 5.49419 12.8628 6.25017 12.8628 7.12874V10.5H11.7135V2.83804H12.8628V4.72288C13.108 3.92604 13.6392 3.33862 14.4565 2.96063C14.7936 2.79718 15.2023 2.71545 15.6824 2.71545H15.759ZM20.1268 2.71545C21.271 2.71545 22.2007 3.09855 22.9158 3.86474C23.59 4.60029 23.9271 5.53505 23.9271 6.66902C23.9271 7.80299 23.59 8.73775 22.9158 9.4733C22.2007 10.2395 21.271 10.6226 20.1268 10.6226C18.9826 10.6226 18.053 10.2395 17.3379 9.4733C16.6636 8.73775 16.3265 7.80299 16.3265 6.66902C16.3265 5.53505 16.6636 4.60029 17.3379 3.86474C18.053 3.09855 18.9826 2.71545 20.1268 2.71545ZM20.1268 9.58056C20.9543 9.58056 21.6081 9.29452 22.0883 8.72243C22.548 8.18098 22.7779 7.49651 22.7779 6.66902C22.7779 5.84153 22.548 5.15706 22.0883 4.61562C21.6081 4.04352 20.9543 3.75748 20.1268 3.75748C19.2993 3.75748 18.6455 4.04352 18.1654 4.61562C17.7056 5.15706 17.4758 5.84153 17.4758 6.66902C17.4758 7.49651 17.7056 8.18098 18.1654 8.72243C18.6455 9.29452 19.2993 9.58056 20.1268 9.58056ZM28.991 9.58056C29.4814 9.58056 29.9155 9.44265 30.2935 9.16682C30.6715 8.89099 30.9473 8.53343 31.121 8.09414H32.3622C32.1273 8.85012 31.6982 9.45797 31.075 9.91769C30.4212 10.3876 29.6448 10.6226 28.7458 10.6226C27.622 10.6226 26.7077 10.2395 26.0028 9.4733C25.3184 8.72753 24.9761 7.79277 24.9761 6.66902C24.9761 5.54527 25.3184 4.61051 26.0028 3.86474C26.7077 3.09855 27.622 2.71545 28.7458 2.71545C29.6448 2.71545 30.4212 2.95042 31.075 3.42035C31.6982 3.88007 32.1273 4.48792 32.3622 5.2439H31.121C30.9473 4.80461 30.6715 4.44705 30.2935 4.17122C29.9155 3.89539 29.4814 3.75748 28.991 3.75748C28.5006 3.75748 28.0818 3.8341 27.7344 3.98733C27.3973 4.14057 27.1113 4.35 26.8763 4.61562C26.3757 5.16728 26.1254 5.85174 26.1254 6.66902C26.1254 7.4863 26.3757 8.17076 26.8763 8.72243C27.3871 9.29452 28.092 9.58056 28.991 9.58056ZM39.3185 10.5V9.30473C39.0426 9.67251 38.7055 9.98409 38.3071 10.2395C37.9087 10.4949 37.4541 10.6226 36.9433 10.6226C36.4325 10.6226 35.9932 10.5511 35.6254 10.4081C35.2576 10.265 34.9358 10.0505 34.66 9.76445C34.0266 9.14128 33.7099 8.3189 33.7099 7.2973V2.83804H34.8592V7.26665C34.8592 7.97155 35.0584 8.53343 35.4568 8.95228C35.8553 9.37114 36.3712 9.58056 37.0046 9.58056C37.6482 9.58056 38.1947 9.36603 38.6442 8.93696C39.0937 8.49767 39.3185 7.9358 39.3185 7.25133V2.83804H40.4678V10.5H39.3185ZM46.9713 4.89145C46.8692 4.0946 46.2256 3.69618 45.0405 3.69618C43.8657 3.69618 43.2783 4.06395 43.2783 4.7995C43.2783 5.10598 43.4009 5.34095 43.646 5.5044C43.9014 5.65764 44.2181 5.78534 44.5961 5.8875C44.9741 5.98966 45.3828 6.08671 45.822 6.17865C46.2715 6.26038 46.6853 6.38297 47.0633 6.54643C47.4413 6.69967 47.7528 6.9142 47.998 7.19003C48.2534 7.46586 48.3811 7.84385 48.3811 8.324C48.3811 9.06977 48.1002 9.64186 47.5383 10.0403C46.9764 10.4285 46.2154 10.6226 45.2551 10.6226C44.2335 10.6226 43.4213 10.3672 42.8185 9.8564C42.2669 9.40689 41.9706 8.81948 41.9298 8.09414H43.125C43.1965 8.79904 43.595 9.27409 44.3203 9.51927C44.5859 9.601 44.8464 9.64186 45.1018 9.64186C45.3674 9.64186 45.6126 9.62654 45.8374 9.59589C46.0621 9.56524 46.2818 9.50905 46.4963 9.42733C46.9867 9.23322 47.2318 8.9012 47.2318 8.43127C47.2318 8.11458 47.1041 7.8745 46.8487 7.71105C46.6036 7.53738 46.292 7.39946 45.914 7.2973C45.536 7.18493 45.1222 7.08787 44.6727 7.00615C44.2335 6.9142 43.8248 6.79161 43.4468 6.63837C43.0688 6.48513 42.7521 6.27571 42.4967 6.01009C42.2516 5.74448 42.129 5.3767 42.129 4.90677C42.129 4.21209 42.3793 3.67575 42.8798 3.29776C43.3906 2.90955 44.1415 2.71545 45.1325 2.71545C46.0723 2.71545 46.813 2.9402 47.3544 3.3897C47.8039 3.76769 48.0644 4.26827 48.1359 4.89145H46.9713ZM5.1666 17.75C5.59567 17.2801 6.11669 16.9123 6.72964 16.6467C7.3426 16.3709 7.97599 16.233 8.62981 16.233C9.28363 16.233 9.85061 16.3045 10.3308 16.4475C10.8109 16.5905 11.2451 16.7846 11.6333 17.0298C12.4404 17.5508 13.0329 18.2455 13.4109 19.1139H12.1543C11.8478 18.5622 11.4188 18.1331 10.8671 17.8267C10.3257 17.51 9.70759 17.3516 9.01291 17.3516C8.31822 17.3516 7.7257 17.4589 7.23533 17.6734C6.74497 17.8777 6.33122 18.1638 5.99409 18.5316C5.29941 19.2875 4.95207 20.2529 4.95207 21.4278C4.95207 22.6128 5.2943 23.5782 5.97877 24.324C6.7041 25.1106 7.6644 25.5039 8.85967 25.5039C9.81997 25.5039 10.6475 25.2077 11.3421 24.6152C12.0777 23.992 12.4455 23.1696 12.4455 22.148H8.73708V21.106H13.5028V26.5H12.4455V24.7071C11.8632 25.5857 11.0561 26.1731 10.0243 26.4694C9.6463 26.5715 9.14571 26.6226 8.52254 26.6226C7.90958 26.6226 7.29663 26.4898 6.68367 26.2242C6.07071 25.9483 5.5497 25.5755 5.12063 25.1055C4.24206 24.1452 3.80277 22.9193 3.80277 21.4278C3.80277 19.9567 4.25738 18.7308 5.1666 17.75ZM19.3206 18.7154V19.8647H19.1827C18.3552 19.8647 17.681 20.1968 17.16 20.8608C16.6696 21.4942 16.4244 22.2502 16.4244 23.1287V26.5H15.2751V18.838H16.4244V20.7229C16.6696 19.926 17.2008 19.3386 18.0181 18.9606C18.3552 18.7972 18.7639 18.7154 19.244 18.7154H19.3206ZM23.6884 18.7154C24.8326 18.7154 25.7623 19.0985 26.4774 19.8647C27.1516 20.6003 27.4888 21.5351 27.4888 22.669C27.4888 23.803 27.1516 24.7377 26.4774 25.4733C25.7623 26.2395 24.8326 26.6226 23.6884 26.6226C22.5442 26.6226 21.6146 26.2395 20.8995 25.4733C20.2252 24.7377 19.8881 23.803 19.8881 22.669C19.8881 21.5351 20.2252 20.6003 20.8995 19.8647C21.6146 19.0985 22.5442 18.7154 23.6884 18.7154ZM23.6884 25.5806C24.5159 25.5806 25.1697 25.2945 25.6499 24.7224C26.1096 24.181 26.3395 23.4965 26.3395 22.669C26.3395 21.8415 26.1096 21.1571 25.6499 20.6156C25.1697 20.0435 24.5159 19.7575 23.6884 19.7575C22.8609 19.7575 22.2071 20.0435 21.727 20.6156C21.2673 21.1571 21.0374 21.8415 21.0374 22.669C21.0374 23.4965 21.2673 24.181 21.727 24.7224C22.2071 25.2945 22.8609 25.5806 23.6884 25.5806ZM34.5447 26.5V25.3047C34.2689 25.6725 33.9318 25.9841 33.5333 26.2395C33.1349 26.4949 32.6803 26.6226 32.1695 26.6226C31.6587 26.6226 31.2194 26.5511 30.8516 26.4081C30.4839 26.265 30.1621 26.0505 29.8862 25.7645C29.2528 25.1413 28.9362 24.3189 28.9362 23.2973V18.838H30.0854V23.2667C30.0854 23.9716 30.2847 24.5334 30.6831 24.9523C31.0815 25.3711 31.5974 25.5806 32.2308 25.5806C32.8744 25.5806 33.421 25.366 33.8705 24.937C34.32 24.4977 34.5447 23.9358 34.5447 23.2513V18.838H35.694V26.5H34.5447ZM38.8416 20.064C39.4546 19.165 40.3689 18.7154 41.5846 18.7154C42.6879 18.7154 43.5818 19.0985 44.2663 19.8647C44.9508 20.6207 45.293 21.5555 45.293 22.669C45.293 23.7826 44.9508 24.7173 44.2663 25.4733C43.5818 26.2395 42.6624 26.6226 41.508 26.6226C40.3536 26.6226 39.4648 26.168 38.8416 25.2588V29.5341H37.6923V18.838H38.8416V20.064ZM41.4314 19.7575C40.6039 19.7575 39.9501 20.0435 39.4699 20.6156C39.0102 21.1571 38.7803 21.8415 38.7803 22.669C38.7803 23.4965 39.0102 24.181 39.4699 24.7224C39.9501 25.2945 40.6039 25.5806 41.4314 25.5806C42.2486 25.5806 42.9127 25.2945 43.4235 24.7224C43.9036 24.181 44.1437 23.4965 44.1437 22.669C44.1437 21.8415 43.9036 21.1571 43.4235 20.6156C42.9127 20.0435 42.2486 19.7575 41.4314 19.7575Z" fill="#777777"/>
</svg>
