<svg width="55" height="55" viewBox="0 0 55 55" fill="none" xmlns="http://www.w3.org/2000/svg">
<g clip-path="url(#clip0)">
<path fill-rule="evenodd" clip-rule="evenodd" d="M18.4344 32.6894C19.0033 32.6748 20.9872 33.1683 23.3649 34.939C25.7426 36.7096 26.7637 38.3642 26.7637 39.1189C26.1073 39.2495 24.1526 38.64 21.8624 36.8693C19.5576 35.0986 18.3615 33.2264 18.449 32.6894H18.4344ZM36.5518 32.82C35.9975 32.8055 33.999 33.2989 31.6359 35.0696C29.2582 36.8403 28.2225 38.4948 28.2371 39.2495C28.8935 39.3947 30.8482 38.7706 33.1384 36.9999C35.4286 35.2292 36.6393 33.3425 36.5518 32.82ZM12.76 27C13.2851 27.1887 14.9481 28.3643 16.5089 30.8751C18.0697 33.386 18.4198 35.3018 18.1281 35.9985C17.4571 35.8824 15.8671 34.6052 14.3937 32.1233C12.9204 29.6415 12.4828 27.4499 12.76 27ZM42.2408 27.1306C41.7157 27.3193 40.0527 28.4949 38.4773 31.0058C36.9165 33.5311 36.5664 35.4324 36.8581 36.1291C37.5291 36.013 39.1192 34.7358 40.5925 32.2539C42.0658 29.7721 42.4888 27.5805 42.2262 27.1306H42.2408ZM16.1005 41.0057C16.4797 40.5993 18.2156 39.5253 21.1476 39.0463C24.0797 38.5674 25.9906 38.9883 26.5303 39.5253C26.1657 40.0913 24.3714 41.0638 21.4977 41.4701C18.6241 41.8765 16.4214 41.4266 16.1005 41.0057ZM38.9004 41.1363C38.5211 40.7299 36.7852 39.6559 33.8532 39.177C30.9211 38.698 29.0102 39.1189 28.4705 39.6559C28.8351 40.222 30.6294 41.1944 33.5031 41.6008C36.3768 42.0071 38.5648 41.5572 38.8858 41.1363H38.9004ZM11.4179 38.2771C11.841 37.8998 13.679 37.0144 16.6402 36.8403C19.6014 36.6806 21.4686 37.2757 21.9499 37.8707C21.5269 38.3932 19.6452 39.177 16.7423 39.2931C13.8394 39.4092 11.7097 38.727 11.4179 38.2916V38.2771ZM43.5829 38.4077C43.1598 38.0449 41.3364 37.1451 38.3606 36.9709C35.3994 36.8112 33.5468 37.4063 33.0654 38.0014C33.4739 38.5239 35.3702 39.3076 38.2731 39.4237C41.176 39.5398 43.3057 38.8577 43.5829 38.4077ZM6.4291 33.894C6.91048 33.6182 8.89435 33.1393 11.841 33.6037C14.773 34.0827 16.4506 35.0551 16.8006 35.7372C16.2901 36.1726 14.2625 36.521 11.4179 36.013C8.55884 35.505 6.61873 34.3875 6.44369 33.894H6.4291ZM48.5863 34.0246C48.1049 33.7489 46.1065 33.2699 43.1744 33.7343C40.2424 34.2133 38.5648 35.1857 38.2148 35.8679C38.7399 36.3033 40.7529 36.6516 43.612 36.1436C46.4711 35.6356 48.4112 34.5181 48.5863 34.0246ZM6.00607 27.8273C6.57497 27.7837 8.57343 28.1756 11.0387 29.8302C13.5039 31.4847 14.598 33.0812 14.6417 33.8359C13.9853 34.0101 12.0014 33.4876 9.62371 31.8185C7.24599 30.164 5.96231 28.3498 6.00607 27.8273ZM48.9802 27.9579C48.4258 27.9143 46.4128 28.3062 43.9621 29.9608C41.4969 31.6153 40.3883 33.2118 40.3591 33.9666C41.0155 34.1407 42.9994 33.6182 45.3625 31.9492C47.7402 30.2946 49.0239 28.4804 48.9802 27.9579ZM10.3968 20.164C10.7615 20.5124 11.7097 22.0508 12.089 24.6633C12.4682 27.2757 12.089 28.9593 11.593 29.4238C11.097 29.1045 10.251 27.4934 9.91545 24.939C9.57995 22.3846 10.0176 20.4398 10.3968 20.164ZM44.604 20.2947C44.2393 20.6285 43.2911 22.1814 42.9118 24.7939C42.5326 27.4064 42.9264 29.09 43.4078 29.5689C43.9038 29.2351 44.7644 27.6386 45.0854 25.0842C45.4209 22.5298 44.9832 20.5849 44.604 20.3092V20.2947ZM2.50512 22.0363C3.00109 22.0363 4.76615 22.5007 6.85213 24.1263C8.93811 25.7518 9.82793 27.2467 9.81334 27.9143C9.21527 28.0305 7.49397 27.4499 5.46634 25.8244C3.4533 24.1988 2.4176 22.5007 2.50512 22.0363ZM52.5249 22.1669C52.0289 22.1669 50.2638 22.6314 48.1633 24.2569C46.0773 25.8824 45.1875 27.3773 45.2166 28.045C45.8147 28.1611 47.536 27.5805 49.5491 25.955C51.5621 24.3295 52.5978 22.6314 52.5249 22.1669ZM4.05137 16.1147C4.51817 16.3034 5.96231 17.4209 7.26057 19.7141C8.55884 22.0073 8.80682 23.7199 8.51508 24.344C7.93159 24.2279 6.56038 23.0087 5.33505 20.7446C4.10972 18.4659 3.80339 16.5066 4.05137 16.1147ZM50.964 16.2453C50.4972 16.434 49.0531 17.5516 47.7548 19.8447C46.4566 22.1379 46.2086 23.865 46.5003 24.4746C47.0984 24.3585 48.455 23.1539 49.6949 20.8897C50.9203 18.6111 51.2266 16.6517 50.964 16.2599V16.2453ZM12.1181 12.8491C12.264 13.3281 12.3078 15.1423 11.3596 17.5951C10.3968 20.0479 9.21527 21.3251 8.55884 21.4993C8.28168 20.9623 8.34003 19.1481 9.33196 16.7678C10.3093 14.3876 11.6513 12.9072 12.1181 12.8491ZM42.9118 12.9798C42.766 13.4587 42.7076 15.2729 43.6704 17.7257C44.6331 20.1785 45.8147 21.4558 46.4566 21.6299C46.7337 21.1074 46.6754 19.2787 45.698 16.8985C44.7207 14.5182 43.3786 13.0378 42.9118 12.9798ZM4.18266 10.077C4.62028 10.3092 5.93313 11.5719 6.96883 13.9957C8.00452 16.4195 8.06287 18.1611 7.69819 18.7272C7.12929 18.5385 5.88937 17.2032 4.92661 14.8085C3.94926 12.4137 3.87633 10.4253 4.16807 10.0625L4.18266 10.077ZM50.8473 10.2076C50.4097 10.4544 49.0969 11.7171 48.0612 14.1409C47.0255 16.5646 46.9671 18.3063 47.3172 18.8723C47.8861 18.6836 49.126 17.3484 50.0888 14.9536C51.0661 12.5589 51.1391 10.5705 50.8473 10.2076ZM8.66095 5.57777C8.9527 5.96964 9.62371 7.66775 9.55077 10.2947C9.47784 12.9362 8.79224 14.5182 8.23792 14.9101C7.8003 14.5037 7.24599 12.7766 7.36268 10.1931C7.47938 7.62421 8.23792 5.78097 8.67554 5.57777H8.66095ZM46.3836 5.7084C46.0773 6.10027 45.4209 7.79837 45.4938 10.4253C45.5667 13.0668 46.2377 14.6488 46.8066 15.0407C47.2443 14.6343 47.7986 12.8927 47.6819 10.3238C47.5652 7.75483 46.8066 5.91159 46.3836 5.7084ZM16.6256 6.81144C16.5818 7.3049 15.9254 9.00301 14.0874 10.9043C12.2494 12.8056 10.674 13.5313 9.98839 13.4442C9.94463 12.8346 10.7032 11.1946 12.5266 9.36585C14.35 7.53712 16.1588 6.69533 16.611 6.81144H16.6256ZM38.2002 6.81144C38.2439 7.3049 38.9004 9.00301 40.7383 10.9043C42.5763 12.8056 44.1518 13.5313 44.8228 13.4442C44.8665 12.8346 44.108 11.1946 42.2846 9.36585C40.4612 7.53712 38.6378 6.69533 38.1856 6.81144H38.2002ZM12.0452 1.31075C12.2932 1.74616 12.7454 3.50232 12.3369 6.11478C11.9285 8.72725 11.0533 10.2222 10.4552 10.5269C10.0613 10.0625 9.72582 8.27732 10.178 5.73743C10.6156 3.19753 11.6076 1.4704 12.0452 1.31075ZM42.9994 1.44137C42.7514 1.87678 42.3138 3.63294 42.7222 6.2454C43.1307 8.84336 44.0059 10.3528 44.604 10.6576C44.9832 10.1931 45.3187 8.40794 44.8811 5.86805C44.4289 3.32815 43.4516 1.60102 42.9994 1.44137ZM18.1427 0.614092C18.1718 1.10756 17.778 2.89274 16.2463 5.04077C14.7147 7.20331 13.2705 8.1467 12.5849 8.16121C12.4536 7.58066 12.9496 5.82451 14.4813 3.74905C16.0129 1.67359 17.6759 0.556037 18.1427 0.614092ZM36.8873 0.744715C36.8581 1.23818 37.252 3.00885 38.7837 5.17139C40.3153 7.33393 41.774 8.27732 42.4451 8.29183C42.5909 7.71129 42.0804 5.95513 40.5487 3.87967C39.0171 1.80421 37.3687 0.68666 36.8873 0.744715ZM22.9273 43.0957L27.1722 39.6704L27.4056 39.8736L23.7879 43.8504L22.9419 43.1102L22.9273 43.0957ZM30.9357 44.0826L27.4931 39.8736L27.6827 39.6414L31.6797 43.2408L30.9357 44.0826ZM15.2836 49.264V49.4817C15.2252 49.4817 15.1669 49.4672 15.1085 49.4672C14.773 49.4672 14.7584 49.5397 14.7293 49.7139V51.2524C14.9481 51.2524 15.1377 51.2379 15.2836 51.2088V52.0361L14.8897 51.441H14.7293V52.6166C14.7293 53.0956 14.8605 53.1101 15.269 53.1682V53.3133H13.2268V53.1682C13.6352 53.1246 13.7519 53.1101 13.7519 52.6166V49.9606C13.7519 49.4527 13.5623 49.4382 13.2268 49.4091V49.264H15.2836ZM46.7775 53.3278H44.6915V53.1827C45.0999 53.1391 45.2458 53.1246 45.2458 52.6312V51.7458L44.1372 49.7575C44.108 49.6994 43.9767 49.4672 43.6996 49.4236V49.264H45.6834V49.4091C45.275 49.4091 45.202 49.4527 45.202 49.6123C45.202 49.6994 45.3042 49.8591 45.3479 49.9461L46.0773 51.3394L46.7483 50.2364C46.7921 50.1638 46.9963 49.8445 46.9963 49.6704C46.9963 49.4382 46.7629 49.4236 46.4857 49.4091V49.264H47.8132V49.4091C47.6965 49.4236 47.5214 49.4527 47.4047 49.6559L46.2523 51.5281V52.6312C46.2523 53.1246 46.3836 53.1391 46.8066 53.1827V53.3278H46.7775ZM43.7433 53.3278H43.6996V53.1827C43.6412 53.1827 43.5683 53.1682 43.4953 53.0666L42.2846 51.354C42.6055 51.2524 43.2328 51.0637 43.2328 50.3235C43.2328 49.3946 42.1533 49.2785 41.6428 49.264V49.4817C42.0074 49.5397 42.1971 49.8155 42.1971 50.338C42.1971 50.904 42.0366 51.1217 41.6428 51.2088V52.0361L42.5034 53.3278H43.6996V53.1827H43.7433V53.3278ZM41.6136 53.3278H39.5714V53.1827C39.9798 53.1391 40.1111 53.1246 40.1111 52.6312V49.9752C40.1111 49.4672 39.9215 49.4527 39.5714 49.4236V49.2785H41.6282V49.4962C41.5698 49.4962 41.5115 49.4817 41.4531 49.4817C41.1176 49.4817 41.103 49.5543 41.0884 49.7284V51.2669C41.3073 51.2669 41.4969 51.2524 41.6428 51.2233V52.0506L41.2635 51.4556H41.103V52.6312C41.103 53.1101 41.2343 53.1246 41.6282 53.1827V53.3278H41.6136ZM39.3671 53.3278H38.1272L37.2666 52.0361V51.2088C37.6604 51.1217 37.8209 50.8895 37.8209 50.338C37.8209 49.8155 37.6313 49.5397 37.2666 49.4817V49.264C37.7625 49.2785 38.8566 49.3801 38.8566 50.3235C38.8566 51.0637 38.2293 51.2524 37.9084 51.354L39.1192 53.0666C39.2067 53.1682 39.2942 53.1827 39.3671 53.1827V53.3278ZM37.252 53.3278H35.2098V53.1827C35.6182 53.1391 35.7495 53.1246 35.7495 52.6312V49.9752C35.7495 49.4672 35.5599 49.4527 35.2098 49.4236V49.2785H37.2666V49.4962C37.2082 49.4962 37.1499 49.4817 37.0915 49.4817C36.756 49.4817 36.7414 49.5543 36.7268 49.7284V51.2669C36.9457 51.2669 37.1207 51.2524 37.2812 51.2233V52.0506L36.9019 51.4556H36.7414V52.6312C36.7414 53.1101 36.8727 53.1246 37.2666 53.1827V53.3278H37.252ZM34.6555 53.3278H31.1253V53.1827C31.4754 53.1537 31.6505 53.1246 31.6505 52.7618V49.8591C31.6505 49.4672 31.4025 49.4527 31.1253 49.4236V49.2785H34.6117V50.4831H34.4658C34.3345 49.6268 33.8969 49.4817 33.08 49.4817C32.7445 49.4817 32.6424 49.5107 32.6424 49.772V51.1653H32.6716C33.2259 51.1653 33.5177 51.0056 33.6198 50.2799H33.7802V52.3119H33.6198C33.5468 51.5717 33.2405 51.383 32.6424 51.383V52.8344C32.6424 53.0956 32.7591 53.1682 33.153 53.1682C33.751 53.1682 34.3637 53.0085 34.743 52.1087H34.918L34.67 53.3568L34.6555 53.3278ZM29.4478 53.3278H29.4186V53.1827C29.0248 53.1246 28.9227 53.1101 28.9227 52.6312V51.5136H29.4186V51.2669C29.3019 51.2959 29.1561 51.3104 28.981 51.3104H28.9081V49.6994C28.9081 49.5688 28.9956 49.4817 29.1998 49.4817C29.2728 49.4817 29.3457 49.4817 29.4186 49.4962V49.264H27.4348V49.4091C27.7557 49.4382 27.9453 49.4527 27.9453 49.9606V52.6166C27.9453 52.965 27.8578 53.0375 27.7849 53.0956C27.7411 53.1246 27.7265 53.1246 27.4348 53.1827V53.3278H29.4186V53.1827H29.4478V53.3278ZM23.5254 53.3278H21.5561V53.1827C21.9354 53.1827 22.0521 53.0085 22.0521 52.7908V49.83C22.0521 49.4672 21.7895 49.4527 21.5561 49.4236V49.2785H23.3941C23.54 49.2785 23.6858 49.293 23.8025 49.3075V49.5688C23.6858 49.5107 23.5545 49.4817 23.4087 49.4817C23.0732 49.4817 23.044 49.5978 23.044 49.7284V52.7908C23.044 53.0375 23.0878 53.1391 23.3941 53.1391C23.54 53.1391 23.6858 53.1246 23.8171 53.0666V53.3133C23.7296 53.3278 23.6421 53.3423 23.54 53.3423L23.5254 53.3278ZM21.0747 53.3278H17.5446V53.1827C17.8947 53.1537 18.0697 53.1246 18.0697 52.7618V49.8591C18.0697 49.4672 17.8218 49.4527 17.5446 49.4236V49.2785H21.031V50.4831H20.8851C20.7538 49.6268 20.3162 49.4817 19.4993 49.4817C19.1638 49.4817 19.0617 49.5107 19.0617 49.772V51.1653H19.0908C19.6597 51.1653 19.9515 51.0056 20.039 50.2799H20.1995V52.3119H20.039C19.9661 51.5717 19.6597 51.383 19.0617 51.383V52.8344C19.0617 53.0956 19.1784 53.1682 19.5722 53.1682C20.1703 53.1682 20.783 53.0085 21.1622 52.1087H21.3227L21.0893 53.3568L21.0747 53.3278ZM17.3987 53.3278H16.1588L15.2982 52.0361V51.2088C15.6774 51.1217 15.8525 50.8895 15.8525 50.338C15.8525 49.8155 15.6628 49.5397 15.2982 49.4817V49.264C15.7941 49.2785 16.8736 49.3801 16.8736 50.3235C16.8736 51.0637 16.2609 51.2524 15.9254 51.354L17.1362 53.0666C17.2237 53.1682 17.3112 53.1827 17.3841 53.1827V53.3278H17.3987ZM11.6659 53.3278H9.47784V53.1827C9.82793 53.1537 10.0176 53.1246 10.0176 52.7618V49.8591C10.0176 49.4672 9.76958 49.4527 9.47784 49.4236V49.2785H12.9058V50.4831H12.76C12.6287 49.8591 12.4682 49.4817 11.4179 49.4817C11.097 49.4817 10.9803 49.5107 10.9803 49.772V51.1653H11.0095C11.7389 51.1653 11.8264 50.7444 11.8993 50.2799H12.0452V52.3119H11.8993C11.841 51.8184 11.7389 51.383 10.9803 51.383V52.7908C10.9803 53.1827 11.2283 53.1972 11.6513 53.2117V53.3568L11.6659 53.3278ZM23.8171 53.2988V53.0521C24.2839 52.8924 24.5902 52.4135 24.5902 51.2959C24.5902 50.8315 24.4881 49.83 23.8171 49.5543V49.293C25.1883 49.4527 25.6405 50.3961 25.6405 51.2379C25.6405 52.2538 25.0862 53.1246 23.8171 53.2988ZM29.4332 51.4991V51.2524C29.7979 51.1653 29.9292 50.9331 29.9292 50.3961C29.9292 49.8155 29.7687 49.5543 29.4332 49.4962V49.264C29.9292 49.264 30.9795 49.3801 30.9795 50.367C30.9795 50.5847 30.9065 51.0056 30.4251 51.2814C30.1334 51.441 29.8854 51.4846 29.4332 51.4991ZM43.7141 49.264V49.4236H43.6704V49.2785H43.7141V49.264Z" fill="#777777"/>
</g>
<defs>
<clipPath id="clip0">
<rect width="55" height="55" fill="white"/>
</clipPath>
</defs>
</svg>
