<svg width="63" height="45" viewBox="0 0 63 45" fill="none" xmlns="http://www.w3.org/2000/svg">
<g clip-path="url(#clip0)">
<path fill-rule="evenodd" clip-rule="evenodd" d="M0 -9.5H63V53.5H0V-9.5Z" fill="white"/>
<path fill-rule="evenodd" clip-rule="evenodd" d="M27.2669 9.13599C36.5057 9.18207 46.803 15.693 46.7984 19.1117C46.7919 24.0856 41.1157 24.399 28.169 23.8238C16.931 23.3247 14.8294 24.5931 14.7758 28.1089C14.7268 31.3283 22.5451 34.7669 32.8928 34.6202C30.0751 35.3804 27.1385 35.6046 24.1718 34.949C19.0584 33.8198 13.3325 30.3566 13.2897 27.5497C13.1985 21.6045 23.085 20.9858 28.2867 21.1767C34.6074 21.4088 44.1131 21.7248 44.273 18.6535C44.4988 14.2964 32.9637 10.2087 27.3454 10.2237L27.2669 9.13599Z" fill="#777777"/>
<path fill-rule="evenodd" clip-rule="evenodd" d="M19.0301 2.63508C20.4976 1.52547 23.3993 0.52665 27.6436 0.517172C37.0915 0.495927 41.7911 4.60265 41.9813 7.38797C42.2183 10.8466 38.0103 12.0372 27.9531 11.4689C17.5983 10.8838 11.0363 11.4692 10.9847 14.4137C10.9278 17.668 23.8771 25.5206 33.3169 25.5206C39.8115 25.5206 43.4273 24.2891 45.3805 23.3266C45.0616 24.2493 44.6613 25.1418 44.1842 25.9936C41.5339 26.4959 37.9661 27.0617 33.2652 26.8636C25.5336 26.5381 9.69531 19.7346 9.69531 14.4137C9.69531 9.09275 22.2799 8.4211 27.7985 8.4211C33.3172 8.4211 40.0736 9.60916 39.7638 6.35483C39.4542 3.10017 33.4205 2.01507 29.7583 1.70523C26.096 1.39539 22.0217 1.96376 19.0301 2.63508Z" fill="#777777"/>
<path fill-rule="evenodd" clip-rule="evenodd" d="M13.3584 7.1756C14.3147 6.07971 14.9543 5.39858 16.2551 4.4295C17.706 3.78073 21.6499 2.70314 27.9654 2.73354C37.6225 2.77962 44.6528 7.54264 44.7044 10.7515C44.7721 14.8864 39.5796 16.2708 28.0301 15.6734C17.2134 15.1138 11.4797 15.8133 11.4261 18.9104C11.3666 22.333 23.2877 29.3607 33.1432 29.1244C37.9284 29.0094 41.002 28.3789 43.1219 27.6612C42.5188 28.4949 41.8438 29.2741 41.1046 29.9899C38.8602 30.3664 36.2243 30.6615 33.2988 30.537C25.2236 30.1941 9.73047 23.9473 9.73047 18.3508C9.73047 12.7541 22.4575 12.9753 28.2174 13.1665C34.5391 13.3764 42.2358 13.2293 42.2492 10.1541C42.2665 6.21633 31.9878 4.01573 27.7644 4.03109C21.0276 4.0556 17.5932 5.26915 13.3584 7.1756Z" fill="#777777"/>
<path fill-rule="evenodd" clip-rule="evenodd" d="M10.9323 11.0483C11.3529 10.1939 11.6536 9.58437 12.2047 8.75813C16.0287 6.92064 20.6734 6.05746 26.9882 6.08884C36.2266 6.1346 46.1753 11.4572 46.1707 14.8759C46.1638 19.8497 41.0465 20.2331 28.0998 19.6579C16.8618 19.1584 12.5966 20.3573 12.543 23.8734C12.4907 27.2964 23.2878 32.2964 33.1432 32.0604C35.6181 32.0009 37.6353 31.8038 39.2996 31.5273C38.2884 32.2823 37.2039 32.9339 36.0626 33.4723C35.1745 33.5093 34.2522 33.5132 33.2991 33.473C25.224 33.1301 10.8477 28.9107 10.8477 23.3142C10.8477 17.368 22.5279 16.9601 28.2877 17.151C34.6091 17.3608 43.6325 17.4939 43.6459 14.4183C43.6632 10.4809 32.686 7.16152 27.067 7.17688C20.3296 7.19551 14.8178 9.00195 10.9323 11.0483Z" fill="#777777"/>
<path fill-rule="evenodd" clip-rule="evenodd" d="M0.925781 43.1543V21.9729H4.20299V23.9548H2.44787V43.1533L0.925781 43.1543ZM6.18297 21.9768L4.96419 43.2301H6.48791L6.79285 37.668H8.0904L8.39305 43.2301H9.76675L8.39272 21.9729L6.18297 21.9768ZM7.2501 23.9535L6.869 35.7632H7.85932L7.2501 23.9535ZM47.6675 22.0572L46.3723 43.3105H47.896L48.2006 37.7484H49.4985L49.8011 43.3105H51.1748L49.8011 22.0533L47.6675 22.0572ZM48.6575 24.0343L48.2764 35.8446H49.2671L48.6575 24.0343ZM52.4315 21.9729H53.9572V31.192H54.8809V21.9729H56.3173V43.3988H54.8675V32.9445H54.0657V43.3854H52.4136L52.4315 21.9729ZM57.841 21.9729V43.3828H59.3667V34.8225L60.3554 40.3347L60.6875 43.404H62.0733L61.4222 37.8968L60.224 33.457V31.0286L61.3526 25.5541L61.8033 21.9729H60.4316L59.4416 28.4139V21.9863L57.841 21.9729ZM32.6196 43.4413V36.8816C33.4501 36.8542 34.225 36.7162 34.9444 36.4665L36.2315 41.7388C36.7646 39.5803 37.1653 37.4216 37.4771 35.2634C38.3619 34.7745 39.2085 34.2193 40.0094 33.6025V43.4416H38.3899L38.3491 37.1313L37.8921 37.3389V39.3734L37.0208 43.4416H35.4837C34.8199 41.8087 34.9866 39.8853 34.2388 38.4184L34.1972 43.4831L32.6196 43.4413ZM27.8873 37.6291C27.5353 37.6291 27.1402 38.0242 27.1402 38.3766V42.5693C27.1402 43.0098 27.6543 43.4213 28.0949 43.4213H30.0062C30.4366 43.4213 30.9593 43.0409 30.9593 42.6108V38.2501C30.9593 37.8932 30.4442 37.6291 30.0876 37.6291H27.8873ZM28.593 38.7086C28.593 38.4174 29.4656 38.4174 29.4656 38.7086V42.7353C29.4656 43.0272 28.5916 43.0272 28.5916 42.7353L28.593 38.7086ZM16.3048 43.4001V33.5191C17.5713 34.4741 18.8718 35.2912 20.2488 35.8031V43.4001H18.7957V36.3008L17.841 35.8031V43.4001H16.3048ZM21.9925 43.4063H23.4044V41.0302C24.161 41.1286 25.1138 41.2122 25.4533 40.9351C25.7642 40.6811 25.9394 40.2745 25.9384 39.8709L25.9361 38.9727C25.9345 38.2439 25.5096 37.4337 24.815 37.2555C23.4446 36.9038 23.239 36.6447 21.9921 36.5911V43.4063H21.9925ZM23.2681 37.6968V40.5419L23.9103 40.5572C24.0421 40.5599 24.1398 40.3677 24.1398 40.2363V37.9726C24.1398 37.8193 23.9254 37.6968 23.7727 37.6968H23.2681ZM41.3808 32.4386C42.7365 31.1659 43.9482 29.7481 44.994 28.2106L45.0303 30.0899C44.4819 30.9024 43.8073 31.8666 42.9702 32.5827V35.5478L44.3796 34.5339C45.0306 34.0659 45.4271 34.6591 45.4271 35.4014V41.2557C45.4271 42.4003 44.9094 43.423 44.054 43.423H41.3805V32.4386H41.3808ZM43.0068 37.3529L43.4039 37.1003C43.5788 36.9891 43.9102 37.2549 43.9102 37.4614V41.5809C43.9102 41.7884 43.7824 42.1522 43.5795 42.195C43.3115 42.2519 43.0068 42.1267 43.0068 41.9326V37.3529ZM10.9911 32.3667V28.8244C10.9911 28.4204 11.4036 28.3469 11.5382 28.5084L14.3879 31.9326C14.6755 32.2788 14.7484 32.7841 14.7491 33.2335L14.7546 36.3773C14.755 36.5829 14.5494 36.8074 14.3154 36.8107C14.063 36.8146 13.8169 36.7009 13.5676 36.646L13.5751 36.8689C13.7735 37.0061 14.0202 37.0918 14.1706 37.2807C14.4533 37.6356 14.7125 38.0115 14.7125 38.4374V42.6653C14.7125 43.0412 14.2212 43.3805 13.8454 43.388L12.0749 43.4236C11.4487 43.4364 10.9185 42.5689 10.9185 41.9421V37.7141C11.4369 38.1615 11.9719 38.4978 12.5449 38.592V41.6894C12.5449 42.3251 13.4126 42.3048 13.412 41.6894L13.4074 38.089C13.4071 37.6657 13.0407 37.0829 12.6893 36.8473C12.4357 36.6773 12.1804 36.5146 11.7758 36.3891L11.786 35.0039C12.1834 35.5311 12.5952 35.8678 12.9783 35.7995C13.1603 35.7674 13.2672 35.6194 13.2672 35.4746V32.4736C13.2672 32.2752 13.2505 32.0483 13.1227 31.897C12.8848 31.6156 12.4723 31.5574 12.4723 31.9692V33.8842C12.0281 33.3323 11.5321 32.8241 10.9911 32.3667Z" fill="#777777"/>
</g>
<defs>
<clipPath id="clip0">
<rect width="63" height="45" fill="white"/>
</clipPath>
</defs>
</svg>
