<svg width="81" height="21" viewBox="0 0 81 21" fill="none" xmlns="http://www.w3.org/2000/svg">
<g clip-path="url(#clip0)">
<path d="M20.6648 0.130493H0.332031V21.0001H20.6648V0.130493Z" fill="#777777"/>
<path d="M18.4217 4.09567L16.1285 7.87828C15.8737 8.29567 15.9247 8.6348 16.0266 8.94784L19.4919 18.0261H5.14678C3.84731 18.0261 2.8536 16.9565 2.8536 15.7044L2.82812 3.60002C2.8536 2.0348 5.09582 2.00871 5.1213 3.60002V14.9218C5.1213 15.287 5.42706 15.6783 5.83473 15.6783H16.3579L13.6315 9.13045C13.5551 8.86958 13.5041 8.6348 13.5041 8.37393C13.5041 8.08698 13.6315 7.6435 13.8099 7.27828L16.3069 3.05219C16.4853 2.66089 16.8674 2.4261 17.3006 2.40002C17.9121 2.37393 18.4472 2.81741 18.4727 3.49567C18.4981 3.65219 18.4727 3.96524 18.4217 4.09567Z" fill="white"/>
<path d="M10.4998 11.7391V3.6261C10.4998 2.03479 12.742 2.03479 12.7675 3.6261V11.8174C12.7675 13.6957 11.3916 14.9217 9.70991 14.9217C8.02825 14.9217 6.65234 13.6435 6.65234 11.8174V3.6261C6.65234 2.03479 8.92004 2.03479 8.92004 3.6261V11.7391C8.94552 12.8087 10.4998 12.887 10.4998 11.7391Z" fill="white"/>
<path d="M32.1337 2.45215V11.6608H29.6112V4.66954H27.8022V8.29563C27.8022 9.62606 27.6748 11.7913 24.5408 11.7913C24.1586 11.7913 23.8783 11.7913 23.4961 11.6608V9.44345C23.6999 9.49563 23.8783 9.5478 24.0566 9.5478C25.1523 9.5478 25.3052 8.84345 25.3052 7.5391V2.45215H32.1337Z" fill="#777777"/>
<path d="M36.1041 2.47827L37.8622 6.33914L39.289 2.47827H42.0154L37.9896 11.6609H35.2887L36.5118 9.13045L33.1484 2.47827H36.1041Z" fill="#777777"/>
<path d="M43.2148 2.47827H45.7373V6.33914L48.4382 2.47827H51.3938L47.9795 6.91305L51.4703 11.6609H48.3363L45.7373 7.72175V11.6609H43.2148V2.47827Z" fill="#777777"/>
<path d="M65.5612 2.50435V7.98261L69.0265 2.50435H71.4725V11.6609H69.0519V6.18261L65.5867 11.6609H63.1406V2.50435H65.5612ZM69.9947 0.547826C69.5106 1.61739 68.364 2.0087 67.3193 2.0087C66.2492 2.0087 65.128 1.61739 64.6439 0.547826L66.0708 0C66.3001 0.626087 66.8607 0.782609 67.3193 0.782609C67.7779 0.782609 68.3385 0.626087 68.5678 0L69.9947 0.547826Z" fill="#777777"/>
<path d="M80.9987 2.50439V11.6609H78.5017V4.6957H76.7181V8.2957C76.7181 9.62613 76.5907 11.7653 73.4822 11.7653C73.1 11.7653 72.8197 11.7653 72.4375 11.6348V9.44352C72.6413 9.4957 72.8197 9.54787 72.9981 9.54787C74.0937 9.54787 74.2466 8.84352 74.2466 7.53918V2.50439H80.9987Z" fill="#777777"/>
<path d="M52.0547 7.09568C52.0547 4.59133 53.6344 2.13916 56.9723 2.13916C60.3356 2.13916 61.8899 4.59133 61.8899 7.09568C61.8899 9.60003 60.3101 12.0522 56.9723 12.0522C53.6344 12.0522 52.0547 9.60003 52.0547 7.09568ZM59.2654 7.09568C59.2654 5.29568 58.1698 4.38264 56.9978 4.38264C55.8002 4.38264 54.7046 5.26959 54.7046 7.09568C54.7046 8.89568 55.8002 9.80872 56.9978 9.80872C58.1698 9.78264 59.2654 8.89568 59.2654 7.09568Z" fill="#777777"/>
<path d="M24.1288 15.8349H25.6066V14.4523H26.1417V18.0001H25.6066V16.3305H24.1288V18.0001H23.5938V14.4523H24.1288V15.8349Z" fill="#777777"/>
<path d="M29.0711 14.9478H27.6952V15.8087H29.0457V16.3043H27.6952V17.4782H29.0711V18H27.1602V14.4521H29.0711V14.9478Z" fill="#777777"/>
<path d="M31.4412 17.4783H31.3647C30.2691 17.4783 29.8359 16.8522 29.8359 16.0957C29.8359 14.7391 31.1609 14.713 31.3647 14.713H31.4412V14.2957H31.9762V14.713H32.0527C32.282 14.713 33.5814 14.7391 33.5814 16.0957C33.5814 16.8522 33.1228 17.4783 32.0527 17.4783H31.9762V18H31.4412V17.4783ZM31.4412 15.2348H31.3392C30.6513 15.2348 30.3455 15.6261 30.3455 16.0957C30.3455 16.5913 30.6513 16.9826 31.3392 16.9826H31.4412V15.2348ZM31.9762 16.9826H32.0781C32.7661 16.9826 33.0719 16.5913 33.0719 16.0957C33.0719 15.6261 32.7661 15.2348 32.0781 15.2348H31.9762V16.9826Z" fill="#777777"/>
<path d="M35.4695 14.9479V18.0001H34.9344V14.9479H34.1445V14.4523H36.2593V14.9479H35.4695Z" fill="#777777"/>
<path d="M37.6853 16.5131C37.5069 16.4871 37.3031 16.4088 37.1502 16.2784C36.8954 16.0697 36.8445 15.7827 36.8445 15.5218C36.8445 15.2088 36.9464 14.974 37.0993 14.7914C37.405 14.4523 37.7872 14.4523 38.042 14.4523H38.9083V18.0001H38.3732V16.5914H38.2459L37.3031 18.0001H36.6406L37.6853 16.5131ZM38.1185 14.9479C37.8891 14.9479 37.6598 14.974 37.5324 15.1044C37.4305 15.2088 37.3795 15.3914 37.3795 15.5218C37.3795 15.7044 37.456 15.861 37.5579 15.9392C37.6343 15.9914 37.7617 16.0697 38.093 16.0697H38.3732V14.9479H38.1185Z" fill="#777777"/>
<path d="M40.4862 15.8349H41.964V14.4523H42.4991V18.0001H41.964V16.3305H40.4862V18.0001H39.9766V14.4523H40.4862V15.8349Z" fill="#777777"/>
<path d="M45.6101 17.1391H44.1323L43.7501 17.9999H43.1641L44.8967 14.2434L46.5274 17.9999H45.9413L45.6101 17.1391ZM45.3808 16.6173L44.8712 15.4173L44.3361 16.6173H45.3808Z" fill="#777777"/>
<path d="M47.9293 16.513C47.751 16.4869 47.5471 16.4087 47.3943 16.2782C47.1395 16.0695 47.0885 15.7826 47.0885 15.5217C47.0885 15.2087 47.1904 14.9739 47.3688 14.7913C47.6745 14.4521 48.0567 14.4521 48.3115 14.4521H49.1778V18H48.6428V16.5913H48.5154L47.5726 18H46.9102L47.9293 16.513ZM48.3625 14.9478C48.1332 14.9478 47.9039 14.9739 47.7765 15.1043C47.6745 15.2087 47.6236 15.3913 47.6236 15.5217C47.6236 15.7043 47.7 15.8608 47.8019 15.9391C47.8784 15.9913 48.0058 16.0695 48.337 16.0695H48.6173V14.9478H48.3625Z" fill="#777777"/>
<path d="M52.871 15.861L54.2214 14.4523H54.9094L53.3551 16.0436L54.9094 18.0001H54.2214L52.871 16.2784V18.0001H52.3359V14.4523H52.871V15.861Z" fill="#777777"/>
<path d="M58.9111 16.2261C58.9111 17.2696 58.1467 18.0782 57.102 18.0782C56.0574 18.0782 55.293 17.2696 55.293 16.2261C55.293 15.1826 56.0574 14.3739 57.102 14.3739C58.1467 14.3739 58.9111 15.1826 58.9111 16.2261ZM58.3505 16.2261C58.3505 15.4435 57.8409 14.8956 57.102 14.8956C56.3631 14.8956 55.8535 15.4435 55.8535 16.2261C55.8535 17.0087 56.3631 17.5565 57.102 17.5565C57.8409 17.5565 58.3505 17.0087 58.3505 16.2261Z" fill="#777777"/>
<path d="M59.5469 17.9999L60.2603 14.1652L61.4833 16.9304L62.6809 14.1652L63.3433 17.9999H62.8083L62.4515 15.8608L61.4324 18.1565L60.4387 15.8347L60.0819 17.9999H59.5469Z" fill="#777777"/>
<path d="M66.8331 14.4523V18.0001H66.2981V14.9479H64.8202V18.0001H64.2852V14.4523H66.8331Z" fill="#777777"/>
<path d="M69.9187 17.1391H68.4409L68.0587 17.9999H67.4727L69.2053 14.2434L70.836 17.9999H70.2499L69.9187 17.1391ZM69.7149 16.6173L69.2053 15.4173L68.6702 16.6173H69.7149Z" fill="#777777"/>
<path d="M72.0585 15.8349H73.5363V14.4523H74.0714V18.0001H73.5363V16.3305H72.0585V18.0001H71.5234V14.4523H72.0585V15.8349Z" fill="#777777"/>
<path d="M77.434 15.6L75.0898 18.1304V14.4522H75.6249V16.8261L77.969 14.2957V18H77.434V15.6Z" fill="#777777"/>
<path d="M79.7536 16.513C79.5752 16.4869 79.3714 16.4087 79.2185 16.2782C78.9637 16.0695 78.9127 15.7826 78.9127 15.5217C78.9127 15.2087 79.0146 14.9739 79.193 14.7913C79.4988 14.4521 79.881 14.4521 80.1358 14.4521H81.0021V18H80.467V16.5913H80.3396L79.3969 18H78.7344L79.7536 16.513ZM80.1867 14.9478C79.9574 14.9478 79.7281 14.9739 79.6007 15.1043C79.5242 15.2087 79.4478 15.3913 79.4478 15.5217C79.4478 15.7043 79.5242 15.8608 79.6262 15.9391C79.7026 15.9913 79.83 16.0695 80.1612 16.0695H80.4415V14.9478H80.1867Z" fill="#777777"/>
</g>
<defs>
<clipPath id="clip0">
<rect width="81" height="21" fill="white"/>
</clipPath>
</defs>
</svg>
