<svg width="20" height="20" viewBox="0 0 20 20" fill="none" xmlns="http://www.w3.org/2000/svg">
<path fill-rule="evenodd" clip-rule="evenodd" d="M16.3774 3.62842C14.6853 1.93435 12.435 1.00099 10.0376 1C5.09762 1 1.07716 5.02035 1.07518 9.96169C1.07451 11.5413 1.48716 13.0832 2.27149 14.4424L1 19.0865L5.75114 17.8402C7.06027 18.5543 8.53411 18.9307 10.034 18.9311H10.0378C14.9772 18.9311 18.9981 14.9104 19 9.96887C19.001 7.57404 18.0696 5.32238 16.3774 3.62842Z" stroke="white" stroke-width="0.999023"/>
<path d="M12.5922 11.1099C12.7975 11.1847 13.8986 11.7263 14.1224 11.8384C14.3463 11.9506 14.4957 12.0066 14.5515 12.1C14.6076 12.1935 14.6076 12.6418 14.421 13.1649C14.2343 13.6879 13.3398 14.1654 12.9095 14.2297C12.5235 14.2874 12.0355 14.3114 11.499 14.141C11.1737 14.0378 10.7566 13.9001 10.2223 13.6692C7.97595 12.6993 6.50873 10.4374 6.39679 10.2879L6.39479 10.2852C6.27563 10.1261 5.48242 9.06722 5.48242 7.97132C5.48242 6.86906 6.06087 6.32737 6.26609 6.10316C6.47142 5.87884 6.71406 5.82288 6.86331 5.82288C7.01267 5.82288 7.16203 5.8242 7.29251 5.83071C7.43006 5.83756 7.61452 5.77861 7.79645 6.2151C7.98301 6.66362 8.43087 7.76588 8.48673 7.87792C8.54281 7.98997 8.58023 8.12079 8.50549 8.27026C8.43087 8.41962 8.18812 8.73523 7.9457 9.03626C7.84635 9.15946 7.71697 9.26897 7.84745 9.49328C7.97815 9.71738 8.42756 10.4507 9.09322 11.0445C9.94864 11.8074 10.6702 12.044 10.8941 12.156C11.1181 12.2682 11.2486 12.2494 11.3793 12.1C11.51 11.9506 11.9391 11.4461 12.0885 11.222C12.2376 10.9979 12.3871 11.0351 12.5922 11.1099Z" stroke="white" stroke-width="0.999023"/>
</svg>
