<svg width="193" height="69" viewBox="0 0 193 69" fill="none" xmlns="http://www.w3.org/2000/svg">
<path d="M31.5554 41.0178V18.068L22.4148 41.0178H31.5554ZM32.9526 16.2728H32.7198V52.6983H42.4251C43.6857 52.6983 44.9446 52.6073 46.1919 52.4261L47.3563 52.2292C56.1301 50.4919 61.3292 43.8554 61.3292 34.5087C61.3292 23.5057 54.139 16.267 42.3727 16.267L32.9526 16.2728ZM95.7897 0H0V69H193V0H95.7897ZM58.0223 53.2774L57.5973 52.2118C66.2837 50.405 71.442 43.8149 71.442 34.5145C71.442 23.5115 64.246 16.2728 52.4797 16.2728H49.9355C57.7952 18.8034 62.5518 25.5037 62.5518 34.5145C62.5518 46.0965 54.8085 53.8217 42.5357 53.8217H31.5554V42.1239H21.9781L17.2914 53.8565H16.0688L31.5204 15.1725H52.5961C64.8224 15.1725 72.6821 22.944 72.6821 34.5319C72.6821 44.3187 67.1512 51.349 58.0339 53.2832L58.0223 53.2774ZM192.249 68.2472H96.5291V0.752833H192.243L192.249 68.2472Z" fill="white"/>
<path d="M76.2695 15.1725H77.4339V53.8565H76.2695V15.1725ZM117.955 15.2883H118.957L121.099 20.2338H119.935L119.486 19.1335H117.39L116.942 20.2338H115.859L117.955 15.2883ZM119.12 18.1838L118.468 16.5913L117.81 18.1838H119.12ZM121.565 19.73L122.019 19.0351C122.354 19.2965 122.759 19.4536 123.183 19.4868C123.498 19.4868 123.637 19.371 123.637 19.1972C123.637 19.0235 123.271 18.8903 122.852 18.7629C122.328 18.6065 121.722 18.3575 121.722 17.6047C121.727 17.4332 121.767 17.2645 121.841 17.1094C121.914 16.9544 122.02 16.8163 122.15 16.704C122.281 16.5917 122.433 16.5078 122.598 16.4574C122.763 16.4071 122.936 16.3916 123.108 16.4117C123.609 16.4196 124.098 16.5704 124.517 16.8461L124.109 17.5873C123.802 17.3864 123.45 17.265 123.084 17.2341C122.822 17.2341 122.689 17.3499 122.689 17.5062C122.689 17.6626 123.049 17.819 123.457 17.9579C123.981 18.1317 124.621 18.3865 124.621 19.0872C124.621 19.9211 123.993 20.3033 123.166 20.3033C122.583 20.2992 122.018 20.1038 121.559 19.7474L121.565 19.73ZM125.175 19.73L125.64 19.0351C125.974 19.298 126.38 19.4554 126.805 19.4868C127.119 19.4868 127.259 19.371 127.259 19.1972C127.259 19.0235 126.892 18.8903 126.473 18.7629C125.949 18.6065 125.349 18.3575 125.349 17.6047C125.353 17.4335 125.392 17.2649 125.466 17.1098C125.539 16.9548 125.643 16.8166 125.773 16.7042C125.903 16.5919 126.056 16.5078 126.22 16.4575C126.385 16.4071 126.558 16.3915 126.729 16.4117C127.231 16.4196 127.72 16.5704 128.138 16.8461L127.73 17.5873C127.424 17.3864 127.072 17.265 126.706 17.2341C126.45 17.2341 126.31 17.3499 126.31 17.5062C126.31 17.6626 126.671 17.819 127.078 17.9579C127.602 18.1317 128.243 18.3865 128.243 19.0872C128.243 19.9211 127.614 20.3033 126.799 20.3033C126.212 20.3018 125.643 20.1062 125.18 19.7474L125.175 19.73ZM128.959 18.3575C128.943 17.9508 129.049 17.5486 129.265 17.2026C129.48 16.8566 129.795 16.5827 130.168 16.4163C130.542 16.2498 130.957 16.1984 131.36 16.2686C131.763 16.3388 132.136 16.5274 132.43 16.8102C132.725 17.0929 132.927 17.4569 133.012 17.8551C133.096 18.2534 133.059 18.6677 132.905 19.0447C132.751 19.4218 132.486 19.7442 132.146 19.9706C131.806 20.197 131.406 20.3169 130.997 20.3149C130.733 20.3218 130.471 20.2764 130.225 20.1814C129.979 20.0864 129.755 19.9436 129.565 19.7613C129.375 19.5791 129.224 19.3611 129.12 19.1201C129.016 18.8791 128.961 18.6198 128.959 18.3575ZM131.986 18.3575C131.992 18.2234 131.97 18.0895 131.922 17.9639C131.874 17.8383 131.801 17.7237 131.708 17.6269C131.614 17.53 131.502 17.453 131.378 17.4004C131.254 17.3479 131.12 17.3208 130.985 17.3209C130.851 17.3198 130.718 17.3463 130.594 17.3989C130.471 17.4514 130.359 17.5288 130.268 17.6262C130.176 17.7236 130.105 17.8388 130.06 17.9647C130.015 18.0906 129.997 18.2243 130.007 18.3575C130.001 18.4898 130.022 18.6218 130.069 18.7458C130.115 18.8699 130.186 18.9835 130.277 19.08C130.368 19.1765 130.478 19.254 130.599 19.3079C130.721 19.3618 130.852 19.3912 130.985 19.3941C131.121 19.3985 131.257 19.3744 131.383 19.3233C131.509 19.2723 131.623 19.1953 131.718 19.0976C131.812 18.9999 131.885 18.8835 131.931 18.756C131.977 18.6285 131.996 18.4927 131.986 18.3575ZM133.791 18.3575C133.787 18.0984 133.836 17.8412 133.934 17.6011C134.032 17.3611 134.178 17.1432 134.363 16.9605C134.548 16.7778 134.767 16.634 135.009 16.5378C135.251 16.4415 135.51 16.3947 135.771 16.4002C136.055 16.3883 136.339 16.4417 136.599 16.5561C136.859 16.6706 137.09 16.8431 137.273 17.0603L136.644 17.6974C136.532 17.5773 136.396 17.4822 136.244 17.4183C136.093 17.3544 135.929 17.3232 135.765 17.3267C135.508 17.3584 135.271 17.4838 135.102 17.6786C134.932 17.8734 134.841 18.1239 134.846 18.3816C134.851 18.6393 134.952 18.8861 135.129 19.0741C135.306 19.2622 135.547 19.3783 135.806 19.3999C135.97 19.3982 136.133 19.3616 136.282 19.2928C136.432 19.2239 136.565 19.1242 136.673 19.0003L137.302 19.6373C137.115 19.8623 136.879 20.0416 136.611 20.1611C136.344 20.2806 136.052 20.3372 135.759 20.3265C135.499 20.3312 135.241 20.2838 135 20.1871C134.759 20.0904 134.541 19.9464 134.357 19.7637C134.173 19.581 134.028 19.3633 133.931 19.1237C133.834 18.8841 133.786 18.6275 133.791 18.3691V18.3575ZM138.158 15.1146H139.287V16.0585H138.158V15.1146ZM138.158 16.4754H139.229V20.2396H138.158V16.4754ZM140.184 19.1104C140.184 18.2996 140.812 17.9116 141.709 17.9116C142.023 17.9088 142.334 17.9618 142.629 18.068V18.0101C142.629 17.5699 142.355 17.3151 141.814 17.3151C141.457 17.3175 141.103 17.3863 140.772 17.5178L140.504 16.7071C140.963 16.4952 141.465 16.3921 141.971 16.406C142.201 16.3884 142.432 16.4162 142.65 16.4877C142.869 16.5593 143.072 16.6732 143.246 16.8229C143.537 17.1549 143.684 17.5881 143.654 18.0274V20.2049H142.641V19.7995C142.495 19.9609 142.315 20.0875 142.113 20.1698C141.911 20.252 141.694 20.2878 141.476 20.2744C141.312 20.2924 141.147 20.2756 140.99 20.2252C140.833 20.1748 140.689 20.0918 140.566 19.9818C140.444 19.8717 140.347 19.7372 140.281 19.5869C140.215 19.4367 140.182 19.2743 140.184 19.1104ZM142.646 18.8787V18.6934C142.431 18.5964 142.196 18.547 141.959 18.5486C141.494 18.5486 141.22 18.7339 141.22 19.0872C141.22 19.4404 141.453 19.5389 141.802 19.5389C142.309 19.5621 142.641 19.2899 142.641 18.9019L142.646 18.8787ZM144.859 19.1683V17.3731H144.387V16.4697H144.841V15.5083H145.913V16.4697H146.803V17.3731H145.913V18.983C145.913 19.2262 146.017 19.3478 146.262 19.3478C146.447 19.3458 146.628 19.3002 146.792 19.2146V20.0717C146.534 20.2207 146.24 20.2949 145.942 20.2859C145.301 20.2686 144.865 20.0311 144.865 19.1625L144.859 19.1683ZM147.77 15.1146H148.899V16.0585H147.77V15.1146ZM147.799 16.4754H148.87V20.2396H147.799V16.4754ZM149.837 18.3575C149.82 17.9508 149.927 17.5486 150.142 17.2026C150.358 16.8566 150.673 16.5827 151.046 16.4163C151.42 16.2498 151.835 16.1984 152.238 16.2686C152.641 16.3388 153.014 16.5274 153.308 16.8102C153.602 17.0929 153.805 17.4569 153.889 17.8551C153.974 18.2534 153.937 18.6677 153.783 19.0447C153.628 19.4218 153.364 19.7442 153.024 19.9706C152.684 20.197 152.284 20.3169 151.874 20.3149C151.611 20.3218 151.348 20.2764 151.102 20.1814C150.857 20.0864 150.632 19.9436 150.443 19.7613C150.253 19.5791 150.102 19.3611 149.998 19.1201C149.894 18.8791 149.839 18.6198 149.837 18.3575ZM152.864 18.3575C152.87 18.2238 152.848 18.0904 152.8 17.9652C152.753 17.8401 152.68 17.7257 152.588 17.6289C152.495 17.5322 152.383 17.4551 152.26 17.4021C152.136 17.3492 152.003 17.3216 151.868 17.3209C151.734 17.3198 151.601 17.3463 151.478 17.3989C151.354 17.4514 151.243 17.5288 151.151 17.6262C151.059 17.7236 150.989 17.8388 150.944 17.9647C150.899 18.0906 150.881 18.2243 150.89 18.3575C150.885 18.4912 150.907 18.6246 150.954 18.7498C151.002 18.875 151.074 18.9894 151.167 19.0861C151.26 19.1829 151.371 19.26 151.495 19.3129C151.618 19.3658 151.751 19.3935 151.886 19.3941C152.02 19.3953 152.153 19.3687 152.277 19.3162C152.4 19.2637 152.511 19.1863 152.603 19.0889C152.695 18.9915 152.766 18.8762 152.811 18.7504C152.856 18.6245 152.874 18.4907 152.864 18.3575ZM154.861 16.4697H155.932V17.0024C156.055 16.823 156.22 16.6763 156.413 16.5753C156.605 16.4743 156.82 16.4221 157.038 16.4233C157.22 16.415 157.401 16.4463 157.569 16.5152C157.737 16.584 157.887 16.6887 158.01 16.8218C158.133 16.9549 158.225 17.1132 158.279 17.2855C158.333 17.4578 158.349 17.6399 158.325 17.819V20.2512H157.254V18.1259C157.254 17.6221 157.009 17.3615 156.602 17.3615C156.194 17.3615 155.932 17.6221 155.932 18.1259V20.2222H154.867L154.861 16.4697Z" fill="white"/>
<path d="M115.963 26.7719C115.946 26.3652 116.053 25.9629 116.268 25.6169C116.484 25.271 116.799 24.9971 117.172 24.8306C117.546 24.6642 117.961 24.6127 118.364 24.6829C118.767 24.7531 119.14 24.9418 119.434 25.2245C119.728 25.5073 119.931 25.8712 120.015 26.2695C120.1 26.6677 120.063 27.0821 119.909 27.4591C119.754 27.8361 119.49 28.1586 119.15 28.385C118.81 28.6113 118.409 28.7312 118 28.7293C117.737 28.7362 117.474 28.6908 117.228 28.5958C116.983 28.5007 116.758 28.3579 116.569 28.1757C116.379 27.9935 116.228 27.7755 116.124 27.5345C116.02 27.2934 115.965 27.0342 115.963 26.7719ZM118.99 26.7719C118.995 26.6382 118.974 26.5048 118.926 26.3796C118.879 26.2544 118.806 26.14 118.714 26.0433C118.621 25.9465 118.509 25.8694 118.386 25.8165C118.262 25.7636 118.129 25.736 117.994 25.7353C117.86 25.7341 117.727 25.7607 117.604 25.8132C117.48 25.8657 117.369 25.9431 117.277 26.0405C117.185 26.1379 117.115 26.2532 117.07 26.379C117.025 26.5049 117.007 26.6387 117.016 26.7719C117.012 26.9046 117.035 27.0368 117.084 27.1606C117.132 27.2844 117.204 27.3974 117.297 27.4929C117.39 27.5884 117.501 27.6645 117.624 27.7167C117.746 27.7689 117.878 27.7962 118.012 27.7969C118.145 27.7979 118.277 27.7717 118.4 27.7199C118.522 27.6681 118.633 27.5917 118.725 27.4956C118.816 27.3995 118.887 27.2857 118.933 27.1612C118.979 27.0367 118.998 26.9042 118.99 26.7719Z" fill="white"/>
<path d="M121.157 25.799H120.709V24.9014H121.157V24.6697C121.144 24.5049 121.165 24.3392 121.217 24.1821C121.269 24.0251 121.351 23.8798 121.46 23.7548C121.577 23.6507 121.715 23.5714 121.864 23.5217C122.013 23.4719 122.171 23.4527 122.328 23.4652C122.586 23.4585 122.843 23.4937 123.09 23.5695V24.4497C122.933 24.3936 122.768 24.3643 122.601 24.3628C122.357 24.3628 122.211 24.4786 122.211 24.7682V24.9014H123.084V25.77H122.234V28.6192H121.163L121.157 25.799ZM126.222 23.7432H127.311V28.6656H126.222V23.7432ZM128.569 24.9014H129.646V25.4342C129.769 25.2554 129.934 25.1093 130.127 25.0083C130.32 24.9074 130.534 24.8548 130.752 24.8551C130.933 24.8476 131.113 24.8796 131.28 24.9488C131.448 25.018 131.597 25.1228 131.72 25.2559C131.842 25.3889 131.933 25.5469 131.987 25.7187C132.041 25.8906 132.057 26.0722 132.033 26.2507V28.6829H130.962V26.5402C130.962 26.0364 130.729 25.7758 130.321 25.7758C129.914 25.7758 129.652 26.0364 129.652 26.5402V28.6424H128.575L128.569 24.9014ZM133.285 27.5826V25.799H132.836V24.9014H133.285V23.9169H134.362V24.9014H135.247V25.8164H134.362V27.4205C134.362 27.6695 134.466 27.7853 134.711 27.7853C134.896 27.7872 135.079 27.7413 135.241 27.6521V28.4918C134.984 28.6428 134.689 28.7191 134.391 28.7119C133.739 28.7119 133.285 28.4513 133.285 27.5826ZM135.893 26.7719C135.881 26.52 135.921 26.2684 136.009 26.0321C136.098 25.7958 136.233 25.5797 136.408 25.3969C136.582 25.2141 136.792 25.0682 137.025 24.9681C137.258 24.8681 137.508 24.8158 137.762 24.8145C139.025 24.8145 139.607 25.799 139.607 26.8588V27.1367H136.976C137.01 27.352 137.124 27.5468 137.295 27.6829C137.467 27.8189 137.683 27.8864 137.901 27.8722C138.072 27.8748 138.241 27.8422 138.399 27.7764C138.556 27.7106 138.698 27.6131 138.815 27.49L139.433 28.0285C139.17 28.3379 138.818 28.56 138.425 28.665C138.032 28.7701 137.616 28.7532 137.233 28.6165C136.85 28.4797 136.518 28.2298 136.281 27.9001C136.045 27.5705 135.915 27.1768 135.91 26.7719H135.893ZM138.559 26.4708C138.558 26.2603 138.473 26.0587 138.324 25.9093C138.175 25.76 137.973 25.6746 137.762 25.6716C137.549 25.6773 137.347 25.763 137.196 25.9113C137.044 26.0597 136.955 26.2596 136.947 26.4708H138.559ZM140.539 24.9072H141.61V25.66C141.685 25.4046 141.847 25.1828 142.068 25.0319C142.288 24.8811 142.554 24.8105 142.821 24.8319V25.9496H142.763C142.053 25.9496 141.598 26.3781 141.598 27.2815V28.6713H140.527L140.539 24.9072ZM143.642 23.5289H144.771V24.4786H143.642V23.5289ZM143.642 24.8898H144.713V28.654H143.642V24.8898Z" fill="white"/>
<path d="M145.701 26.7719C145.685 26.3652 145.791 25.9629 146.007 25.6169C146.222 25.271 146.537 24.9971 146.91 24.8306C147.284 24.6642 147.699 24.6127 148.102 24.6829C148.505 24.7531 148.878 24.9418 149.172 25.2245C149.467 25.5073 149.669 25.8712 149.754 26.2695C149.838 26.6677 149.801 27.0821 149.647 27.4591C149.493 27.8361 149.228 28.1586 148.888 28.385C148.548 28.6113 148.148 28.7312 147.739 28.7293C147.475 28.7362 147.213 28.6908 146.967 28.5958C146.721 28.5007 146.497 28.3579 146.307 28.1757C146.117 27.9935 145.966 27.7755 145.862 27.5345C145.758 27.2934 145.703 27.0342 145.701 26.7719ZM148.728 26.7719C148.734 26.6382 148.712 26.5048 148.665 26.3796C148.617 26.2544 148.545 26.14 148.452 26.0433C148.359 25.9465 148.247 25.8694 148.124 25.8165C148 25.7636 147.867 25.736 147.733 25.7353C147.598 25.7341 147.465 25.7607 147.342 25.8132C147.218 25.8657 147.107 25.9431 147.015 26.0405C146.924 26.1379 146.853 26.2532 146.808 26.379C146.763 26.5049 146.745 26.6387 146.755 26.7719C146.751 26.9046 146.774 27.0368 146.822 27.1606C146.87 27.2844 146.943 27.3974 147.035 27.4929C147.128 27.5884 147.239 27.6645 147.362 27.7167C147.485 27.7689 147.617 27.7962 147.75 27.7969C147.883 27.7979 148.015 27.7717 148.138 27.7199C148.261 27.6681 148.371 27.5917 148.463 27.4956C148.555 27.3995 148.626 27.2857 148.671 27.1612C148.717 27.0367 148.736 26.9042 148.728 26.7719Z" fill="white"/>
<path d="M150.708 24.9014H151.78V25.6542C151.855 25.3998 152.016 25.1788 152.235 25.0281C152.454 24.8773 152.719 24.806 152.985 24.8261V25.9438H152.927C152.211 25.9438 151.762 26.3723 151.762 27.2757V28.6655H150.691L150.708 24.9014ZM116.265 32.1517H118.187C118.525 32.1286 118.865 32.1749 119.184 32.2879C119.504 32.4008 119.797 32.5779 120.045 32.8081C120.293 33.0384 120.491 33.3169 120.626 33.6264C120.761 33.9359 120.831 34.2697 120.831 34.6071C120.831 34.9445 120.761 35.2784 120.626 35.5878C120.491 35.8973 120.293 36.1758 120.045 36.4061C119.797 36.6364 119.504 36.8135 119.184 36.9264C118.865 37.0393 118.525 37.0857 118.187 37.0625H116.265V32.1517ZM118.187 36.0896C118.565 36.0661 118.92 35.8999 119.18 35.625C119.439 35.3501 119.584 34.9872 119.584 34.61C119.584 34.2329 119.439 33.8699 119.18 33.595C118.92 33.3201 118.565 33.154 118.187 33.1304H117.348V36.0838L118.187 36.0896ZM121.622 35.1862C121.61 34.9344 121.649 34.6827 121.738 34.4464C121.826 34.2101 121.962 33.9941 122.137 33.8112C122.311 33.6284 122.521 33.4826 122.754 33.3825C122.986 33.2824 123.237 33.2302 123.49 33.2289C124.754 33.2289 125.336 34.2133 125.336 35.2731V35.5511H122.705C122.739 35.7669 122.853 35.9622 123.024 36.0992C123.195 36.2362 123.411 36.3051 123.63 36.2923C123.802 36.2939 123.972 36.2603 124.131 36.1936C124.289 36.1268 124.432 36.0283 124.55 35.9043L125.161 36.4429C124.899 36.7522 124.547 36.9743 124.154 37.0794C123.761 37.1845 123.345 37.1675 122.962 37.0308C122.578 36.8941 122.246 36.6441 122.01 36.3145C121.774 35.9848 121.644 35.5911 121.639 35.1862H121.622ZM124.288 34.8851C124.287 34.6746 124.202 34.4731 124.053 34.3237C123.904 34.1743 123.702 34.089 123.49 34.0859C123.278 34.0916 123.076 34.1773 122.925 34.3257C122.773 34.474 122.684 34.674 122.675 34.8851H124.288ZM125.976 36.5645L126.431 35.8696C126.767 36.1271 127.172 36.282 127.595 36.3155C127.909 36.3155 128.049 36.1997 128.049 36.0259C128.049 35.8522 127.682 35.719 127.263 35.5916C126.739 35.4352 126.134 35.1862 126.134 34.4334C126.138 34.2619 126.179 34.0932 126.252 33.9381C126.326 33.7831 126.431 33.645 126.562 33.5327C126.692 33.4204 126.845 33.3365 127.01 33.2861C127.174 33.2358 127.348 33.2203 127.519 33.2404C128.021 33.2483 128.51 33.3991 128.928 33.6748L128.521 34.4102C128.214 34.2102 127.862 34.0888 127.496 34.057C127.234 34.057 127.1 34.1728 127.1 34.3349C127.1 34.4971 127.461 34.6419 127.869 34.7809C128.393 34.9546 129.033 35.2094 129.033 35.9391C129.033 36.773 128.404 37.1552 127.578 37.1552C126.992 37.1453 126.427 36.9416 125.971 36.5761L125.976 36.5645ZM129.97 31.9317H131.1V32.8814H129.97V31.9317ZM130 33.2926H131.071V37.0625H130V33.2926ZM132.241 37.798L132.608 36.9988C132.994 37.2296 133.438 37.3499 133.889 37.3463C134.616 37.3463 134.966 36.9988 134.966 36.3213V36.136C134.824 36.3286 134.638 36.4845 134.423 36.5903C134.209 36.6962 133.971 36.7489 133.731 36.744C133.262 36.744 132.812 36.5585 132.48 36.2284C132.148 35.8982 131.962 35.4504 131.962 34.9835C131.962 34.5166 132.148 34.0689 132.48 33.7387C132.812 33.4086 133.262 33.2231 133.731 33.2231C133.966 33.2216 134.198 33.273 134.409 33.3732C134.621 33.4735 134.807 33.6202 134.954 33.8022V33.2926H136.025V36.1881C136.048 36.4547 136.017 36.7232 135.934 36.9778C135.851 37.2324 135.718 37.4679 135.542 37.6706C135.32 37.8641 135.062 38.0119 134.782 38.1053C134.502 38.1988 134.206 38.236 133.912 38.2149C133.329 38.2135 132.755 38.0704 132.241 37.798ZM134.966 34.9778C134.966 34.7351 134.869 34.5024 134.696 34.3308C134.524 34.1592 134.29 34.0628 134.046 34.0628C133.802 34.0628 133.568 34.1592 133.395 34.3308C133.223 34.5024 133.126 34.7351 133.126 34.9778C133.124 35.0958 133.147 35.2129 133.193 35.3219C133.238 35.4308 133.306 35.5291 133.392 35.6106C133.478 35.6922 133.58 35.7552 133.691 35.7958C133.803 35.8364 133.922 35.8536 134.04 35.8464C134.159 35.8527 134.278 35.8349 134.389 35.7941C134.501 35.7534 134.603 35.6905 134.69 35.6093C134.776 35.528 134.845 35.4302 134.893 35.3216C134.94 35.2131 134.965 35.0961 134.966 34.9778ZM137.12 33.2984H138.191V33.8311C138.315 33.6523 138.482 33.5062 138.675 33.4053C138.869 33.3044 139.084 33.2518 139.303 33.252C139.484 33.2445 139.664 33.2765 139.832 33.3458C139.999 33.415 140.149 33.5198 140.271 33.6528C140.393 33.7858 140.484 33.9438 140.538 34.1157C140.592 34.2876 140.608 34.4691 140.584 34.6477V37.0625H139.513V34.9662C139.513 34.4566 139.28 34.196 138.861 34.196C138.441 34.196 138.191 34.4566 138.191 34.9662V37.0625H137.12V33.2984ZM141.486 35.1862C141.475 34.9344 141.514 34.6827 141.603 34.4464C141.691 34.2101 141.827 33.9941 142.001 33.8112C142.176 33.6284 142.386 33.4826 142.618 33.3825C142.851 33.2824 143.102 33.2302 143.355 33.2289C144.619 33.2289 145.201 34.2133 145.201 35.2731V35.5511H142.569C142.604 35.7669 142.717 35.9622 142.888 36.0992C143.059 36.2362 143.276 36.3051 143.495 36.2923C143.662 36.2913 143.827 36.2564 143.981 36.1897C144.134 36.123 144.272 36.0259 144.386 35.9043L145.003 36.4429C144.741 36.7544 144.389 36.9785 143.995 37.0849C143.6 37.1913 143.183 37.1749 142.798 37.0379C142.414 36.901 142.081 36.65 141.844 36.3189C141.607 35.9878 141.478 35.5925 141.475 35.1862H141.486ZM144.153 34.8851C144.151 34.6746 144.067 34.4731 143.918 34.3237C143.769 34.1743 143.567 34.089 143.355 34.0859C143.143 34.0916 142.941 34.1773 142.789 34.3257C142.638 34.474 142.549 34.674 142.54 34.8851H144.153ZM146.132 33.2984H147.204V34.0512C147.279 33.7957 147.441 33.5739 147.661 33.4231C147.882 33.2723 148.148 33.2016 148.415 33.2231V34.3407H148.356C147.646 34.3407 147.192 34.7693 147.192 35.6727V37.0625H146.132V33.2984ZM148.904 36.5645L149.369 35.8696C149.713 36.1339 150.129 36.2893 150.563 36.3155C150.871 36.3155 151.011 36.1997 151.011 36.0259C151.011 35.8522 150.644 35.719 150.231 35.5916C149.707 35.4352 149.102 35.1862 149.102 34.4334C149.105 34.2622 149.145 34.0936 149.218 33.9385C149.291 33.7835 149.396 33.6453 149.526 33.5329C149.656 33.4206 149.808 33.3365 149.973 33.2862C150.137 33.2358 150.31 33.2202 150.481 33.2404C150.985 33.2482 151.476 33.3989 151.896 33.6748L151.489 34.4102C151.182 34.2093 150.83 34.0879 150.464 34.057C150.208 34.057 150.074 34.1728 150.074 34.3349C150.074 34.4971 150.423 34.6419 150.842 34.7809C151.366 34.9546 152.007 35.2094 152.007 35.9391C152.007 36.773 151.378 37.1552 150.563 37.1552C149.964 37.1535 149.383 36.9493 148.915 36.5761L148.904 36.5645ZM115.916 44.3824C115.916 43.56 116.545 43.1836 117.441 43.1836C117.754 43.182 118.065 43.2329 118.361 43.3342V43.2763C118.361 42.8362 118.088 42.5929 117.546 42.5929C117.189 42.5925 116.835 42.6613 116.504 42.7956L116.236 41.9849C116.696 41.7757 117.198 41.6728 117.703 41.6838C117.933 41.667 118.165 41.6957 118.383 41.7683C118.602 41.8408 118.804 41.9558 118.978 42.1065C119.124 42.2689 119.235 42.4588 119.305 42.6647C119.375 42.8706 119.402 43.0885 119.386 43.3052V45.4885H118.35V45.0831C118.203 45.2435 118.023 45.3694 117.821 45.4516C117.62 45.5337 117.403 45.5701 117.185 45.5579C117.023 45.5734 116.859 45.5547 116.704 45.503C116.55 45.4514 116.407 45.368 116.287 45.2583C116.167 45.1485 116.071 45.0149 116.006 44.866C115.941 44.7171 115.909 44.5563 115.91 44.394L115.916 44.3824ZM118.379 44.1507V43.9596C118.162 43.8676 117.928 43.8203 117.692 43.8206C117.226 43.8206 116.952 43.9944 116.952 44.3534C116.952 44.7125 117.185 44.8167 117.535 44.8167C118.041 44.8167 118.379 44.5445 118.379 44.1565V44.1507ZM120.457 41.6953H121.528V42.2744C121.651 42.0953 121.816 41.9489 122.009 41.8479C122.202 41.747 122.417 41.6946 122.635 41.6953C122.816 41.687 122.997 41.7183 123.165 41.7872C123.333 41.856 123.483 41.9607 123.606 42.0938C123.729 42.2269 123.821 42.3852 123.875 42.5576C123.93 42.7299 123.945 42.9119 123.921 43.091V45.5232H122.844V43.3805C122.844 42.8767 122.6 42.6161 122.192 42.6161C121.785 42.6161 121.523 42.8767 121.523 43.3805V45.4769H120.451L120.457 41.6953ZM124.824 43.589C124.794 43.344 124.817 43.0955 124.891 42.86C124.966 42.6245 125.09 42.4075 125.255 42.2234C125.42 42.0393 125.623 41.8923 125.85 41.7923C126.077 41.6922 126.322 41.6414 126.57 41.6432C126.796 41.6423 127.02 41.6942 127.222 41.7948C127.424 41.8954 127.6 42.0418 127.735 42.2223V40.3692H128.812V45.4942H127.735V44.9383C127.607 45.128 127.433 45.283 127.23 45.3892C127.027 45.4954 126.8 45.5494 126.57 45.5464C126.323 45.542 126.079 45.4867 125.855 45.3838C125.63 45.281 125.429 45.1329 125.265 44.949C125.101 44.765 124.977 44.5491 124.901 44.315C124.825 44.0809 124.799 43.8337 124.824 43.589ZM127.735 43.589C127.709 43.4146 127.634 43.2512 127.517 43.1181C127.401 42.9851 127.249 42.8881 127.079 42.8385C126.909 42.789 126.728 42.7891 126.558 42.8387C126.388 42.8883 126.236 42.9855 126.12 43.1186C126.004 43.2517 125.928 43.4151 125.903 43.5896C125.877 43.764 125.903 43.942 125.976 44.1025C126.049 44.2631 126.167 44.3993 126.316 44.4951C126.464 44.5909 126.638 44.6422 126.815 44.643C126.947 44.6389 127.077 44.6078 127.196 44.5516C127.315 44.4955 127.422 44.4155 127.509 44.3166C127.595 44.2177 127.661 44.102 127.701 43.9768C127.741 43.8516 127.754 43.7196 127.741 43.589H127.735ZM132.264 40.5661H134.186C134.524 40.543 134.864 40.5893 135.183 40.7022C135.503 40.8151 135.796 40.9922 136.044 41.2225C136.292 41.4528 136.489 41.7313 136.625 42.0408C136.76 42.3502 136.83 42.6841 136.83 43.0215C136.83 43.3589 136.76 43.6927 136.625 44.0022C136.489 44.3117 136.292 44.5902 136.044 44.8205C135.796 45.0507 135.503 45.2278 135.183 45.3407C134.864 45.4537 134.524 45.5 134.186 45.4769H132.264V40.5661ZM134.186 44.504C134.581 44.504 134.96 44.3478 135.239 44.0698C135.519 43.7917 135.676 43.4147 135.676 43.0215C135.676 42.6283 135.519 42.2512 135.239 41.9732C134.96 41.6952 134.581 41.539 134.186 41.539H133.347V44.504H134.186ZM137.621 43.6064C137.609 43.3545 137.648 43.1029 137.737 42.8666C137.825 42.6303 137.961 42.4142 138.135 42.2314C138.31 42.0486 138.52 41.9027 138.753 41.8026C138.985 41.7025 139.236 41.6503 139.489 41.649C140.753 41.649 141.335 42.6335 141.335 43.6932V43.9712H138.703C138.736 44.1876 138.85 44.3837 139.021 44.521C139.193 44.6582 139.41 44.7265 139.629 44.7125C139.8 44.7147 139.97 44.6813 140.127 44.6145C140.285 44.5477 140.426 44.4489 140.543 44.3245L141.16 44.863C140.898 45.1724 140.546 45.3944 140.153 45.4995C139.76 45.6046 139.344 45.5877 138.961 45.4509C138.577 45.3142 138.245 45.0643 138.009 44.7346C137.773 44.4049 137.643 44.0113 137.638 43.6064H137.621ZM140.287 43.3052C140.286 43.0947 140.201 42.8932 140.052 42.7438C139.903 42.5945 139.701 42.5091 139.489 42.5061C139.277 42.5118 139.075 42.5974 138.923 42.7458C138.772 42.8941 138.683 43.0941 138.674 43.3052H140.287ZM142.092 43.6064C142.089 43.3475 142.138 43.0906 142.236 42.8509C142.335 42.6113 142.481 42.3937 142.665 42.2112C142.85 42.0286 143.069 41.8848 143.311 41.7883C143.553 41.6917 143.811 41.6443 144.071 41.649C144.353 41.6419 144.632 41.6976 144.889 41.8118C145.146 41.926 145.374 42.096 145.556 42.3092L144.974 42.9462C144.861 42.8254 144.724 42.7298 144.571 42.6659C144.419 42.602 144.254 42.5712 144.089 42.5756C143.835 42.6129 143.604 42.7408 143.439 42.9354C143.273 43.13 143.184 43.378 143.189 43.6329C143.194 43.8878 143.293 44.1321 143.466 44.3202C143.639 44.5082 143.875 44.6271 144.13 44.6545C144.29 44.6479 144.448 44.6091 144.593 44.5404C144.738 44.4717 144.867 44.3747 144.974 44.255L145.603 44.892C145.416 45.1166 145.179 45.2952 144.912 45.4137C144.644 45.5323 144.352 45.5876 144.06 45.5753C143.8 45.58 143.542 45.5326 143.301 45.4359C143.06 45.3392 142.841 45.1952 142.658 45.0125C142.474 44.8298 142.329 44.6122 142.232 44.3725C142.135 44.1329 142.087 43.8763 142.092 43.618V43.6064ZM146.138 43.6064C146.123 43.2012 146.23 42.8009 146.446 42.4567C146.661 42.1126 146.975 41.8403 147.347 41.6751C147.719 41.5098 148.133 41.459 148.534 41.5291C148.936 41.5993 149.307 41.7873 149.6 42.0689C149.893 42.3506 150.095 42.713 150.179 43.1096C150.264 43.5062 150.227 43.9189 150.074 44.2946C149.921 44.6703 149.659 44.9919 149.32 45.2181C148.982 45.4442 148.583 45.5646 148.176 45.5637C147.911 45.5739 147.648 45.5307 147.4 45.4368C147.153 45.343 146.928 45.2003 146.737 45.0174C146.547 44.8346 146.396 44.6153 146.293 44.3728C146.19 44.1303 146.137 43.8696 146.138 43.6064ZM149.166 43.6064C149.17 43.4729 149.148 43.3398 149.1 43.215C149.052 43.0902 148.98 42.9761 148.887 42.8795C148.795 42.7829 148.683 42.7058 148.56 42.6526C148.437 42.5994 148.304 42.5712 148.17 42.5698C148.035 42.5678 147.902 42.5938 147.777 42.6459C147.653 42.6981 147.541 42.7754 147.449 42.8729C147.356 42.9703 147.285 43.0859 147.24 43.2121C147.195 43.3384 147.176 43.4727 147.186 43.6064C147.181 43.7403 147.202 43.874 147.25 43.9995C147.297 44.125 147.369 44.2398 147.462 44.337C147.555 44.4342 147.667 44.5119 147.79 44.5654C147.914 44.619 148.047 44.6473 148.182 44.6488C148.318 44.6532 148.455 44.629 148.581 44.5776C148.708 44.5261 148.822 44.4487 148.917 44.3503C149.011 44.2519 149.084 44.1348 149.13 44.0066C149.176 43.8784 149.194 43.742 149.183 43.6064H149.166ZM151.157 41.6953H152.228V42.4482C152.303 42.1927 152.465 41.9709 152.686 41.8201C152.906 41.6693 153.172 41.5986 153.439 41.6201V42.7377H153.381C152.67 42.7377 152.216 43.1663 152.216 44.0697V45.4595H151.145L151.157 41.6953ZM153.847 44.3824C153.847 43.56 154.469 43.1836 155.36 43.1836C155.675 43.1816 155.988 43.2325 156.286 43.3342V43.2763C156.286 42.8362 156.012 42.5929 155.471 42.5929C155.112 42.5925 154.756 42.6613 154.423 42.7956L154.155 41.9849C154.615 41.7771 155.117 41.6742 155.622 41.6838C155.853 41.6662 156.085 41.6945 156.305 41.7671C156.525 41.8397 156.728 41.9551 156.903 42.1065C157.047 42.2696 157.157 42.4596 157.227 42.6653C157.297 42.8711 157.326 43.0886 157.311 43.3052V45.4885H156.274V45.0831C156.128 45.2429 155.947 45.3683 155.746 45.4504C155.544 45.5325 155.327 45.5693 155.11 45.5579C154.947 45.5734 154.784 45.5547 154.629 45.503C154.474 45.4514 154.332 45.368 154.212 45.2583C154.092 45.1485 153.996 45.0149 153.931 44.866C153.866 44.7171 153.833 44.5563 153.835 44.394L153.847 44.3824ZM156.309 44.1507V43.9596C156.092 43.8676 155.858 43.8203 155.622 43.8206C155.156 43.8206 154.883 43.9944 154.883 44.3534C154.883 44.7125 155.116 44.8167 155.465 44.8167C155.966 44.8167 156.309 44.5445 156.309 44.1565V44.1507ZM158.522 44.4171V42.6219H158.067V41.6953H158.522V40.7572H159.593V41.6953H160.484V42.6045H159.593V44.2086C159.593 44.4576 159.698 44.5793 159.942 44.5793C160.128 44.5802 160.311 44.5323 160.472 44.4403V45.2973C160.217 45.4485 159.924 45.5248 159.628 45.5174C158.947 45.5406 158.522 45.2858 158.522 44.4171ZM161.124 43.6064C161.109 43.2012 161.216 42.8009 161.431 42.4567C161.647 42.1126 161.961 41.8403 162.333 41.6751C162.705 41.5098 163.119 41.459 163.52 41.5291C163.921 41.5993 164.293 41.7873 164.586 42.0689C164.879 42.3506 165.081 42.713 165.165 43.1096C165.25 43.5062 165.213 43.9189 165.06 44.2946C164.907 44.6703 164.644 44.9919 164.306 45.2181C163.968 45.4442 163.569 45.5646 163.162 45.5637C162.898 45.5707 162.636 45.5253 162.39 45.4302C162.144 45.3352 161.92 45.1924 161.73 45.0102C161.54 44.828 161.389 44.61 161.285 44.3689C161.181 44.1279 161.126 43.8687 161.124 43.6064ZM164.151 43.6064C164.156 43.4729 164.134 43.3398 164.086 43.215C164.038 43.0902 163.966 42.9761 163.873 42.8795C163.78 42.7829 163.669 42.7058 163.546 42.6526C163.423 42.5994 163.29 42.5712 163.156 42.5698C163.021 42.5678 162.887 42.5938 162.763 42.6459C162.639 42.6981 162.527 42.7754 162.435 42.8729C162.342 42.9703 162.271 43.0859 162.226 43.2121C162.181 43.3384 162.162 43.4727 162.172 43.6064C162.167 43.7403 162.188 43.874 162.236 43.9995C162.283 44.125 162.355 44.2398 162.448 44.337C162.541 44.4342 162.653 44.5119 162.776 44.5654C162.9 44.619 163.033 44.6473 163.168 44.6488C163.305 44.6541 163.442 44.6304 163.569 44.5794C163.696 44.5283 163.811 44.451 163.907 44.3525C164.002 44.2541 164.075 44.1367 164.121 44.008C164.167 43.8794 164.186 43.7425 164.175 43.6064H164.151ZM166.131 41.6953H167.208V42.4482C167.283 42.1938 167.444 41.9727 167.663 41.822C167.883 41.6713 168.147 41.6 168.413 41.6201V42.7377H168.355C167.645 42.7377 167.191 43.1663 167.191 44.0697V45.4595H166.114L166.131 41.6953ZM168.926 44.9788L169.391 44.2839C169.726 44.5454 170.131 44.7008 170.556 44.7298C170.87 44.7298 171.01 44.614 171.01 44.4403C171.01 44.2665 170.643 44.1334 170.23 44.0059C169.706 43.8554 169.1 43.6006 169.1 42.8477C169.104 42.6765 169.144 42.508 169.217 42.3529C169.29 42.1978 169.395 42.0597 169.524 41.9473C169.654 41.8349 169.807 41.7509 169.971 41.7005C170.136 41.6501 170.309 41.6346 170.48 41.6548C170.982 41.6617 171.471 41.8125 171.889 42.0891L171.481 42.8246C171.173 42.6276 170.822 42.5084 170.457 42.4771C170.201 42.4771 170.067 42.5929 170.067 42.7493C170.067 42.9057 170.416 43.0562 170.835 43.1952C171.359 43.3689 172 43.6237 172 44.3534C172 45.1931 171.371 45.5695 170.556 45.5695C169.964 45.5627 169.392 45.3588 168.931 44.9904L168.926 44.9788ZM115.968 52.0207C115.952 51.614 116.059 51.2117 116.274 50.8658C116.49 50.5198 116.805 50.2459 117.178 50.0795C117.552 49.913 117.967 49.8616 118.37 49.9318C118.773 50.002 119.145 50.1906 119.44 50.4734C119.734 50.7561 119.937 51.1201 120.021 51.5183C120.106 51.9166 120.069 52.3309 119.914 52.7079C119.76 53.0849 119.496 53.4074 119.156 53.6338C118.816 53.8602 118.415 53.9801 118.006 53.9781C117.743 53.985 117.48 53.9396 117.234 53.8446C116.989 53.7495 116.764 53.6068 116.575 53.4245C116.385 53.2423 116.234 53.0243 116.129 52.7833C116.025 52.5423 115.971 52.283 115.968 52.0207ZM118.996 52.0207C119.001 51.8868 118.98 51.7531 118.932 51.6276C118.885 51.5021 118.813 51.3873 118.72 51.2901C118.627 51.1929 118.515 51.1152 118.392 51.0617C118.268 51.0081 118.135 50.9798 118 50.9783C117.866 50.978 117.733 51.0053 117.609 51.0584C117.486 51.1116 117.375 51.1896 117.283 51.2874C117.191 51.3852 117.12 51.5009 117.076 51.627C117.031 51.7532 117.013 51.8872 117.022 52.0207C117.017 52.1544 117.038 52.2878 117.086 52.413C117.133 52.5382 117.206 52.6526 117.299 52.7493C117.392 52.8461 117.503 52.9232 117.627 52.9761C117.75 53.029 117.883 53.0566 118.018 53.0573C118.152 53.0585 118.285 53.0319 118.409 52.9794C118.532 52.9269 118.643 52.8495 118.735 52.7521C118.827 52.6547 118.898 52.5394 118.942 52.4136C118.987 52.2877 119.006 52.1539 118.996 52.0207ZM121.162 51.0362H120.713V50.1676H121.162V49.936C121.149 49.7711 121.169 49.6053 121.22 49.4482C121.272 49.2911 121.355 49.1458 121.464 49.021C121.581 48.9159 121.719 48.8356 121.868 48.7848C122.017 48.734 122.175 48.7139 122.332 48.7256C122.59 48.7218 122.847 48.7569 123.095 48.8299V49.7159C122.939 49.6551 122.773 49.6237 122.606 49.6232C122.361 49.6232 122.215 49.7506 122.215 50.0286V50.1734H123.089V51.042H122.239V53.8912H121.167L121.162 51.0362ZM126.18 48.9746H128.433C128.695 48.958 128.958 48.9935 129.206 49.079C129.454 49.1645 129.682 49.2984 129.877 49.4727C130.023 49.6271 130.135 49.8095 130.207 50.0087C130.279 50.2079 130.31 50.4196 130.296 50.6309C130.305 50.9578 130.207 51.2788 130.019 51.5467C129.83 51.8146 129.56 52.0152 129.248 52.1192L130.454 53.8565H129.184L128.078 52.3219H127.234V53.8854H126.151L126.18 48.9746ZM128.364 51.3605C128.887 51.3605 129.196 51.071 129.196 50.654C129.196 50.2371 128.876 49.9591 128.346 49.9591H127.263V51.3663L128.364 51.3605ZM131.275 52.5593V50.1271H132.346V52.2234C132.346 52.7272 132.59 52.9878 132.998 52.9878C133.405 52.9878 133.667 52.7272 133.667 52.2234V50.1271H134.739V53.8912H133.667V53.3584C133.545 53.5379 133.38 53.6846 133.187 53.7856C132.994 53.8866 132.779 53.9388 132.561 53.9375C132.382 53.9454 132.203 53.9145 132.037 53.847C131.871 53.7795 131.722 53.677 131.6 53.5465C131.477 53.416 131.385 53.2607 131.329 53.0913C131.273 52.9218 131.254 52.7423 131.275 52.5651V52.5593ZM135.542 53.3874L136.008 52.6925C136.342 52.9554 136.747 53.1128 137.172 53.1442C137.487 53.1442 137.626 53.0284 137.626 52.8546C137.626 52.6809 137.26 52.5419 136.84 52.4203C136.316 52.2639 135.717 52.0149 135.717 51.2621C135.72 51.0909 135.76 50.9223 135.833 50.7672C135.906 50.6122 136.011 50.474 136.141 50.3617C136.271 50.2493 136.423 50.1652 136.588 50.1149C136.752 50.0645 136.926 50.0489 137.097 50.0691C137.598 50.077 138.087 50.2278 138.505 50.5035L138.098 51.2447C137.791 51.0438 137.439 50.9224 137.073 50.8915C136.817 50.8915 136.683 51.0073 136.683 51.1637C136.683 51.32 137.033 51.4706 137.452 51.6153C137.976 51.7891 138.616 52.0439 138.616 52.7736C138.616 53.6075 137.987 53.9897 137.161 53.9897C136.571 53.9799 136.001 53.774 135.542 53.4048V53.3874ZM139.152 53.3874L139.617 52.6925C139.952 52.9554 140.357 53.1128 140.782 53.1442C141.096 53.1442 141.236 53.0284 141.236 52.8546C141.236 52.6809 140.869 52.5419 140.45 52.4203C139.926 52.2639 139.326 52.0149 139.326 51.2621C139.33 51.0909 139.37 50.9223 139.443 50.7672C139.516 50.6122 139.621 50.474 139.751 50.3617C139.881 50.2493 140.033 50.1652 140.197 50.1149C140.362 50.0645 140.535 50.0489 140.706 50.0691C141.208 50.077 141.697 50.2278 142.115 50.5035L141.708 51.2447C141.401 51.0438 141.049 50.9224 140.683 50.8915C140.427 50.8915 140.293 51.0073 140.293 51.1637C140.293 51.32 140.642 51.4706 141.061 51.6153C141.585 51.7891 142.226 52.0439 142.226 52.7736C142.226 53.6075 141.597 53.9897 140.782 53.9897C140.186 53.9775 139.611 53.7653 139.152 53.3874ZM143.151 48.7662H144.275V49.7101H143.151V48.7662ZM143.151 50.1271H144.229V53.8912H143.151V50.1271ZM145.172 52.7909C145.172 51.9686 145.8 51.5922 146.697 51.5922C147.011 51.5894 147.322 51.6423 147.617 51.7485V51.6906C147.617 51.2505 147.343 50.9957 146.802 50.9957C146.445 50.9952 146.091 51.0641 145.76 51.1984L145.492 50.3819C145.951 50.1706 146.453 50.0675 146.959 50.0807C147.189 50.0632 147.42 50.091 147.638 50.1625C147.857 50.2341 148.06 50.348 148.234 50.4977C148.379 50.6603 148.49 50.8502 148.56 51.056C148.63 51.2619 148.658 51.4797 148.642 51.6964V53.8796H147.605V53.4743C147.46 53.6357 147.28 53.7623 147.078 53.8445C146.876 53.9268 146.658 53.9625 146.441 53.9491C146.279 53.9645 146.117 53.9461 145.963 53.8951C145.809 53.8442 145.667 53.7618 145.547 53.6533C145.427 53.5448 145.331 53.4126 145.266 53.2651C145.2 53.1176 145.166 52.958 145.166 52.7967L145.172 52.7909ZM147.634 52.5593V52.3682C147.417 52.2761 147.184 52.2289 146.947 52.2292C146.493 52.2292 146.208 52.4145 146.208 52.762C146.208 53.1094 146.441 53.2253 146.79 53.2253C147.303 53.2253 147.634 52.9531 147.634 52.5651V52.5593Z" fill="white"/>
</svg>
