<svg width="25" height="23" viewBox="0 0 25 23" fill="none" xmlns="http://www.w3.org/2000/svg">
<path d="M18.3594 0.351929C20.2323 0.351929 21.9429 1.12718 23.176 2.53491C24.3522 3.87784 25 5.67633 25 7.59913C25 9.69215 24.1878 11.6388 22.4441 13.7255C20.8856 15.5904 18.6436 17.5127 16.0475 19.7385L16.0384 19.7463C15.0737 20.5735 14.0762 21.4288 13.0144 22.3635L12.9824 22.3917C12.8443 22.5133 12.6722 22.5742 12.5 22.5742C12.3278 22.5742 12.1557 22.5134 12.0176 22.3917L11.9856 22.3635C10.9206 21.426 9.92028 20.5683 8.95295 19.7389L8.95264 19.7386C6.3564 17.5127 4.11436 15.5904 2.55591 13.7255C0.812158 11.6389 0 9.69215 0 7.59913C0 5.67633 0.647803 3.87784 1.82397 2.53496C3.05708 1.12723 4.76768 0.351929 6.64062 0.351929C9.2748 0.351929 10.9425 1.93485 11.8777 3.2628C12.1204 3.60738 12.3267 3.9529 12.5 4.27804C12.6733 3.9529 12.8797 3.60738 13.1223 3.2628C14.0575 1.93485 15.7252 0.351929 18.3594 0.351929Z" fill="white"/>
</svg>
